<svg width="2178" height="1636" xmlns="http://www.w3.org/2000/svg" xmlns:xlink="http://www.w3.org/1999/xlink" xml:space="preserve" overflow="hidden"><g transform="translate(-1100 -244)"><path d="M5.15625-1.36759e-06 5.1566 1314.27-5.1559 1314.27-5.15625 1.36759e-06ZM25.7816 1309.12 0.000360892 1360.68-25.7809 1309.12Z" transform="matrix(1 0 0 -1 1291 1655.68)"/><path d="M1291.5 1650.92 3189.91 1650.92 3189.91 1660.08 1291.5 1660.08ZM3185.32 1632.58 3231.16 1655.5 3185.32 1678.42Z"/><path d="M1405 1460.25 1445.33 1460.25 1465.5 1430 1485.67 1460.25 1526 1460.25 1505.83 1490.5 1526 1520.75 1485.67 1520.75 1465.5 1551 1445.33 1520.75 1405 1520.75 1425.17 1490.5Z" fill-rule="evenodd"/><text font-family="Arial,Arial_MSFontService,sans-serif" font-weight="400" font-size="110" transform="matrix(1 0 0 1 1166.78 390)">Y</text><text font-family="Arial,Arial_MSFontService,sans-serif" font-weight="400" font-size="110" transform="matrix(1 0 0 1 3133.17 1788)">X</text><path d="M1601.5 1505.92 1879.26 1505.92 1879.26 1515.08 1601.5 1515.08ZM1874.67 1487.58 1920.51 1510.5 1874.67 1533.42Z"/><text font-family="Cambria Math,Cambria Math_MSFontService,sans-serif" font-weight="400" font-size="110" transform="matrix(1 0 0 1 1952.23 1542)">v</text><text font-family="Arial,Arial_MSFontService,sans-serif" font-weight="400" font-size="110" transform="matrix(1 0 0 1 1361.55 1625)">Receiver</text><path d="M3.13301-3.34533 921.547 856.779 915.281 863.469-3.13301 3.34533ZM930.734 840.264 948.522 888.321 899.404 873.718Z" transform="matrix(-1 0 0 1 2429.02 476.5)"/><text font-family="Arial,Arial_MSFontService,sans-serif" font-weight="400" font-size="110" transform="matrix(1 0 0 1 1908.77 410)">Signal</text><text font-family="Arial,Arial_MSFontService,sans-serif" font-weight="400" font-size="110" transform="matrix(1 0 0 1 1808.24 542)">EM waves</text><path d="M2294.53 1153.6C2298.04 1153.6 2300.6 1154.94 2302.21 1157.63 2303.82 1160.31 2304.62 1164.74 2304.62 1170.9 2304.62 1178.13 2304.28 1185.97 2303.6 1194.42L2304.09 1194.42C2312.79 1179.81 2319.99 1166.49 2325.68 1154.46L2336.9 1154.46 2336.21 1157.04C2332.73 1161.23 2327.65 1168.12 2320.95 1177.72 2314.26 1187.31 2308.01 1196.84 2302.21 1206.29 2301.03 1213.74 2299.52 1220.76 2297.7 1227.35L2289.69 1227.35 2288.14 1224.82C2289.57 1219.2 2292.13 1213 2295.82 1206.24 2296.14 1199.47 2296.3 1192.56 2296.3 1185.5 2296.3 1179.52 2296.17 1174.89 2295.92 1171.59 2295.67 1168.3 2295.31 1165.82 2294.82 1164.15 2294.34 1162.49 2293.77 1161.34 2293.1 1160.72 2292.44 1160.09 2291.63 1159.78 2290.66 1159.78 2288.65 1159.78 2286.34 1161.23 2283.73 1164.13L2280.72 1161.12C2282.44 1159.58 2283.78 1158.42 2284.72 1157.63 2285.67 1156.84 2286.66 1156.14 2287.68 1155.53 2288.7 1154.93 2289.76 1154.45 2290.85 1154.11 2291.94 1153.77 2293.17 1153.6 2294.53 1153.6Z" fill-rule="evenodd"/><text fill="#000000" fill-opacity="0" font-family="Arial,Arial_MSFontService,sans-serif" font-size="73.7451" x="2280.72" y="1218.13">ğ›¾</text><path d="M1958.8 981.169 1966.94 985.245 1991.5 997.875 2015.71 1010.73 2039.46 1023.88 2062.63 1037.41 2085.09 1051.39 2106.74 1065.89 2127.44 1080.99 2147.08 1096.77 2165.53 1113.3 2182.64 1130.63 2190.7 1139.68 2198.36 1148.93 2205.64 1158.43 2212.5 1168.19 2218.93 1178.2 2224.93 1188.49 2230.47 1199.06 2235.54 1209.94 2240.13 1221.42 2244.23 1233.71 2247.86 1246.71 2251.03 1260.37 2253.76 1274.63 2256.08 1289.42 2258 1304.69 2259.53 1320.4 2261.51 1352.72 2262.16 1385.98 2261.59 1419.63 2259.93 1453.18 2257.31 1486.1 2255.68 1502.2 2253.85 1517.93 2251.84 1533.26 2249.66 1548.12 2247.33 1562.44 2244.87 1576.17 2242.28 1589.24 2239.57 1601.68 2236.59 1612.28 2226.66 1609.49 2229.6 1599.04 2229.52 1599.34 2232.19 1587.09 2232.17 1587.19 2234.74 1574.21 2234.72 1574.3 2237.17 1560.66 2237.16 1560.74 2239.47 1546.5 2239.46 1546.58 2241.63 1531.8 2241.62 1531.88 2243.62 1516.63 2243.61 1516.7 2245.43 1501.04 2245.42 1501.12 2247.05 1485.11 2247.04 1485.22 2249.65 1452.44 2249.64 1452.6 2251.29 1419.21 2251.28 1419.38 2251.84 1385.9 2251.84 1386.09 2251.2 1353.03 2251.21 1353.25 2249.24 1321.13 2249.26 1321.31 2247.74 1305.77 2247.75 1305.91 2245.86 1290.79 2245.88 1290.94 2243.59 1276.31 2243.62 1276.49 2240.92 1262.41 2240.96 1262.61 2237.84 1249.15 2237.9 1249.37 2234.34 1236.6 2234.41 1236.85 2230.4 1224.83 2230.5 1225.11 2226.02 1213.9 2226.13 1214.17 2221.17 1203.53 2221.28 1203.74 2215.85 1193.38 2215.96 1193.58 2210.08 1183.49 2210.2 1183.68 2203.88 1173.85 2204 1174.03 2197.26 1164.45 2197.38 1164.62 2190.24 1155.28 2190.36 1155.44 2182.82 1146.33 2182.94 1146.47 2175.03 1137.59 2175.2 1137.78 2158.3 1120.66 2158.53 1120.88 2140.3 1104.54 2140.51 1104.72 2121.08 1089.11 2121.27 1089.25 2100.74 1074.28 2100.91 1074.4 2079.43 1060 2079.57 1060.1 2057.24 1046.21 2057.36 1046.28 2034.31 1032.82 2034.41 1032.88 2010.75 1019.77 2010.83 1019.82 1986.69 1007 1986.75 1007.03 1962.25 994.429 1962.3 994.454 1954.18 990.39ZM1949.56 1011.14 1915 965 1972.65 965.036ZM2257.73 1613.99 2217.22 1655 2208.72 1597.98Z"/><text font-family="Arial,Arial_MSFontService,sans-serif" font-weight="400" font-size="110" transform="matrix(1 0 0 1 1217.92 1751)">0</text></g></svg>