<svg width="1636" height="1373" xmlns="http://www.w3.org/2000/svg" xmlns:xlink="http://www.w3.org/1999/xlink" xml:space="preserve" overflow="hidden"><g transform="translate(-1354 -562)"><path d="M1488 1801 2980 1801 2980 622 1488 622Z" fill="#FFFFFF" fill-rule="evenodd"/><path d="M1488 1801 1488 622" stroke="#262626" stroke-width="2.29167" stroke-linejoin="round" stroke-miterlimit="10" stroke-opacity="0.14902" fill="none" fill-rule="evenodd"/><path d="M1675 1801 1675 622" stroke="#262626" stroke-width="2.29167" stroke-linejoin="round" stroke-miterlimit="10" stroke-opacity="0.14902" fill="none" fill-rule="evenodd"/><path d="M1861 1801 1861 622" stroke="#262626" stroke-width="2.29167" stroke-linejoin="round" stroke-miterlimit="10" stroke-opacity="0.14902" fill="none" fill-rule="evenodd"/><path d="M2048 1801 2048 622" stroke="#262626" stroke-width="2.29167" stroke-linejoin="round" stroke-miterlimit="10" stroke-opacity="0.14902" fill="none" fill-rule="evenodd"/><path d="M2234 1801 2234 622" stroke="#262626" stroke-width="2.29167" stroke-linejoin="round" stroke-miterlimit="10" stroke-opacity="0.14902" fill="none" fill-rule="evenodd"/><path d="M2421 1801 2421 622" stroke="#262626" stroke-width="2.29167" stroke-linejoin="round" stroke-miterlimit="10" stroke-opacity="0.14902" fill="none" fill-rule="evenodd"/><path d="M2607 1801 2607 622" stroke="#262626" stroke-width="2.29167" stroke-linejoin="round" stroke-miterlimit="10" stroke-opacity="0.14902" fill="none" fill-rule="evenodd"/><path d="M2794 1801 2794 622" stroke="#262626" stroke-width="2.29167" stroke-linejoin="round" stroke-miterlimit="10" stroke-opacity="0.14902" fill="none" fill-rule="evenodd"/><path d="M2980 1801 2980 622" stroke="#262626" stroke-width="2.29167" stroke-linejoin="round" stroke-miterlimit="10" stroke-opacity="0.14902" fill="none" fill-rule="evenodd"/><path d="M2980 1801 1488 1801" stroke="#262626" stroke-width="2.29167" stroke-linejoin="round" stroke-miterlimit="10" stroke-opacity="0.14902" fill="none" fill-rule="evenodd"/><path d="M2980 1665 1488 1665" stroke="#262626" stroke-width="2.29167" stroke-linejoin="round" stroke-miterlimit="10" stroke-opacity="0.14902" fill="none" fill-rule="evenodd"/><path d="M2980 1529 1488 1529" stroke="#262626" stroke-width="2.29167" stroke-linejoin="round" stroke-miterlimit="10" stroke-opacity="0.14902" fill="none" fill-rule="evenodd"/><path d="M2980 1392 1488 1392" stroke="#262626" stroke-width="2.29167" stroke-linejoin="round" stroke-miterlimit="10" stroke-opacity="0.14902" fill="none" fill-rule="evenodd"/><path d="M2980 1256 1488 1256" stroke="#262626" stroke-width="2.29167" stroke-linejoin="round" stroke-miterlimit="10" stroke-opacity="0.14902" fill="none" fill-rule="evenodd"/><path d="M2980 1120 1488 1120" stroke="#262626" stroke-width="2.29167" stroke-linejoin="round" stroke-miterlimit="10" stroke-opacity="0.14902" fill="none" fill-rule="evenodd"/><path d="M2980 984 1488 984" stroke="#262626" stroke-width="2.29167" stroke-linejoin="round" stroke-miterlimit="10" stroke-opacity="0.14902" fill="none" fill-rule="evenodd"/><path d="M2980 847 1488 847" stroke="#262626" stroke-width="2.29167" stroke-linejoin="round" stroke-miterlimit="10" stroke-opacity="0.14902" fill="none" fill-rule="evenodd"/><path d="M2980 711 1488 711" stroke="#262626" stroke-width="2.29167" stroke-linejoin="round" stroke-miterlimit="10" stroke-opacity="0.14902" fill="none" fill-rule="evenodd"/><path d="M2113.1 599.104 2113.1 562.01 2120.57 562.01 2120.57 576.589 2135.17 576.589 2135.17 562.01 2142.64 562.01 2142.64 599.104 2135.17 599.104 2135.17 582.906 2120.57 582.906 2120.57 599.104 2113.1 599.104ZM2149.42 568.598 2149.42 562.01 2156.51 562.01 2156.51 568.598 2149.42 568.598ZM2149.42 599.104 2149.42 572.215 2156.51 572.215 2156.51 599.104 2149.42 599.104ZM2160.95 591.437 2168.03 590.357C2168.32 591.725 2168.93 592.769 2169.86 593.489 2170.79 594.209 2172.08 594.569 2173.72 594.569 2175.55 594.569 2176.93 594.227 2177.86 593.543 2178.47 593.075 2178.77 592.445 2178.77 591.653 2178.77 591.113 2178.61 590.663 2178.29 590.303 2177.93 589.979 2177.14 589.673 2175.93 589.385 2170.23 588.126 2166.62 586.974 2165.08 585.93 2162.97 584.454 2161.91 582.438 2161.91 579.883 2161.91 577.542 2162.82 575.581 2164.65 573.997 2166.48 572.413 2169.3 571.621 2173.13 571.621 2176.82 571.621 2179.55 572.215 2181.32 573.403 2183.09 574.591 2184.32 576.373 2185 578.748L2178.29 579.991C2178 578.947 2177.47 578.145 2176.68 577.587 2175.89 577.03 2174.76 576.751 2173.3 576.751 2171.43 576.751 2170.09 577.002 2169.27 577.507 2168.73 577.866 2168.46 578.353 2168.46 578.965 2168.46 579.469 2168.7 579.9 2169.16 580.261 2169.8 580.728 2172.02 581.394 2175.79 582.258 2179.57 583.122 2182.19 584.166 2183.66 585.39 2185.16 586.686 2185.91 588.45 2185.91 590.681 2185.91 593.165 2184.88 595.289 2182.83 597.052 2180.77 598.816 2177.73 599.698 2173.72 599.698 2170.07 599.698 2167.19 598.96 2165.08 597.484 2162.97 596.008 2161.59 593.993 2160.95 591.437ZM2203.67 572.215 2203.67 577.885 2198.84 577.885 2198.84 588.737C2198.84 590.933 2198.88 592.211 2198.97 592.571 2199.06 592.931 2199.27 593.228 2199.61 593.462 2199.95 593.696 2200.36 593.813 2200.82 593.813 2201.47 593.813 2202.42 593.579 2203.67 593.111L2204.26 598.672C2202.61 599.356 2200.75 599.698 2198.67 599.698 2197.39 599.698 2196.23 599.482 2195.21 599.05 2194.19 598.618 2193.44 598.06 2192.96 597.376 2192.47 596.693 2192.14 595.774 2191.96 594.622 2191.82 593.795 2191.75 592.121 2191.75 589.601L2191.75 577.885 2188.53 577.885 2188.53 572.215 2191.75 572.215 2191.75 566.87 2198.84 562.713 2198.84 572.215 2203.67 572.215ZM2206.53 585.282C2206.53 582.906 2207.11 580.62 2208.28 578.424 2209.44 576.229 2211.09 574.546 2213.22 573.376 2215.35 572.207 2217.72 571.621 2220.33 571.621 2224.38 571.621 2227.69 572.944 2230.27 575.59 2232.84 578.236 2234.13 581.574 2234.13 585.606 2234.13 589.673 2232.83 593.039 2230.21 595.703 2227.6 598.367 2224.32 599.698 2220.39 599.698 2217.92 599.698 2215.57 599.14 2213.35 598.024 2211.13 596.908 2209.44 595.279 2208.28 593.138 2207.11 590.996 2206.53 588.378 2206.53 585.282ZM2213.78 585.66C2213.78 588.323 2214.42 590.366 2215.69 591.788 2216.96 593.21 2218.51 593.921 2220.33 593.921 2222.19 593.921 2223.75 593.21 2225 591.788 2226.26 590.366 2226.88 588.305 2226.88 585.606 2226.88 582.978 2226.26 580.953 2225 579.531 2223.75 578.11 2222.19 577.399 2220.33 577.399 2218.51 577.399 2216.96 578.11 2215.69 579.531 2214.42 580.953 2213.78 582.996 2213.78 585.66ZM2238.32 600.886 2246.37 601.858C2246.52 602.794 2246.84 603.442 2247.34 603.802 2247.98 604.305 2249.04 604.558 2250.51 604.558 2252.33 604.558 2253.71 604.288 2254.64 603.748 2255.25 603.352 2255.71 602.758 2256.04 601.966 2256.25 601.354 2256.36 600.256 2256.36 598.672L2256.36 594.731C2254.25 597.646 2251.58 599.104 2248.36 599.104 2244.78 599.104 2241.93 597.575 2239.82 594.515 2238.18 592.103 2237.35 589.097 2237.35 585.498 2237.35 580.998 2238.43 577.561 2240.6 575.185 2242.77 572.809 2245.44 571.621 2248.63 571.621 2251.96 571.621 2254.7 573.079 2256.84 575.995L2256.84 572.215 2263.45 572.215 2263.45 596.35C2263.45 599.518 2263.19 601.885 2262.67 603.451 2262.15 605.016 2261.42 606.249 2260.47 607.149 2259.52 608.049 2258.27 608.751 2256.71 609.255 2255.15 609.759 2253.17 610.011 2250.77 610.011 2246.23 610.011 2243.01 609.228 2241.11 607.662 2239.21 606.097 2238.26 604.125 2238.26 601.75 2238.26 601.498 2238.28 601.21 2238.32 600.886ZM2244.6 585.12C2244.6 587.963 2245.16 590.051 2246.27 591.383 2247.37 592.715 2248.73 593.381 2250.35 593.381 2252.06 593.381 2253.52 592.697 2254.72 591.329 2255.92 589.961 2256.52 587.945 2256.52 585.282 2256.52 582.51 2255.95 580.449 2254.8 579.099 2253.66 577.75 2252.21 577.075 2250.45 577.075 2248.77 577.075 2247.37 577.732 2246.27 579.046 2245.16 580.359 2244.6 582.384 2244.6 585.12ZM2276.49 599.104 2269.41 599.104 2269.41 572.215 2276.01 572.215 2276.01 576.049C2277.12 574.249 2278.12 573.061 2279.02 572.485 2279.91 571.909 2280.93 571.621 2282.08 571.621 2283.69 571.621 2285.24 572.071 2286.75 572.971L2284.55 579.181C2283.37 578.389 2282.26 577.992 2281.22 577.992 2280.22 577.992 2279.37 578.271 2278.69 578.829 2278.01 579.387 2277.48 580.377 2277.08 581.799 2276.69 583.221 2276.49 586.218 2276.49 590.789L2276.49 599.104ZM2294.59 580.422 2288.2 579.235C2288.92 576.643 2290.15 574.726 2291.9 573.484 2293.66 572.242 2296.27 571.621 2299.74 571.621 2302.93 571.621 2305.29 571.999 2306.83 572.755 2308.37 573.511 2309.45 574.465 2310.08 575.617 2310.71 576.769 2311.02 578.892 2311.02 581.988L2310.97 590.249C2310.97 592.625 2311.07 594.371 2311.29 595.487 2311.5 596.603 2311.93 597.809 2312.58 599.104L2305.54 599.104C2305.36 598.636 2305.15 597.934 2304.9 596.998 2304.76 596.566 2304.67 596.296 2304.63 596.188 2303.41 597.34 2302.12 598.213 2300.74 598.807 2299.36 599.401 2297.9 599.698 2296.36 599.698 2293.6 599.698 2291.43 598.951 2289.84 597.457 2288.24 595.963 2287.45 594.065 2287.45 591.761 2287.45 590.249 2287.81 588.899 2288.55 587.711 2289.28 586.523 2290.29 585.615 2291.58 584.985 2292.87 584.355 2294.75 583.788 2297.22 583.284 2300.51 582.672 2302.8 582.096 2304.09 581.556L2304.09 580.854C2304.09 579.486 2303.75 578.514 2303.07 577.939 2302.39 577.363 2301.12 577.075 2299.26 577.075 2298.01 577.075 2297.03 577.318 2296.33 577.803 2295.64 578.29 2295.05 579.163 2294.59 580.422ZM2304.09 586.199C2303.16 586.488 2301.72 586.847 2299.77 587.28 2297.82 587.711 2296.54 588.126 2295.93 588.521 2295 589.169 2294.54 589.997 2294.54 591.005 2294.54 592.013 2294.9 592.877 2295.64 593.596 2296.37 594.317 2297.31 594.677 2298.46 594.677 2299.74 594.677 2300.96 594.263 2302.11 593.435 2302.97 592.787 2303.52 591.995 2303.77 591.059 2303.99 590.483 2304.09 589.331 2304.09 587.604L2304.09 586.199ZM2316.8 572.215 2323.3 572.215 2323.3 575.887C2325.66 573.043 2328.45 571.621 2331.67 571.621 2333.36 571.621 2334.83 571.973 2336.1 572.674 2337.37 573.376 2338.4 574.447 2339.19 575.887 2340.37 574.447 2341.64 573.376 2343 572.674 2344.36 571.973 2345.81 571.621 2347.35 571.621 2349.32 571.621 2350.99 572.018 2352.35 572.809 2353.71 573.601 2354.73 574.789 2355.41 576.373 2355.87 577.489 2356.1 579.342 2356.1 581.934L2356.1 599.104 2349.07 599.104 2349.07 583.716C2349.07 581.052 2348.82 579.342 2348.32 578.587 2347.67 577.578 2346.67 577.075 2345.31 577.075 2344.31 577.075 2343.37 577.372 2342.49 577.966 2341.62 578.559 2340.99 579.45 2340.61 580.638 2340.24 581.826 2340.05 583.68 2340.05 586.199L2340.05 599.104 2332.96 599.104 2332.96 584.364C2332.96 581.772 2332.84 580.089 2332.59 579.315 2332.34 578.542 2331.94 577.975 2331.41 577.614 2330.87 577.255 2330.15 577.075 2329.26 577.075 2328.18 577.075 2327.21 577.372 2326.33 577.966 2325.45 578.559 2324.83 579.405 2324.45 580.503 2324.08 581.601 2323.89 583.446 2323.89 586.038L2323.89 599.104 2316.8 599.104 2316.8 572.215Z" fill-rule="evenodd"/><path d="M1768.43 1801 1768.43 1318.93 1582 1318.93 1582 1801ZM2141.29 1801 2141.29 653.915 1954.86 653.915 1954.86 1801ZM2514.14 1801 2514.14 622 2327.71 622 2327.71 1801ZM2887 1801 2887 1224.39 2700.57 1224.39 2700.57 1801Z" fill="#0072BD" fill-rule="evenodd" fill-opacity="0.6"/><path d="M1582 1801 1582 1319 1768 1319 1768 1801 1768 1801" stroke="#000000" stroke-width="2.29167" stroke-linecap="square" stroke-miterlimit="8" fill="none" fill-rule="evenodd"/><path d="M1768 1801 1955 1801" stroke="#000000" stroke-width="2.29167" stroke-linecap="square" stroke-miterlimit="8" fill="none" fill-rule="evenodd"/><path d="M1955 1801 1955 1801 1955 654 2141 654 2141 1801 2141 1801" stroke="#000000" stroke-width="2.29167" stroke-linecap="square" stroke-miterlimit="8" fill="none" fill-rule="evenodd"/><path d="M2141 1801 2328 1801" stroke="#000000" stroke-width="2.29167" stroke-linecap="square" stroke-miterlimit="8" fill="none" fill-rule="evenodd"/><path d="M2328 1801 2328 1801 2328 622 2514 622 2514 1801 2514 1801" stroke="#000000" stroke-width="2.29167" stroke-linecap="square" stroke-miterlimit="8" fill="none" fill-rule="evenodd"/><path d="M2514 1801 2701 1801" stroke="#000000" stroke-width="2.29167" stroke-linecap="square" stroke-miterlimit="8" fill="none" fill-rule="evenodd"/><path d="M2701 1801 2701 1801 2701 1225 2887 1225 2887 1801" stroke="#000000" stroke-width="2.29167" stroke-linecap="square" stroke-miterlimit="8" fill="none" fill-rule="evenodd"/><path d="M1488 1801 2980 1801" stroke="#262626" stroke-width="2.29167" stroke-linecap="square" stroke-linejoin="round" stroke-miterlimit="10" fill="none" fill-rule="evenodd"/><path d="M1488 622 2980 622" stroke="#262626" stroke-width="2.29167" stroke-linecap="square" stroke-linejoin="round" stroke-miterlimit="10" fill="none" fill-rule="evenodd"/><path d="M1488 1801 1488 1786" stroke="#262626" stroke-width="2.29167" stroke-linecap="square" stroke-linejoin="round" stroke-miterlimit="10" fill="none" fill-rule="evenodd"/><path d="M1675 1801 1675 1786" stroke="#262626" stroke-width="2.29167" stroke-linecap="square" stroke-linejoin="round" stroke-miterlimit="10" fill="none" fill-rule="evenodd"/><path d="M1861 1801 1861 1786" stroke="#262626" stroke-width="2.29167" stroke-linecap="square" stroke-linejoin="round" stroke-miterlimit="10" fill="none" fill-rule="evenodd"/><path d="M2048 1801 2048 1786" stroke="#262626" stroke-width="2.29167" stroke-linecap="square" stroke-linejoin="round" stroke-miterlimit="10" fill="none" fill-rule="evenodd"/><path d="M2234 1801 2234 1786" stroke="#262626" stroke-width="2.29167" stroke-linecap="square" stroke-linejoin="round" stroke-miterlimit="10" fill="none" fill-rule="evenodd"/><path d="M2421 1801 2421 1786" stroke="#262626" stroke-width="2.29167" stroke-linecap="square" stroke-linejoin="round" stroke-miterlimit="10" fill="none" fill-rule="evenodd"/><path d="M2607 1801 2607 1786" stroke="#262626" stroke-width="2.29167" stroke-linecap="square" stroke-linejoin="round" stroke-miterlimit="10" fill="none" fill-rule="evenodd"/><path d="M2794 1801 2794 1786" stroke="#262626" stroke-width="2.29167" stroke-linecap="square" stroke-linejoin="round" stroke-miterlimit="10" fill="none" fill-rule="evenodd"/><path d="M2980 1801 2980 1786" stroke="#262626" stroke-width="2.29167" stroke-linecap="square" stroke-linejoin="round" stroke-miterlimit="10" fill="none" fill-rule="evenodd"/><path d="M1488 622 1488 637" stroke="#262626" stroke-width="2.29167" stroke-linecap="square" stroke-linejoin="round" stroke-miterlimit="10" fill="none" fill-rule="evenodd"/><path d="M1675 622 1675 637" stroke="#262626" stroke-width="2.29167" stroke-linecap="square" stroke-linejoin="round" stroke-miterlimit="10" fill="none" fill-rule="evenodd"/><path d="M1861 622 1861 637" stroke="#262626" stroke-width="2.29167" stroke-linecap="square" stroke-linejoin="round" stroke-miterlimit="10" fill="none" fill-rule="evenodd"/><path d="M2048 622 2048 637" stroke="#262626" stroke-width="2.29167" stroke-linecap="square" stroke-linejoin="round" stroke-miterlimit="10" fill="none" fill-rule="evenodd"/><path d="M2234 622 2234 637" stroke="#262626" stroke-width="2.29167" stroke-linecap="square" stroke-linejoin="round" stroke-miterlimit="10" fill="none" fill-rule="evenodd"/><path d="M2421 622 2421 637" stroke="#262626" stroke-width="2.29167" stroke-linecap="square" stroke-linejoin="round" stroke-miterlimit="10" fill="none" fill-rule="evenodd"/><path d="M2607 622 2607 637" stroke="#262626" stroke-width="2.29167" stroke-linecap="square" stroke-linejoin="round" stroke-miterlimit="10" fill="none" fill-rule="evenodd"/><path d="M2794 622 2794 637" stroke="#262626" stroke-width="2.29167" stroke-linecap="square" stroke-linejoin="round" stroke-miterlimit="10" fill="none" fill-rule="evenodd"/><path d="M2980 622 2980 637" stroke="#262626" stroke-width="2.29167" stroke-linecap="square" stroke-linejoin="round" stroke-miterlimit="10" fill="none" fill-rule="evenodd"/><path d="M1469.03 1858.53 1469.03 1854.61 1481.26 1854.61 1481.26 1858.53 1469.03 1858.53ZM1497.66 1868.14 1497.66 1860.46 1483.63 1860.46 1483.63 1856.86 1498.36 1836.14 1501.62 1836.14 1501.62 1856.86 1506.03 1856.86 1506.03 1860.46 1501.62 1860.46 1501.62 1868.14 1497.66 1868.14ZM1497.66 1856.86 1497.66 1842.47 1487.49 1856.86 1497.66 1856.86Z" fill="#262626" fill-rule="evenodd"/><path d="M1656.04 1858.15 1656.04 1854.31 1667.91 1854.31 1667.91 1858.15 1656.04 1858.15ZM1671.48 1859.31 1675.33 1858.78C1675.79 1860.95 1676.54 1862.52 1677.6 1863.48 1678.65 1864.45 1679.95 1864.93 1681.5 1864.93 1683.29 1864.93 1684.81 1864.31 1686.06 1863.06 1687.31 1861.82 1687.93 1860.27 1687.93 1858.41 1687.93 1856.63 1687.36 1855.16 1686.22 1854.03 1685.08 1852.89 1683.61 1852.32 1681.82 1852.32 1681.08 1852.32 1680.16 1852.46 1679.07 1852.74L1679.5 1849.38C1679.78 1849.41 1679.99 1849.43 1680.13 1849.43 1681.78 1849.43 1683.27 1849 1684.58 1848.14 1685.9 1847.28 1686.56 1845.96 1686.56 1844.17 1686.56 1842.77 1686.08 1841.61 1685.11 1840.68 1684.14 1839.75 1682.91 1839.29 1681.39 1839.29 1679.88 1839.29 1678.63 1839.76 1677.65 1840.71 1676.67 1841.65 1676.02 1843.05 1675.7 1844.91L1671.85 1844.23C1672.34 1841.67 1673.42 1839.68 1675.09 1838.26 1676.76 1836.84 1678.83 1836.13 1681.29 1836.13 1683.01 1836.13 1684.59 1836.5 1686.03 1837.24 1687.48 1837.97 1688.58 1838.97 1689.36 1840.23 1690.13 1841.49 1690.52 1842.84 1690.52 1844.28 1690.52 1845.61 1690.15 1846.84 1689.41 1847.96 1688.67 1849.08 1687.6 1849.95 1686.19 1850.58 1688.02 1851.04 1689.45 1851.93 1690.49 1853.26 1691.53 1854.6 1692.05 1856.28 1692.05 1858.31 1692.05 1861.04 1691.04 1863.36 1689.04 1865.27 1687.04 1867.18 1684.5 1868.13 1681.45 1868.13 1678.7 1868.13 1676.42 1867.31 1674.59 1865.66 1672.76 1864.02 1671.73 1861.9 1671.48 1859.31Z" fill="#262626" fill-rule="evenodd"/><path d="M1842.07 1858.56 1842.07 1854.65 1854.37 1854.65 1854.37 1858.56 1842.07 1858.56ZM1879.07 1864.39 1879.07 1868.14 1857.52 1868.14C1857.49 1867.21 1857.65 1866.3 1858.02 1865.41 1858.56 1863.98 1859.44 1862.57 1860.64 1861.18 1861.84 1859.79 1863.59 1858.18 1865.89 1856.36 1869.43 1853.51 1871.81 1851.25 1873.05 1849.59 1874.29 1847.94 1874.91 1846.38 1874.91 1844.91 1874.91 1843.34 1874.35 1842.03 1873.22 1840.98 1872.09 1839.93 1870.61 1839.4 1868.79 1839.4 1866.86 1839.4 1865.32 1839.96 1864.17 1841.09 1863.02 1842.21 1862.43 1843.77 1862.39 1845.77L1858.29 1845.34C1858.58 1842.34 1859.64 1840.06 1861.46 1838.49 1863.28 1836.92 1865.74 1836.14 1868.84 1836.14 1871.98 1836.14 1874.46 1836.98 1876.28 1838.68 1878.1 1840.37 1879.01 1842.47 1879.01 1844.97 1879.01 1846.25 1878.75 1847.51 1878.22 1848.74 1877.69 1849.97 1876.81 1851.27 1875.57 1852.65 1874.33 1854.02 1872.27 1855.88 1869.39 1858.24 1866.98 1860.2 1865.44 1861.54 1864.77 1862.25 1864.09 1862.96 1863.54 1863.68 1863.1 1864.39L1879.07 1864.39Z" fill="#262626" fill-rule="evenodd"/><path d="M2029.08 1858.56 2029.08 1854.65 2040.97 1854.65 2040.97 1858.56 2029.08 1858.56ZM2059.08 1868.14 2055.23 1868.14 2055.23 1843.2C2054.28 1844.09 2053.05 1844.99 2051.55 1845.9 2050.06 1846.81 2048.71 1847.48 2047.51 1847.91L2047.51 1844.11C2049.66 1843.11 2051.55 1841.88 2053.17 1840.42 2054.79 1838.95 2055.93 1837.53 2056.6 1836.14L2059.08 1836.14 2059.08 1868.14Z" fill="#262626" fill-rule="evenodd"/><path d="M2223.1 1852.13C2223.1 1848.45 2223.47 1845.48 2224.21 1843.21 2224.95 1840.95 2226.06 1839.2 2227.53 1837.98 2229.01 1836.75 2230.87 1836.13 2233.1 1836.13 2234.75 1836.13 2236.19 1836.48 2237.43 1837.16 2238.67 1837.84 2239.69 1838.82 2240.5 1840.08 2241.3 1841.34 2241.94 1842.9 2242.4 1844.74 2242.87 1846.58 2243.1 1849.05 2243.1 1852.13 2243.1 1855.82 2242.73 1858.79 2241.99 1861.06 2241.25 1863.32 2240.15 1865.06 2238.67 1866.29 2237.19 1867.52 2235.33 1868.13 2233.1 1868.13 2230.15 1868.13 2227.81 1867.05 2226.09 1864.87 2224.1 1862.27 2223.1 1858.03 2223.1 1852.13ZM2226.97 1852.13C2226.97 1857.29 2227.55 1860.72 2228.72 1862.42 2229.89 1864.13 2231.35 1864.98 2233.1 1864.98 2234.82 1864.98 2236.27 1864.13 2237.46 1862.42 2238.64 1860.72 2239.23 1857.29 2239.23 1852.13 2239.23 1846.98 2238.64 1843.56 2237.46 1841.87 2236.27 1840.19 2234.8 1839.35 2233.05 1839.35 2231.33 1839.35 2229.94 1840.08 2228.87 1841.56 2227.6 1843.49 2226.97 1847.01 2226.97 1852.13Z" fill="#262626" fill-rule="evenodd"/><path d="M2424.13 1868.14 2420.13 1868.14 2420.13 1843.2C2419.14 1844.09 2417.87 1844.99 2416.32 1845.9 2414.77 1846.81 2413.37 1847.48 2412.13 1847.91L2412.13 1844.11C2414.35 1843.11 2416.31 1841.88 2417.99 1840.42 2419.67 1838.95 2420.86 1837.53 2421.55 1836.14L2424.13 1836.14 2424.13 1868.14Z" fill="#262626" fill-rule="evenodd"/><path d="M2616.14 1864.39 2616.14 1868.14 2595.15 1868.14C2595.11 1867.21 2595.27 1866.3 2595.63 1865.41 2596.16 1863.98 2597.01 1862.57 2598.18 1861.18 2599.36 1859.79 2601.06 1858.18 2603.3 1856.36 2606.75 1853.51 2609.07 1851.25 2610.28 1849.59 2611.49 1847.94 2612.09 1846.38 2612.09 1844.91 2612.09 1843.34 2611.54 1842.03 2610.44 1840.98 2609.34 1839.93 2607.9 1839.4 2606.12 1839.4 2604.24 1839.4 2602.74 1839.96 2601.62 1841.09 2600.5 1842.21 2599.93 1843.77 2599.89 1845.77L2595.89 1845.34C2596.18 1842.34 2597.21 1840.06 2598.98 1838.49 2600.76 1836.92 2603.16 1836.14 2606.18 1836.14 2609.23 1836.14 2611.65 1836.98 2613.42 1838.68 2615.2 1840.37 2616.09 1842.47 2616.09 1844.97 2616.09 1846.25 2615.83 1847.51 2615.32 1848.74 2614.8 1849.97 2613.94 1851.27 2612.73 1852.65 2611.52 1854.02 2609.52 1855.88 2606.71 1858.24 2604.37 1860.2 2602.87 1861.54 2602.21 1862.25 2601.55 1862.96 2601.01 1863.68 2600.58 1864.39L2616.14 1864.39Z" fill="#262626" fill-rule="evenodd"/><path d="M2782.16 1859.31 2786.09 1858.78C2786.56 1860.95 2787.33 1862.52 2788.41 1863.48 2789.49 1864.45 2790.81 1864.93 2792.39 1864.93 2794.23 1864.93 2795.78 1864.31 2797.05 1863.06 2798.33 1861.82 2798.96 1860.27 2798.96 1858.41 2798.96 1856.63 2798.38 1855.16 2797.21 1854.03 2796.05 1852.89 2794.55 1852.32 2792.72 1852.32 2791.96 1852.32 2791.03 1852.46 2789.92 1852.74L2790.35 1849.38C2790.64 1849.41 2790.85 1849.43 2790.99 1849.43 2792.68 1849.43 2794.2 1849 2795.54 1848.14 2796.89 1847.28 2797.56 1845.96 2797.56 1844.17 2797.56 1842.77 2797.07 1841.61 2796.08 1840.68 2795.1 1839.75 2793.83 1839.29 2792.29 1839.29 2790.74 1839.29 2789.47 1839.76 2788.46 1840.71 2787.46 1841.65 2786.79 1843.05 2786.47 1844.91L2782.54 1844.23C2783.04 1841.67 2784.15 1839.68 2785.85 1838.26 2787.56 1836.84 2789.67 1836.13 2792.18 1836.13 2793.94 1836.13 2795.55 1836.5 2797.03 1837.24 2798.5 1837.97 2799.63 1838.97 2800.42 1840.23 2801.21 1841.49 2801.6 1842.84 2801.6 1844.28 2801.6 1845.61 2801.23 1846.84 2800.47 1847.96 2799.72 1849.08 2798.62 1849.95 2797.19 1850.58 2799.05 1851.04 2800.52 1851.93 2801.58 1853.26 2802.63 1854.6 2803.16 1856.28 2803.16 1858.31 2803.16 1861.04 2802.14 1863.36 2800.09 1865.27 2798.05 1867.18 2795.46 1868.13 2792.34 1868.13 2789.54 1868.13 2787.21 1867.31 2785.34 1865.66 2783.47 1864.02 2782.42 1861.9 2782.16 1859.31Z" fill="#262626" fill-rule="evenodd"/><path d="M2980.96 1868.14 2980.96 1860.46 2967.18 1860.46 2967.18 1856.86 2981.65 1836.14 2984.86 1836.14 2984.86 1856.86 2989.18 1856.86 2989.18 1860.46 2984.86 1860.46 2984.86 1868.14 2980.96 1868.14ZM2980.96 1856.86 2980.96 1842.47 2970.97 1856.86 2980.96 1856.86Z" fill="#262626" fill-rule="evenodd"/><path d="M2200.1 1934.14 2200.1 1897.14 2213.93 1897.14C2216.75 1897.14 2219.01 1897.52 2220.7 1898.28 2222.4 1899.03 2223.73 1900.18 2224.69 1901.72 2225.66 1903.27 2226.14 1904.9 2226.14 1906.62 2226.14 1908.2 2225.71 1909.68 2224.85 1911.07 2224 1912.45 2222.71 1913.57 2221 1914.43 2223.21 1915.11 2224.92 1916.25 2226.11 1917.83 2227.31 1919.4 2227.91 1921.27 2227.91 1923.43 2227.91 1925.15 2227.54 1926.76 2226.81 1928.25 2226.08 1929.74 2225.18 1930.89 2224.1 1931.69 2223.03 1932.5 2221.69 1933.11 2220.09 1933.52 2218.48 1933.94 2216.5 1934.14 2214.14 1934.14L2200.1 1934.14ZM2204.98 1912.71 2212.96 1912.71C2215.1 1912.71 2216.66 1912.57 2217.62 1912.28 2218.84 1911.88 2219.76 1911.25 2220.38 1910.39 2221.01 1909.53 2221.32 1908.45 2221.32 1907.16 2221.32 1905.94 2221.03 1904.86 2220.46 1903.93 2219.89 1903 2219.06 1902.36 2217.97 1902.02 2216.88 1901.68 2215.01 1901.51 2212.37 1901.51L2204.98 1901.51 2204.98 1912.71ZM2204.98 1929.78 2214.14 1929.78C2215.71 1929.78 2216.82 1929.73 2217.46 1929.62 2218.6 1929.4 2219.55 1929.06 2220.3 1928.6 2221.05 1928.13 2221.67 1927.45 2222.15 1926.55 2222.63 1925.65 2222.87 1924.61 2222.87 1923.43 2222.87 1922.03 2222.52 1920.82 2221.83 1919.82 2221.13 1918.81 2220.16 1918.1 2218.91 1917.69 2217.66 1917.28 2215.85 1917.07 2213.5 1917.07L2204.98 1917.07 2204.98 1929.78ZM2233.3 1902.37 2233.3 1897.14 2237.8 1897.14 2237.8 1902.37 2233.3 1902.37ZM2233.3 1934.14 2233.3 1907.32 2237.8 1907.32 2237.8 1934.14 2233.3 1934.14ZM2244.41 1934.14 2244.41 1907.32 2248.48 1907.32 2248.48 1911.15C2250.44 1908.2 2253.28 1906.73 2257 1906.73 2258.6 1906.73 2260.08 1907.02 2261.42 1907.59 2262.76 1908.17 2263.77 1908.93 2264.44 1909.88 2265.12 1910.83 2265.59 1911.95 2265.84 1913.25 2266.02 1914.07 2266.1 1915.55 2266.1 1917.66L2266.1 1934.14 2261.55 1934.14 2261.55 1917.83C2261.55 1915.99 2261.38 1914.62 2261.04 1913.7 2260.7 1912.79 2260.09 1912.05 2259.19 1911.5 2258.3 1910.94 2257.25 1910.66 2256.03 1910.66 2254.1 1910.66 2252.44 1911.27 2251.05 1912.49 2249.66 1913.71 2248.96 1916.05 2248.96 1919.49L2248.96 1934.14 2244.41 1934.14Z" fill="#262626" fill-rule="evenodd"/><path d="M1488 1801 1488 622" stroke="#262626" stroke-width="2.29167" stroke-linecap="square" stroke-linejoin="round" stroke-miterlimit="10" fill="none" fill-rule="evenodd"/><path d="M2980 1801 2980 622" stroke="#262626" stroke-width="2.29167" stroke-linecap="square" stroke-linejoin="round" stroke-miterlimit="10" fill="none" fill-rule="evenodd"/><path d="M1488 1801 1503 1801" stroke="#262626" stroke-width="2.29167" stroke-linecap="square" stroke-linejoin="round" stroke-miterlimit="10" fill="none" fill-rule="evenodd"/><path d="M1488 1665 1503 1665" stroke="#262626" stroke-width="2.29167" stroke-linecap="square" stroke-linejoin="round" stroke-miterlimit="10" fill="none" fill-rule="evenodd"/><path d="M1488 1529 1503 1529" stroke="#262626" stroke-width="2.29167" stroke-linecap="square" stroke-linejoin="round" stroke-miterlimit="10" fill="none" fill-rule="evenodd"/><path d="M1488 1392 1503 1392" stroke="#262626" stroke-width="2.29167" stroke-linecap="square" stroke-linejoin="round" stroke-miterlimit="10" fill="none" fill-rule="evenodd"/><path d="M1488 1256 1503 1256" stroke="#262626" stroke-width="2.29167" stroke-linecap="square" stroke-linejoin="round" stroke-miterlimit="10" fill="none" fill-rule="evenodd"/><path d="M1488 1120 1503 1120" stroke="#262626" stroke-width="2.29167" stroke-linecap="square" stroke-linejoin="round" stroke-miterlimit="10" fill="none" fill-rule="evenodd"/><path d="M1488 984 1503 984" stroke="#262626" stroke-width="2.29167" stroke-linecap="square" stroke-linejoin="round" stroke-miterlimit="10" fill="none" fill-rule="evenodd"/><path d="M1488 847 1503 847" stroke="#262626" stroke-width="2.29167" stroke-linecap="square" stroke-linejoin="round" stroke-miterlimit="10" fill="none" fill-rule="evenodd"/><path d="M1488 711 1503 711" stroke="#262626" stroke-width="2.29167" stroke-linecap="square" stroke-linejoin="round" stroke-miterlimit="10" fill="none" fill-rule="evenodd"/><path d="M2980 1801 2965 1801" stroke="#262626" stroke-width="2.29167" stroke-linecap="square" stroke-linejoin="round" stroke-miterlimit="10" fill="none" fill-rule="evenodd"/><path d="M2980 1665 2965 1665" stroke="#262626" stroke-width="2.29167" stroke-linecap="square" stroke-linejoin="round" stroke-miterlimit="10" fill="none" fill-rule="evenodd"/><path d="M2980 1529 2965 1529" stroke="#262626" stroke-width="2.29167" stroke-linecap="square" stroke-linejoin="round" stroke-miterlimit="10" fill="none" fill-rule="evenodd"/><path d="M2980 1392 2965 1392" stroke="#262626" stroke-width="2.29167" stroke-linecap="square" stroke-linejoin="round" stroke-miterlimit="10" fill="none" fill-rule="evenodd"/><path d="M2980 1256 2965 1256" stroke="#262626" stroke-width="2.29167" stroke-linecap="square" stroke-linejoin="round" stroke-miterlimit="10" fill="none" fill-rule="evenodd"/><path d="M2980 1120 2965 1120" stroke="#262626" stroke-width="2.29167" stroke-linecap="square" stroke-linejoin="round" stroke-miterlimit="10" fill="none" fill-rule="evenodd"/><path d="M2980 984 2965 984" stroke="#262626" stroke-width="2.29167" stroke-linecap="square" stroke-linejoin="round" stroke-miterlimit="10" fill="none" fill-rule="evenodd"/><path d="M2980 847 2965 847" stroke="#262626" stroke-width="2.29167" stroke-linecap="square" stroke-linejoin="round" stroke-miterlimit="10" fill="none" fill-rule="evenodd"/><path d="M2980 711 2965 711" stroke="#262626" stroke-width="2.29167" stroke-linecap="square" stroke-linejoin="round" stroke-miterlimit="10" fill="none" fill-rule="evenodd"/><path d="M1444.02 1804.64C1444.02 1800.84 1444.41 1797.77 1445.19 1795.44 1445.96 1793.1 1447.13 1791.3 1448.68 1790.04 1450.23 1788.77 1452.18 1788.14 1454.52 1788.14 1456.26 1788.14 1457.77 1788.49 1459.07 1789.19 1460.37 1789.9 1461.44 1790.9 1462.29 1792.21 1463.14 1793.51 1463.81 1795.11 1464.29 1797.01 1464.78 1798.91 1465.02 1801.45 1465.02 1804.64 1465.02 1808.44 1464.64 1811.5 1463.86 1813.84 1463.09 1816.17 1461.92 1817.97 1460.37 1819.24 1458.82 1820.5 1456.87 1821.14 1454.52 1821.14 1451.42 1821.14 1448.97 1820.01 1447.16 1817.77 1445.07 1815.09 1444.02 1810.72 1444.02 1804.64ZM1448.08 1804.64C1448.08 1809.96 1448.7 1813.49 1449.92 1815.25 1451.15 1817 1452.68 1817.88 1454.52 1817.88 1456.33 1817.88 1457.85 1817 1459.1 1815.25 1460.34 1813.49 1460.97 1809.96 1460.97 1804.64 1460.97 1799.32 1460.34 1795.79 1459.1 1794.05 1457.85 1792.32 1456.31 1791.45 1454.47 1791.45 1452.67 1791.45 1451.21 1792.21 1450.09 1793.73 1448.75 1795.72 1448.08 1799.35 1448.08 1804.64Z" fill="#262626" fill-rule="evenodd"/><path d="M1465.02 1680.37 1465.02 1684.12 1444.03 1684.12C1443.99 1683.19 1444.15 1682.28 1444.51 1681.39 1445.04 1679.96 1445.89 1678.56 1447.07 1677.16 1448.24 1675.77 1449.94 1674.17 1452.18 1672.35 1455.63 1669.49 1457.95 1667.24 1459.16 1665.58 1460.37 1663.92 1460.97 1662.36 1460.97 1660.9 1460.97 1659.33 1460.42 1658.02 1459.32 1656.96 1458.22 1655.91 1456.78 1655.39 1455.01 1655.39 1453.12 1655.39 1451.62 1655.95 1450.5 1657.07 1449.38 1658.19 1448.81 1659.76 1448.77 1661.75L1444.78 1661.32C1445.06 1658.33 1446.09 1656.04 1447.87 1654.48 1449.64 1652.91 1452.04 1652.12 1455.06 1652.12 1458.11 1652.12 1460.53 1652.97 1462.31 1654.66 1464.08 1656.36 1464.97 1658.45 1464.97 1660.95 1464.97 1662.23 1464.71 1663.49 1464.2 1664.72 1463.68 1665.95 1462.82 1667.26 1461.61 1668.63 1460.41 1670 1458.4 1671.87 1455.59 1674.22 1453.25 1676.18 1451.75 1677.52 1451.09 1678.23 1450.43 1678.95 1449.89 1679.66 1449.46 1680.37L1465.02 1680.37Z" fill="#262626" fill-rule="evenodd"/><path d="M1456.8 1548.11 1456.8 1540.43 1443.02 1540.43 1443.02 1536.83 1457.49 1516.11 1460.7 1516.11 1460.7 1536.83 1465.02 1536.83 1465.02 1540.43 1460.7 1540.43 1460.7 1548.11 1456.8 1548.11ZM1456.8 1536.83 1456.8 1522.44 1446.82 1536.83 1456.8 1536.83Z" fill="#262626" fill-rule="evenodd"/><path d="M1464.44 1387.13 1460.55 1387.45C1460.23 1385.9 1459.75 1384.76 1459.11 1384.03 1458.04 1382.91 1456.75 1382.35 1455.22 1382.35 1453.97 1382.35 1452.87 1382.71 1451.91 1383.44 1450.7 1384.34 1449.74 1385.66 1449.03 1387.4 1448.32 1389.13 1447.95 1391.63 1447.92 1394.89 1448.84 1393.44 1449.98 1392.36 1451.35 1391.66 1452.72 1390.95 1454.15 1390.6 1455.64 1390.6 1458.24 1390.6 1460.45 1391.57 1462.28 1393.5 1464.11 1395.44 1465.02 1397.96 1465.02 1401.08 1465.02 1403.1 1464.59 1404.98 1463.72 1406.72 1462.85 1408.46 1461.67 1409.79 1460.17 1410.71 1458.68 1411.63 1456.98 1412.09 1455.06 1412.09 1451.82 1412.09 1449.18 1410.88 1447.12 1408.46 1445.05 1406.03 1444.02 1402.02 1444.02 1396.41 1444.02 1390.18 1445.16 1385.64 1447.44 1382.78 1449.43 1380.32 1452.09 1379.09 1455.43 1379.09 1457.92 1379.09 1459.96 1379.81 1461.56 1381.24 1463.16 1382.67 1464.12 1384.63 1464.44 1387.13ZM1448.5 1401.08C1448.5 1402.45 1448.79 1403.76 1449.35 1405.01 1449.92 1406.26 1450.72 1407.21 1451.75 1407.86 1452.78 1408.51 1453.87 1408.84 1455 1408.84 1456.64 1408.84 1458.05 1408.16 1459.24 1406.8 1460.43 1405.44 1461.03 1403.61 1461.03 1401.29 1461.03 1399.05 1460.44 1397.29 1459.27 1396 1458.1 1394.72 1456.62 1394.07 1454.84 1394.07 1453.07 1394.07 1451.57 1394.72 1450.34 1396 1449.11 1397.29 1448.5 1398.98 1448.5 1401.08Z" fill="#262626" fill-rule="evenodd"/><path d="M1450.08 1258C1448.47 1257.39 1447.27 1256.53 1446.49 1255.43 1445.7 1254.32 1445.31 1252.99 1445.31 1251.44 1445.31 1249.09 1446.14 1247.1 1447.8 1245.49 1449.46 1243.88 1451.69 1243.08 1454.47 1243.08 1457.26 1243.08 1459.5 1243.9 1461.19 1245.55 1462.89 1247.19 1463.74 1249.19 1463.74 1251.55 1463.74 1253.03 1463.35 1254.32 1462.56 1255.43 1461.77 1256.53 1460.6 1257.39 1459.02 1258 1460.99 1258.66 1462.48 1259.71 1463.5 1261.15 1464.52 1262.6 1465.02 1264.32 1465.02 1266.31 1465.02 1269.06 1464.06 1271.38 1462.13 1273.26 1460.2 1275.14 1457.67 1276.08 1454.52 1276.08 1451.38 1276.08 1448.85 1275.14 1446.92 1273.26 1444.99 1271.38 1444.02 1269.02 1444.02 1266.2 1444.02 1264.1 1444.55 1262.34 1445.61 1260.91 1446.66 1259.48 1448.15 1258.51 1450.08 1258ZM1449.27 1251.27C1449.27 1252.79 1449.77 1254.04 1450.75 1255.02 1451.73 1256 1452.99 1256.48 1454.52 1256.48 1456.06 1256.48 1457.31 1256.01 1458.27 1255.05 1459.24 1254.09 1459.72 1252.9 1459.72 1251.49 1459.72 1250.04 1459.22 1248.82 1458.22 1247.83 1457.22 1246.83 1455.99 1246.34 1454.52 1246.34 1453.02 1246.34 1451.77 1246.82 1450.77 1247.8 1449.77 1248.78 1449.27 1249.94 1449.27 1251.27ZM1448.04 1266.2C1448.04 1267.32 1448.31 1268.42 1448.85 1269.48 1449.38 1270.55 1450.17 1271.38 1451.2 1271.95 1452.24 1272.53 1453.36 1272.82 1454.58 1272.82 1456.44 1272.82 1457.97 1272.22 1459.19 1271 1460.4 1269.79 1461.01 1268.25 1461.01 1266.36 1461.01 1264.45 1460.38 1262.86 1459.13 1261.61 1457.88 1260.37 1456.31 1259.74 1454.42 1259.74 1452.6 1259.74 1451.08 1260.36 1449.86 1261.59 1448.65 1262.82 1448.04 1264.35 1448.04 1266.2Z" fill="#262626" fill-rule="evenodd"/><path d="M1434.98 1138.54 1431 1138.54 1431 1114.01C1430.01 1114.89 1428.75 1115.77 1427.2 1116.67 1425.65 1117.56 1424.26 1118.22 1423.03 1118.64L1423.03 1114.9C1425.25 1113.92 1427.19 1112.71 1428.87 1111.27 1430.54 1109.83 1431.72 1108.43 1432.42 1107.06L1434.98 1107.06 1434.98 1138.54ZM1445.84 1123.06C1445.84 1119.38 1446.23 1116.4 1447.01 1114.14 1447.8 1111.88 1448.97 1110.13 1450.54 1108.9 1452.1 1107.68 1454.07 1107.06 1456.43 1107.06 1458.18 1107.06 1459.71 1107.4 1461.02 1108.09 1462.33 1108.77 1463.41 1109.75 1464.27 1111.01 1465.12 1112.27 1465.8 1113.83 1466.29 1115.67 1466.78 1117.51 1467.03 1119.97 1467.03 1123.06 1467.03 1126.75 1466.63 1129.72 1465.85 1131.98 1465.07 1134.25 1463.89 1135.99 1462.33 1137.22 1460.76 1138.45 1458.8 1139.06 1456.43 1139.06 1453.3 1139.06 1450.83 1137.97 1449.01 1135.8 1446.9 1133.2 1445.84 1128.96 1445.84 1123.06ZM1449.93 1123.06C1449.93 1128.22 1450.55 1131.65 1451.79 1133.35 1453.03 1135.05 1454.58 1135.9 1456.43 1135.9 1458.25 1135.9 1459.79 1135.05 1461.05 1133.35 1462.3 1131.65 1462.93 1128.22 1462.93 1123.06 1462.93 1117.9 1462.3 1114.48 1461.05 1112.8 1459.79 1111.11 1458.23 1110.27 1456.38 1110.27 1454.56 1110.27 1453.08 1111.01 1451.95 1112.48 1450.61 1114.41 1449.93 1117.94 1449.93 1123.06Z" fill="#262626" fill-rule="evenodd"/><path d="M1434.77 1003.05 1430.85 1003.05 1430.85 978.113C1429.89 979.005 1428.65 979.906 1427.13 980.815 1425.61 981.725 1424.24 982.394 1423.02 982.822L1423.02 979.023C1425.21 978.024 1427.12 976.793 1428.76 975.33 1430.41 973.868 1431.57 972.44 1432.25 971.049L1434.77 971.049 1434.77 1003.05ZM1466.02 999.303 1466.02 1003.05 1444.9 1003.05C1444.86 1002.12 1445.02 1001.21 1445.38 1000.32 1445.91 998.893 1446.77 997.484 1447.95 996.093 1449.13 994.702 1450.85 993.096 1453.1 991.277 1456.57 988.423 1458.91 986.166 1460.13 984.508 1461.34 982.849 1461.95 981.288 1461.95 979.825 1461.95 978.256 1461.4 976.944 1460.29 975.892 1459.18 974.84 1457.73 974.313 1455.94 974.313 1454.05 974.313 1452.54 974.875 1451.41 975.999 1450.29 977.123 1449.7 978.684 1449.67 980.681L1445.65 980.254C1445.93 977.257 1446.97 974.974 1448.76 973.404 1450.54 971.834 1452.96 971.049 1456 971.049 1459.07 971.049 1461.5 971.896 1463.29 973.591 1465.08 975.286 1465.97 977.381 1465.97 979.879 1465.97 981.163 1465.71 982.421 1465.19 983.651 1464.68 984.882 1463.81 986.184 1462.59 987.558 1461.38 988.931 1459.36 990.795 1456.53 993.15 1454.17 995.112 1452.66 996.45 1452 997.163 1451.34 997.876 1450.79 998.59 1450.37 999.303L1466.02 999.303Z" fill="#262626" fill-rule="evenodd"/><path d="M1434.98 866.035 1431 866.035 1431 841.099C1430.01 841.99 1428.75 842.891 1427.2 843.801 1425.65 844.71 1424.26 845.379 1423.03 845.808L1423.03 842.008C1425.25 841.009 1427.19 839.778 1428.87 838.316 1430.54 836.853 1431.72 835.426 1432.42 834.035L1434.98 834.035 1434.98 866.035ZM1458.62 866.035 1458.62 858.383 1444.53 858.383 1444.53 854.798 1459.33 834.142 1462.6 834.142 1462.6 854.798 1467.03 854.798 1467.03 858.383 1462.6 858.383 1462.6 866.035 1458.62 866.035ZM1458.62 854.798 1458.62 840.456 1448.41 854.798 1458.62 854.798Z" fill="#262626" fill-rule="evenodd"/><path d="M1434.95 730.479 1430.98 730.479 1430.98 705.186C1430 706.09 1428.73 707.004 1427.19 707.926 1425.65 708.849 1424.26 709.528 1423.03 709.962L1423.03 706.108C1425.24 705.095 1427.18 703.847 1428.85 702.363 1430.52 700.879 1431.7 699.432 1432.39 698.021L1434.95 698.021 1434.95 730.479ZM1466.43 706.054 1462.45 706.38C1462.12 704.824 1461.63 703.684 1460.98 702.96 1459.89 701.839 1458.56 701.278 1457 701.278 1455.73 701.278 1454.61 701.639 1453.63 702.363 1452.39 703.268 1451.41 704.589 1450.69 706.325 1449.96 708.062 1449.58 710.559 1449.54 713.815 1450.49 712.368 1451.66 711.292 1453.05 710.586 1454.45 709.881 1455.91 709.528 1457.44 709.528 1460.09 709.528 1462.35 710.496 1464.22 712.431 1466.09 714.367 1467.03 716.891 1467.03 720.003 1467.03 722.029 1466.58 723.911 1465.69 725.648 1464.8 727.385 1463.59 728.715 1462.07 729.637 1460.54 730.56 1458.8 731.021 1456.84 731.021 1453.54 731.021 1450.83 729.809 1448.72 727.385 1446.62 724.961 1445.57 720.944 1445.57 715.335 1445.57 709.112 1446.73 704.57 1449.05 701.712 1451.08 699.251 1453.81 698.021 1457.22 698.021 1459.76 698.021 1461.85 698.735 1463.48 700.165 1465.12 701.594 1466.1 703.557 1466.43 706.054ZM1450.14 720.003C1450.14 721.378 1450.43 722.69 1451.01 723.938 1451.59 725.187 1452.41 726.136 1453.46 726.788 1454.52 727.439 1455.62 727.765 1456.79 727.765 1458.46 727.765 1459.9 727.086 1461.12 725.729 1462.33 724.373 1462.94 722.536 1462.94 720.22 1462.94 717.977 1462.34 716.213 1461.14 714.928 1459.94 713.644 1458.44 713.001 1456.62 713.001 1454.81 713.001 1453.27 713.644 1452.02 714.928 1450.77 716.213 1450.14 717.904 1450.14 720.003Z" fill="#262626" fill-rule="evenodd"/><path d="M1391.48 1365.99 1354.08 1365.99 1354.08 1360.99 1383.42 1341.59 1354.08 1341.59 1354.08 1336.86 1391.48 1336.86 1391.48 1341.91 1362.08 1361.31 1391.48 1361.31 1391.48 1365.99ZM1391.48 1312.54 1387.5 1312.54C1390.55 1314.66 1392.08 1317.49 1392.08 1321.04 1392.08 1322.61 1391.77 1324.09 1391.15 1325.47 1390.54 1326.85 1389.76 1327.87 1388.84 1328.53 1387.91 1329.2 1386.78 1329.65 1385.44 1329.9 1384.56 1330.12 1383.15 1330.23 1381.19 1330.23L1364.37 1330.23 1364.37 1325.66 1379.39 1325.66C1381.79 1325.66 1383.4 1325.57 1384.24 1325.39 1385.47 1325.1 1386.43 1324.5 1387.12 1323.59 1387.81 1322.68 1388.16 1321.54 1388.16 1320.18 1388.16 1318.81 1387.8 1317.53 1387.1 1316.33 1386.39 1315.13 1385.43 1314.28 1384.21 1313.78 1383 1313.28 1381.23 1313.03 1378.9 1313.03L1364.37 1313.03 1364.37 1308.51 1391.48 1308.51 1391.48 1312.54ZM1391.48 1302.08 1364.37 1302.08 1364.37 1298 1368.18 1298C1366.84 1297.17 1365.76 1296.06 1364.97 1294.67 1364.17 1293.27 1363.77 1291.67 1363.77 1289.88 1363.77 1287.91 1364.19 1286.29 1365.02 1285.02 1365.85 1283.75 1367.02 1282.86 1368.5 1282.36 1365.35 1280.25 1363.77 1277.49 1363.77 1274.08 1363.77 1271.43 1364.51 1269.39 1366 1267.96 1367.49 1266.52 1369.77 1265.81 1372.86 1265.81L1391.48 1265.81 1391.48 1270.32 1374.38 1270.32C1372.57 1270.32 1371.25 1270.46 1370.44 1270.75 1369.62 1271.04 1368.97 1271.58 1368.48 1272.36 1367.99 1273.15 1367.74 1274.07 1367.74 1275.1 1367.74 1276.97 1368.38 1278.53 1369.65 1279.78 1370.92 1281.03 1372.95 1281.66 1375.75 1281.66L1391.48 1281.66 1391.48 1286.17 1373.89 1286.17C1371.83 1286.17 1370.28 1286.54 1369.27 1287.28 1368.25 1288.01 1367.74 1289.22 1367.74 1290.9 1367.74 1292.19 1368.09 1293.38 1368.78 1294.45 1369.47 1295.53 1370.46 1296.31 1371.77 1296.79 1373.08 1297.27 1374.96 1297.51 1377.43 1297.51L1391.48 1297.51 1391.48 1302.08ZM1391.48 1255.9 1391.48 1260.09 1354.08 1260.09 1354.08 1255.58 1367.42 1255.58C1364.98 1253.64 1363.77 1251.19 1363.77 1248.21 1363.77 1246.57 1364.1 1245.01 1364.78 1243.54 1365.45 1242.07 1366.39 1240.86 1367.61 1239.91 1368.82 1238.96 1370.29 1238.22 1372.02 1237.68 1373.74 1237.14 1375.58 1236.87 1377.54 1236.87 1382.19 1236.87 1385.77 1238.01 1388.29 1240.29 1390.82 1242.56 1392.08 1245.29 1392.08 1248.48 1392.08 1251.64 1390.75 1254.11 1388.1 1255.9L1391.48 1255.9ZM1377.71 1255.95C1380.97 1255.95 1383.33 1255.5 1384.78 1254.61 1387.14 1253.21 1388.32 1251.29 1388.32 1248.86 1388.32 1246.85 1387.45 1245.13 1385.71 1243.7 1383.97 1242.27 1381.37 1241.55 1377.92 1241.55 1374.37 1241.55 1371.74 1242.24 1370.06 1243.62 1368.37 1245 1367.52 1246.67 1367.52 1248.64 1367.52 1250.61 1368.4 1252.32 1370.14 1253.78 1371.88 1255.23 1374.4 1255.95 1377.71 1255.95ZM1382.77 1213.73 1383.31 1209.05C1386.11 1209.77 1388.27 1211.13 1389.79 1213.14 1391.32 1215.14 1392.08 1217.71 1392.08 1220.82 1392.08 1224.73 1390.86 1227.83 1388.43 1230.12 1386 1232.41 1382.57 1233.56 1378.14 1233.56 1373.6 1233.56 1370.07 1232.4 1367.55 1230.07 1365.03 1227.74 1363.77 1224.73 1363.77 1221.04 1363.77 1217.45 1365 1214.54 1367.47 1212.28 1369.94 1210.02 1373.4 1208.89 1377.87 1208.89 1378.16 1208.89 1378.58 1208.89 1379.12 1208.89L1379.12 1228.88C1382.1 1228.71 1384.37 1227.87 1385.95 1226.39 1387.53 1224.9 1388.32 1223.03 1388.32 1220.77 1388.32 1219.12 1387.88 1217.71 1386.99 1216.52 1386.1 1215.34 1384.69 1214.41 1382.77 1213.73ZM1375.31 1228.62 1375.31 1213.68C1373.02 1213.89 1371.32 1214.46 1370.19 1215.39 1368.41 1216.83 1367.52 1218.69 1367.52 1220.98 1367.52 1223.1 1368.23 1224.86 1369.65 1226.28 1371.06 1227.69 1372.95 1228.47 1375.31 1228.62ZM1391.48 1204.07 1364.37 1204.07 1364.37 1199.99 1368.5 1199.99C1366.58 1198.95 1365.31 1197.98 1364.69 1197.09 1364.08 1196.19 1363.77 1195.22 1363.77 1194.18 1363.77 1192.64 1364.26 1191.09 1365.24 1189.51L1369.48 1191.07C1368.83 1192.18 1368.5 1193.29 1368.5 1194.4 1368.5 1195.4 1368.8 1196.3 1369.4 1197.09 1370 1197.87 1370.85 1198.43 1371.93 1198.75 1373.57 1199.25 1375.35 1199.51 1377.27 1199.51L1391.48 1199.51 1391.48 1204.07ZM1359.36 1173.17 1354.08 1173.17 1354.08 1168.66 1359.36 1168.66 1359.36 1173.17ZM1391.48 1173.17 1364.37 1173.17 1364.37 1168.66 1391.48 1168.66 1391.48 1173.17ZM1391.48 1162.03 1364.37 1162.03 1364.37 1157.94 1368.23 1157.94C1365.26 1155.97 1363.77 1153.12 1363.77 1149.4 1363.77 1147.79 1364.06 1146.31 1364.64 1144.96 1365.22 1143.62 1365.99 1142.61 1366.95 1141.93 1367.92 1141.25 1369.05 1140.78 1370.36 1140.53 1371.19 1140.35 1372.68 1140.26 1374.82 1140.26L1391.48 1140.26 1391.48 1144.83 1374.98 1144.83C1373.13 1144.83 1371.74 1145 1370.82 1145.34 1369.89 1145.68 1369.15 1146.3 1368.59 1147.19 1368.02 1148.09 1367.74 1149.15 1367.74 1150.37 1367.74 1152.3 1368.36 1153.97 1369.59 1155.36 1370.83 1156.76 1373.19 1157.46 1376.67 1157.46L1391.48 1157.46 1391.48 1162.03ZM1391.48 1115.79 1391.48 1119.99 1354.08 1119.99 1354.08 1115.47 1367.42 1115.47C1364.98 1113.54 1363.77 1111.08 1363.77 1108.11 1363.77 1106.46 1364.1 1104.9 1364.78 1103.43 1365.45 1101.96 1366.39 1100.76 1367.61 1099.81 1368.82 1098.86 1370.29 1098.11 1372.02 1097.58 1373.74 1097.04 1375.58 1096.77 1377.54 1096.77 1382.19 1096.77 1385.77 1097.91 1388.29 1100.18 1390.82 1102.46 1392.08 1105.19 1392.08 1108.38 1392.08 1111.53 1390.75 1114 1388.1 1115.79L1391.48 1115.79ZM1377.71 1115.85C1380.97 1115.85 1383.33 1115.4 1384.78 1114.5 1387.14 1113.11 1388.32 1111.19 1388.32 1108.75 1388.32 1106.75 1387.45 1105.03 1385.71 1103.59 1383.97 1102.16 1381.37 1101.45 1377.92 1101.45 1374.37 1101.45 1371.74 1102.14 1370.06 1103.51 1368.37 1104.89 1367.52 1106.57 1367.52 1108.54 1367.52 1110.51 1368.4 1112.22 1370.14 1113.67 1371.88 1115.12 1374.4 1115.85 1377.71 1115.85ZM1359.36 1091.9 1354.08 1091.9 1354.08 1087.38 1359.36 1087.38 1359.36 1091.9ZM1391.48 1091.9 1364.37 1091.9 1364.37 1087.38 1391.48 1087.38 1391.48 1091.9ZM1391.48 1080.75 1364.37 1080.75 1364.37 1076.67 1368.23 1076.67C1365.26 1074.7 1363.77 1071.85 1363.77 1068.12 1363.77 1066.51 1364.06 1065.03 1364.64 1063.69 1365.22 1062.34 1365.99 1061.33 1366.95 1060.65 1367.92 1059.97 1369.05 1059.5 1370.36 1059.25 1371.19 1059.07 1372.68 1058.99 1374.82 1058.99L1391.48 1058.99 1391.48 1063.55 1374.98 1063.55C1373.13 1063.55 1371.74 1063.72 1370.82 1064.06 1369.89 1064.4 1369.15 1065.02 1368.59 1065.92 1368.02 1066.81 1367.74 1067.87 1367.74 1069.09 1367.74 1071.02 1368.36 1072.69 1369.59 1074.09 1370.83 1075.48 1373.19 1076.18 1376.67 1076.18L1391.48 1076.18 1391.48 1080.75Z" fill="#262626" fill-rule="evenodd"/><path d="M1495.03 610.122C1495.03 609.913 1495.1 609.704 1495.25 609.495L1504.71 600.51 1495.25 591.472C1495.1 591.333 1495.03 591.141 1495.03 590.898 1495.03 590.689 1495.12 590.488 1495.3 590.297 1495.48 590.106 1495.7 590.01 1495.96 590.01 1496.18 590.01 1496.41 590.114 1496.67 590.323L1506.08 599.308 1515.44 590.323C1515.7 590.114 1515.91 590.01 1516.1 590.01 1516.35 590.01 1516.57 590.097 1516.75 590.271 1516.94 590.445 1517.03 590.654 1517.03 590.898 1517.03 591.141 1516.95 591.333 1516.81 591.472L1507.34 600.51 1516.81 609.495C1516.95 609.704 1517.03 609.913 1517.03 610.122 1517.03 610.366 1516.94 610.575 1516.75 610.749 1516.57 610.923 1516.35 611.01 1516.1 611.01 1515.88 611.01 1515.66 610.905 1515.44 610.697L1506.08 601.712 1496.67 610.697C1496.41 610.905 1496.18 611.01 1495.96 611.01 1495.7 611.01 1495.48 610.914 1495.3 610.723 1495.12 610.531 1495.03 610.331 1495.03 610.122Z" fill="#262626" fill-rule="evenodd"/><path d="M1542.72 611.484 1538.82 611.484 1538.82 586.957C1537.86 587.835 1536.62 588.721 1535.11 589.615 1533.6 590.51 1532.24 591.168 1531.03 591.589L1531.03 587.852C1533.2 586.87 1535.1 585.659 1536.74 584.22 1538.38 582.782 1539.53 581.378 1540.21 580.01L1542.72 580.01 1542.72 611.484ZM1553.33 596.01C1553.33 592.326 1553.71 589.352 1554.47 587.089 1555.24 584.826 1556.39 583.08 1557.92 581.852 1559.44 580.624 1561.37 580.01 1563.68 580.01 1565.39 580.01 1566.88 580.352 1568.16 581.036 1569.44 581.72 1570.5 582.694 1571.34 583.957 1572.17 585.22 1572.83 586.773 1573.31 588.615 1573.79 590.457 1574.03 592.922 1574.03 596.01 1574.03 599.694 1573.65 602.668 1572.88 604.931 1572.12 607.194 1570.97 608.94 1569.44 610.168 1567.91 611.396 1565.99 612.01 1563.68 612.01 1560.62 612.01 1558.2 610.922 1556.42 608.747 1554.36 606.15 1553.33 601.904 1553.33 596.01ZM1557.33 596.01C1557.33 601.168 1557.93 604.598 1559.14 606.299 1560.35 608.001 1561.86 608.852 1563.68 608.852 1565.46 608.852 1566.96 608.001 1568.19 606.299 1569.41 604.598 1570.03 601.168 1570.03 596.01 1570.03 590.852 1569.41 587.431 1568.19 585.747 1566.96 584.062 1565.44 583.221 1563.62 583.221 1561.85 583.221 1560.41 583.957 1559.3 585.431 1557.99 587.361 1557.33 590.887 1557.33 596.01Z" fill="#262626" fill-rule="evenodd"/><path d="M1589.96 591.008 1589.96 584.526 1578.04 584.526 1578.04 581.526 1590.56 564.008 1593.28 564.008 1593.28 581.526 1597.04 581.526 1597.04 584.526 1593.28 584.526 1593.28 591.008 1589.96 591.008ZM1589.96 581.526 1589.96 569.312 1581.36 581.526 1589.96 581.526Z" fill="#262626" fill-rule="evenodd"/></g></svg>