<svg width="4074" height="1153" xmlns="http://www.w3.org/2000/svg" xmlns:xlink="http://www.w3.org/1999/xlink" xml:space="preserve" overflow="hidden"><g transform="translate(-300 -493)"><path d="M2812 554.441C2812 523.27 2837.27 498 2868.44 498L3578.56 498C3609.73 498 3635 523.27 3635 554.441L3635 1556.56C3635 1587.73 3609.73 1613 3578.56 1613L2868.44 1613C2837.27 1613 2812 1587.73 2812 1556.56Z" stroke="#000000" stroke-width="10.3125" stroke-linejoin="round" stroke-miterlimit="10" stroke-dasharray="41.25 30.9375" fill="none" fill-rule="evenodd"/><text font-family="Arial,Arial_MSFontService,sans-serif" font-weight="400" font-size="110" transform="matrix(1 0 0 1 3359.58 1555)">PAC</text><path d="M699 574.465C699 532.235 733.234 498 775.465 498L2661.54 498C2703.77 498 2738 532.235 2738 574.465L2738 1536.51C2738 1578.74 2703.77 1612.97 2661.54 1612.97L775.465 1612.97C733.234 1612.97 699 1578.74 699 1536.51Z" stroke="#000000" stroke-width="10.3125" stroke-linejoin="round" stroke-miterlimit="10" stroke-dasharray="41.25 30.9375" fill="none" fill-rule="evenodd"/><text font-family="Arial,Arial_MSFontService,sans-serif" font-weight="400" font-size="110" transform="matrix(1 0 0 1 2535.22 1549)">PA</text><path d="M800 1163.34C800 1122.28 833.281 1089 874.335 1089L1568.67 1089C1609.72 1089 1643 1122.28 1643 1163.34L1643 1460.66C1643 1501.72 1609.72 1535 1568.67 1535L874.335 1535C833.281 1535 800 1501.72 800 1460.66Z" stroke="#000000" stroke-width="10.3125" stroke-linejoin="round" stroke-miterlimit="10" fill="none" fill-rule="evenodd"/><text font-family="Arial,Arial_MSFontService,sans-serif" font-weight="400" font-size="110" transform="matrix(1 0 0 1 894.31 1287)">INCREMENT </text><text font-family="Arial,Arial_MSFontService,sans-serif" font-weight="400" font-size="110" transform="matrix(1 0 0 1 1040.98 1419)">VALUE</text><path d="M1631 868C1631 811.115 1677.11 765 1734 765 1790.89 765 1837 811.115 1837 868 1837 924.885 1790.89 971 1734 971 1677.11 971 1631 924.885 1631 868Z" stroke="#000000" stroke-width="10.3125" stroke-miterlimit="8" fill="none" fill-rule="evenodd"/><path d="M1734 765 1734 971.25" stroke="#000000" stroke-width="10.3125" stroke-miterlimit="8" fill="none" fill-rule="evenodd"/><path d="M1631 868 1837.25 868" stroke="#000000" stroke-width="10.3125" stroke-miterlimit="8" fill="none" fill-rule="evenodd"/><path d="M0.129547-5.15462 60.9046-3.62721 60.6455 6.68204-0.129547 5.15462ZM56.2681-24.3752 107.167 2.69334 54.9727 27.171Z" transform="matrix(1 0 0 -1 1837 867.693)"/><path d="M1944 631.335C1944 590.281 1977.28 557 2018.33 557L2564.67 557C2605.72 557 2639 590.281 2639 631.335L2639 928.665C2639 969.719 2605.72 1003 2564.67 1003L2018.33 1003C1977.28 1003 1944 969.719 1944 928.665Z" stroke="#000000" stroke-width="10.3125" stroke-linejoin="round" stroke-miterlimit="10" fill="none" fill-rule="evenodd"/><text font-family="Arial,Arial_MSFontService,sans-serif" font-weight="400" font-size="110" transform="matrix(1 0 0 1 2135.28 755)">Phase </text><text font-family="Arial,Arial_MSFontService,sans-serif" font-weight="400" font-size="110" transform="matrix(1 0 0 1 2107.78 887)">register</text><path d="M2686 780 2686 1288.22" stroke="#000000" stroke-width="10.3125" stroke-miterlimit="8" fill="none" fill-rule="evenodd"/><path d="M5.15625-5.85647e-06 5.15656 271.336-5.15594 271.336-5.15625 5.85647e-06ZM25.7816 266.18 0.000360892 317.743-25.7809 266.18Z" transform="matrix(1 0 0 -1 1734 1288.74)"/><path d="M0.0393364-5.1561 430.703-1.87053 430.624 8.44167-0.0393364 5.1561ZM425.704-22.5343 477.068 3.6396 425.311 29.0267Z" transform="matrix(1 0 0 -1 323 1323.64)"/><text font-family="Arial,Arial_MSFontService,sans-serif" font-weight="400" font-size="110" transform="matrix(1 0 0 1 366.58 1278)">FSW*</text><path d="M2639 774.844 2846.97 774.844 2846.97 785.156 2639 785.156ZM2841.81 754.219 2893.38 780 2841.81 805.781Z"/><path d="M2893 631.335C2893 590.281 2926.28 557 2967.33 557L3461.67 557C3502.72 557 3536 590.281 3536 631.335L3536 928.665C3536 969.719 3502.72 1003 3461.67 1003L2967.33 1003C2926.28 1003 2893 969.719 2893 928.665Z" stroke="#000000" stroke-width="10.3125" stroke-linejoin="round" stroke-miterlimit="10" stroke-dasharray="41.25 30.9375" fill="none" fill-rule="evenodd"/><text font-family="Arial,Arial_MSFontService,sans-serif" font-weight="400" font-size="110" transform="matrix(1 0 0 1 3015.28 755)">Look</text><text font-family="Arial,Arial_MSFontService,sans-serif" font-weight="400" font-size="110" transform="matrix(1 0 0 1 3254.18 755)">-</text><text font-family="Arial,Arial_MSFontService,sans-serif" font-weight="400" font-size="110" transform="matrix(1 0 0 1 3290.85 755)">up </text><text font-family="Arial,Arial_MSFontService,sans-serif" font-weight="400" font-size="110" transform="matrix(1 0 0 1 3094.91 887)">table</text><path d="M3536 774.844 4098.03 774.844 4098.03 785.156 3536 785.156ZM4092.88 754.219 4144.44 780 4092.88 805.781Z"/><text font-family="Arial,Arial_MSFontService,sans-serif" font-weight="400" font-size="110" transform="matrix(1 0 0 1 3845.13 910)">Output </text><text font-family="Arial,Arial_MSFontService,sans-serif" font-weight="400" font-size="110" transform="matrix(1 0 0 1 3713.09 1042)">Sine/Cosine</text><path d="M347 699.844 1897.79 699.872 1897.79 710.184 347 710.156ZM1892.64 679.247 1944.2 705.029 1892.64 730.809Z"/><text font-family="Arial,Arial_MSFontService,sans-serif" font-weight="400" font-size="110" transform="matrix(1 0 0 1 372.309 683)">Clock</text><path d="M1093 868 1093 1089.49" stroke="#000000" stroke-width="10.3125" stroke-miterlimit="8" fill="none" fill-rule="evenodd"/><path d="M1093 859.844 1584.72 859.844 1584.72 870.156 1093 870.156ZM1579.57 839.219 1631.13 865 1579.57 890.781Z"/><path d="M1734 1289 2686.12 1289" stroke="#000000" stroke-width="10.3125" stroke-miterlimit="8" fill="none" fill-rule="evenodd"/><path d="M2672.5 780.5C2672.5 771.111 2680.11 763.5 2689.5 763.5 2698.89 763.5 2706.5 771.111 2706.5 780.5 2706.5 789.889 2698.89 797.5 2689.5 797.5 2680.11 797.5 2672.5 789.889 2672.5 780.5Z" stroke="#000000" stroke-width="4.58333" stroke-miterlimit="8" fill-rule="evenodd"/></g></svg>