<svg width="2801" height="1476" xmlns="http://www.w3.org/2000/svg" xmlns:xlink="http://www.w3.org/1999/xlink" xml:space="preserve" overflow="hidden"><g transform="translate(-711 -466)"><path d="M954 1684 3456 1684 3456 505 954 505Z" fill="#FFFFFF" fill-rule="evenodd"/><path d="M954 1684 954 505" stroke="#262626" stroke-width="2.29167" stroke-linejoin="round" stroke-miterlimit="10" stroke-opacity="0.14902" fill="none" fill-rule="evenodd"/><path d="M1204 1684 1204 505" stroke="#262626" stroke-width="2.29167" stroke-linejoin="round" stroke-miterlimit="10" stroke-opacity="0.14902" fill="none" fill-rule="evenodd"/><path d="M1454 1684 1454 505" stroke="#262626" stroke-width="2.29167" stroke-linejoin="round" stroke-miterlimit="10" stroke-opacity="0.14902" fill="none" fill-rule="evenodd"/><path d="M1705 1684 1705 505" stroke="#262626" stroke-width="2.29167" stroke-linejoin="round" stroke-miterlimit="10" stroke-opacity="0.14902" fill="none" fill-rule="evenodd"/><path d="M1955 1684 1955 505" stroke="#262626" stroke-width="2.29167" stroke-linejoin="round" stroke-miterlimit="10" stroke-opacity="0.14902" fill="none" fill-rule="evenodd"/><path d="M2205 1684 2205 505" stroke="#262626" stroke-width="2.29167" stroke-linejoin="round" stroke-miterlimit="10" stroke-opacity="0.14902" fill="none" fill-rule="evenodd"/><path d="M2455 1684 2455 505" stroke="#262626" stroke-width="2.29167" stroke-linejoin="round" stroke-miterlimit="10" stroke-opacity="0.14902" fill="none" fill-rule="evenodd"/><path d="M2706 1684 2706 505" stroke="#262626" stroke-width="2.29167" stroke-linejoin="round" stroke-miterlimit="10" stroke-opacity="0.14902" fill="none" fill-rule="evenodd"/><path d="M2956 1684 2956 505" stroke="#262626" stroke-width="2.29167" stroke-linejoin="round" stroke-miterlimit="10" stroke-opacity="0.14902" fill="none" fill-rule="evenodd"/><path d="M3206 1684 3206 505" stroke="#262626" stroke-width="2.29167" stroke-linejoin="round" stroke-miterlimit="10" stroke-opacity="0.14902" fill="none" fill-rule="evenodd"/><path d="M3456 1684 3456 505" stroke="#262626" stroke-width="2.29167" stroke-linejoin="round" stroke-miterlimit="10" stroke-opacity="0.14902" fill="none" fill-rule="evenodd"/><path d="M3456 1639 954 1639" stroke="#262626" stroke-width="2.29167" stroke-linejoin="round" stroke-miterlimit="10" stroke-opacity="0.14902" fill="none" fill-rule="evenodd"/><path d="M3456 1412 954 1412" stroke="#262626" stroke-width="2.29167" stroke-linejoin="round" stroke-miterlimit="10" stroke-opacity="0.14902" fill="none" fill-rule="evenodd"/><path d="M3456 1186 954 1186" stroke="#262626" stroke-width="2.29167" stroke-linejoin="round" stroke-miterlimit="10" stroke-opacity="0.14902" fill="none" fill-rule="evenodd"/><path d="M3456 959 954 959" stroke="#262626" stroke-width="2.29167" stroke-linejoin="round" stroke-miterlimit="10" stroke-opacity="0.14902" fill="none" fill-rule="evenodd"/><path d="M3456 732 954 732" stroke="#262626" stroke-width="2.29167" stroke-linejoin="round" stroke-miterlimit="10" stroke-opacity="0.14902" fill="none" fill-rule="evenodd"/><path d="M3456 505 954 505" stroke="#262626" stroke-width="2.29167" stroke-linejoin="round" stroke-miterlimit="10" stroke-opacity="0.14902" fill="none" fill-rule="evenodd"/><path d="M954 1684 3456 1684" stroke="#262626" stroke-width="2.29167" stroke-linecap="square" stroke-linejoin="round" stroke-miterlimit="10" fill="none" fill-rule="evenodd"/><path d="M954 505 3456 505" stroke="#262626" stroke-width="2.29167" stroke-linecap="square" stroke-linejoin="round" stroke-miterlimit="10" fill="none" fill-rule="evenodd"/><path d="M954 1684 954 1659" stroke="#262626" stroke-width="2.29167" stroke-linecap="square" stroke-linejoin="round" stroke-miterlimit="10" fill="none" fill-rule="evenodd"/><path d="M1204 1684 1204 1659" stroke="#262626" stroke-width="2.29167" stroke-linecap="square" stroke-linejoin="round" stroke-miterlimit="10" fill="none" fill-rule="evenodd"/><path d="M1454 1684 1454 1659" stroke="#262626" stroke-width="2.29167" stroke-linecap="square" stroke-linejoin="round" stroke-miterlimit="10" fill="none" fill-rule="evenodd"/><path d="M1705 1684 1705 1659" stroke="#262626" stroke-width="2.29167" stroke-linecap="square" stroke-linejoin="round" stroke-miterlimit="10" fill="none" fill-rule="evenodd"/><path d="M1955 1684 1955 1659" stroke="#262626" stroke-width="2.29167" stroke-linecap="square" stroke-linejoin="round" stroke-miterlimit="10" fill="none" fill-rule="evenodd"/><path d="M2205 1684 2205 1659" stroke="#262626" stroke-width="2.29167" stroke-linecap="square" stroke-linejoin="round" stroke-miterlimit="10" fill="none" fill-rule="evenodd"/><path d="M2455 1684 2455 1659" stroke="#262626" stroke-width="2.29167" stroke-linecap="square" stroke-linejoin="round" stroke-miterlimit="10" fill="none" fill-rule="evenodd"/><path d="M2706 1684 2706 1659" stroke="#262626" stroke-width="2.29167" stroke-linecap="square" stroke-linejoin="round" stroke-miterlimit="10" fill="none" fill-rule="evenodd"/><path d="M2956 1684 2956 1659" stroke="#262626" stroke-width="2.29167" stroke-linecap="square" stroke-linejoin="round" stroke-miterlimit="10" fill="none" fill-rule="evenodd"/><path d="M3206 1684 3206 1659" stroke="#262626" stroke-width="2.29167" stroke-linecap="square" stroke-linejoin="round" stroke-miterlimit="10" fill="none" fill-rule="evenodd"/><path d="M3456 1684 3456 1659" stroke="#262626" stroke-width="2.29167" stroke-linecap="square" stroke-linejoin="round" stroke-miterlimit="10" fill="none" fill-rule="evenodd"/><path d="M954 505 954 530" stroke="#262626" stroke-width="2.29167" stroke-linecap="square" stroke-linejoin="round" stroke-miterlimit="10" fill="none" fill-rule="evenodd"/><path d="M1204 505 1204 530" stroke="#262626" stroke-width="2.29167" stroke-linecap="square" stroke-linejoin="round" stroke-miterlimit="10" fill="none" fill-rule="evenodd"/><path d="M1454 505 1454 530" stroke="#262626" stroke-width="2.29167" stroke-linecap="square" stroke-linejoin="round" stroke-miterlimit="10" fill="none" fill-rule="evenodd"/><path d="M1705 505 1705 530" stroke="#262626" stroke-width="2.29167" stroke-linecap="square" stroke-linejoin="round" stroke-miterlimit="10" fill="none" fill-rule="evenodd"/><path d="M1955 505 1955 530" stroke="#262626" stroke-width="2.29167" stroke-linecap="square" stroke-linejoin="round" stroke-miterlimit="10" fill="none" fill-rule="evenodd"/><path d="M2205 505 2205 530" stroke="#262626" stroke-width="2.29167" stroke-linecap="square" stroke-linejoin="round" stroke-miterlimit="10" fill="none" fill-rule="evenodd"/><path d="M2455 505 2455 530" stroke="#262626" stroke-width="2.29167" stroke-linecap="square" stroke-linejoin="round" stroke-miterlimit="10" fill="none" fill-rule="evenodd"/><path d="M2706 505 2706 530" stroke="#262626" stroke-width="2.29167" stroke-linecap="square" stroke-linejoin="round" stroke-miterlimit="10" fill="none" fill-rule="evenodd"/><path d="M2956 505 2956 530" stroke="#262626" stroke-width="2.29167" stroke-linecap="square" stroke-linejoin="round" stroke-miterlimit="10" fill="none" fill-rule="evenodd"/><path d="M3206 505 3206 530" stroke="#262626" stroke-width="2.29167" stroke-linecap="square" stroke-linejoin="round" stroke-miterlimit="10" fill="none" fill-rule="evenodd"/><path d="M3456 505 3456 530" stroke="#262626" stroke-width="2.29167" stroke-linecap="square" stroke-linejoin="round" stroke-miterlimit="10" fill="none" fill-rule="evenodd"/><text fill="#262626" font-family="Arial,Arial_MSFontService,sans-serif" font-weight="400" font-size="45" transform="matrix(1 0 0 1 939.869 1752)">0</text><text fill="#262626" font-family="Arial,Arial_MSFontService,sans-serif" font-weight="400" font-size="45" transform="matrix(1 0 0 1 1190.12 1752)">1</text><text fill="#262626" font-family="Arial,Arial_MSFontService,sans-serif" font-weight="400" font-size="45" transform="matrix(1 0 0 1 1440.37 1752)">2</text><text fill="#262626" font-family="Arial,Arial_MSFontService,sans-serif" font-weight="400" font-size="45" transform="matrix(1 0 0 1 1690.62 1752)">3</text><text fill="#262626" font-family="Arial,Arial_MSFontService,sans-serif" font-weight="400" font-size="45" transform="matrix(1 0 0 1 1940.87 1752)">4</text><text fill="#262626" font-family="Arial,Arial_MSFontService,sans-serif" font-weight="400" font-size="45" transform="matrix(1 0 0 1 2191.12 1752)">5</text><text fill="#262626" font-family="Arial,Arial_MSFontService,sans-serif" font-weight="400" font-size="45" transform="matrix(1 0 0 1 2441.37 1752)">6</text><text fill="#262626" font-family="Arial,Arial_MSFontService,sans-serif" font-weight="400" font-size="45" transform="matrix(1 0 0 1 2691.62 1752)">7</text><text fill="#262626" font-family="Arial,Arial_MSFontService,sans-serif" font-weight="400" font-size="45" transform="matrix(1 0 0 1 2941.87 1752)">8</text><text fill="#262626" font-family="Arial,Arial_MSFontService,sans-serif" font-weight="400" font-size="45" transform="matrix(1 0 0 1 3192.12 1752)">9</text><text fill="#262626" font-family="Arial,Arial_MSFontService,sans-serif" font-weight="400" font-size="45" transform="matrix(1 0 0 1 3430.05 1752)">10</text><text fill="#262626" font-family="Arial,Arial_MSFontService,sans-serif" font-weight="400" font-size="110" transform="matrix(1 0 0 1 2031.85 1851)">Phase</text><path d="M954 1684 954 505" stroke="#262626" stroke-width="2.29167" stroke-linecap="square" stroke-linejoin="round" stroke-miterlimit="10" fill="none" fill-rule="evenodd"/><path d="M3456 1684 3456 505" stroke="#262626" stroke-width="2.29167" stroke-linecap="square" stroke-linejoin="round" stroke-miterlimit="10" fill="none" fill-rule="evenodd"/><path d="M954 1639 979 1639" stroke="#262626" stroke-width="2.29167" stroke-linecap="square" stroke-linejoin="round" stroke-miterlimit="10" fill="none" fill-rule="evenodd"/><path d="M954 1412 979 1412" stroke="#262626" stroke-width="2.29167" stroke-linecap="square" stroke-linejoin="round" stroke-miterlimit="10" fill="none" fill-rule="evenodd"/><path d="M954 1186 979 1186" stroke="#262626" stroke-width="2.29167" stroke-linecap="square" stroke-linejoin="round" stroke-miterlimit="10" fill="none" fill-rule="evenodd"/><path d="M954 959 979 959" stroke="#262626" stroke-width="2.29167" stroke-linecap="square" stroke-linejoin="round" stroke-miterlimit="10" fill="none" fill-rule="evenodd"/><path d="M954 732 979 732" stroke="#262626" stroke-width="2.29167" stroke-linecap="square" stroke-linejoin="round" stroke-miterlimit="10" fill="none" fill-rule="evenodd"/><path d="M954 505 979 505" stroke="#262626" stroke-width="2.29167" stroke-linecap="square" stroke-linejoin="round" stroke-miterlimit="10" fill="none" fill-rule="evenodd"/><path d="M3456 1639 3431 1639" stroke="#262626" stroke-width="2.29167" stroke-linecap="square" stroke-linejoin="round" stroke-miterlimit="10" fill="none" fill-rule="evenodd"/><path d="M3456 1412 3431 1412" stroke="#262626" stroke-width="2.29167" stroke-linecap="square" stroke-linejoin="round" stroke-miterlimit="10" fill="none" fill-rule="evenodd"/><path d="M3456 1186 3431 1186" stroke="#262626" stroke-width="2.29167" stroke-linecap="square" stroke-linejoin="round" stroke-miterlimit="10" fill="none" fill-rule="evenodd"/><path d="M3456 959 3431 959" stroke="#262626" stroke-width="2.29167" stroke-linecap="square" stroke-linejoin="round" stroke-miterlimit="10" fill="none" fill-rule="evenodd"/><path d="M3456 732 3431 732" stroke="#262626" stroke-width="2.29167" stroke-linecap="square" stroke-linejoin="round" stroke-miterlimit="10" fill="none" fill-rule="evenodd"/><path d="M3456 505 3431 505" stroke="#262626" stroke-width="2.29167" stroke-linecap="square" stroke-linejoin="round" stroke-miterlimit="10" fill="none" fill-rule="evenodd"/><text fill="#262626" font-family="Arial,Arial_MSFontService,sans-serif" font-weight="400" font-size="45" transform="matrix(1 0 0 1 893.464 1659)">-</text><text fill="#262626" font-family="Arial,Arial_MSFontService,sans-serif" font-weight="400" font-size="45" transform="matrix(1 0 0 1 908.36 1659)">1</text><text fill="#262626" font-family="Arial,Arial_MSFontService,sans-serif" font-weight="400" font-size="45" transform="matrix(1 0 0 1 855.938 1432)">-</text><text fill="#262626" font-family="Arial,Arial_MSFontService,sans-serif" font-weight="400" font-size="45" transform="matrix(1 0 0 1 870.834 1432)">0.5</text><text fill="#262626" font-family="Arial,Arial_MSFontService,sans-serif" font-weight="400" font-size="45" transform="matrix(1 0 0 1 907.787 1205)">0</text><text fill="#262626" font-family="Arial,Arial_MSFontService,sans-serif" font-weight="400" font-size="45" transform="matrix(1 0 0 1 870.261 978)">0.5</text><text fill="#262626" font-family="Arial,Arial_MSFontService,sans-serif" font-weight="400" font-size="45" transform="matrix(1 0 0 1 907.787 752)">1</text><text fill="#262626" font-family="Arial,Arial_MSFontService,sans-serif" font-weight="400" font-size="45" transform="matrix(1 0 0 1 870.261 525)">1.5</text><text fill="#262626" font-family="Arial,Arial_MSFontService,sans-serif" font-weight="400" font-size="110" transform="matrix(-1.83697e-16 -1 1 -1.83697e-16 851.102 1343)">Amplitude</text><path d="M954.5 732.5 957.002 732.523 959.504 732.591 962.006 732.704 964.508 732.863 967.01 733.067 969.512 733.316 972.014 733.611 974.516 733.951 977.018 734.336 979.52 734.766 982.022 735.241 984.524 735.761 987.026 736.327 989.528 736.937 992.03 737.592 994.532 738.293 997.034 739.037 999.536 739.827 1002.04 740.661 1004.54 741.54 1007.04 742.463 1009.54 743.43 1012.05 744.444 1014.55 745.5 1017.05 746.6 1019.55 747.744 1022.05 748.93 1024.56 750.161 1027.06 751.436 1029.56 752.756 1032.06 754.118 1034.56 755.524 1037.07 756.971 1039.57 758.459 1042.07 759.996 1044.57 761.57 1047.07 763.189 1049.58 764.85 1052.08 766.555 1054.58 768.298 1057.08 770.085 1059.58 771.914 1062.09 773.784 1064.59 775.695 1067.09 777.648 1069.59 779.642 1072.09 781.673 1074.6 783.746 1077.1 785.864 1079.6 788.016 1082.1 790.209 1084.6 792.443 1087.11 794.716 1089.61 797.029 1092.11 799.381 1094.61 801.77 1097.11 804.197 1099.62 806.665 1102.12 809.167 1104.62 811.711 1107.12 814.29 1109.62 816.906 1112.13 819.559 1114.63 822.251 1117.13 824.977 1119.63 827.737 1122.13 830.536 1124.64 833.372 1127.14 836.242 1129.64 839.143 1132.14 842.083 1134.64 845.056 1137.15 848.064 1139.65 851.106 1142.15 854.18 1144.65 857.287 1147.15 860.429 1149.66 863.602 1152.16 866.806 1154.66 870.044 1157.16 873.314 1159.66 876.614 1162.17 879.945 1164.67 883.307 1167.17 886.699 1169.67 890.12 1172.17 893.571 1174.68 897.053 1177.18 900.563 1179.68 904.101 1182.18 907.666 1184.68 911.261 1187.19 914.881 1189.69 918.532 1192.19 922.207 1194.69 925.909 1197.19 929.639 1199.7 933.389 1202.2 937.171 1204.7 940.973 1207.2 944.802 1209.7 948.656 1212.21 952.53 1214.71 956.428 1217.21 960.35 1219.71 964.297 1222.21 968.264 1224.72 972.255 1227.22 976.263 1229.72 980.295 1232.22 984.345 1234.72 988.419 1237.23 992.51 1239.73 996.621 1242.23 1000.75 1244.73 1004.9 1247.23 1009.07 1249.74 1013.25 1252.24 1017.45 1254.74 1021.67 1257.24 1025.91 1259.74 1030.16 1262.25 1034.42 1264.75 1038.7 1267.25 1043 1269.75 1047.31 1272.25 1051.64 1274.76 1055.97 1277.26 1060.33 1279.76 1064.69 1282.26 1069.07 1284.76 1073.46 1287.27 1077.85 1289.77 1082.26 1292.27 1086.68 1294.77 1091.11 1297.27 1095.55 1299.78 1100 1302.28 1104.46 1304.78 1108.92 1307.28 1113.39 1309.78 1117.87 1312.29 1122.36 1314.79 1126.85 1317.29 1131.35 1319.79 1135.86 1322.29 1140.37 1324.8 1144.88 1327.3 1149.4 1329.8 1153.92 1332.3 1158.45 1334.8 1162.97 1337.31 1167.5 1339.81 1172.04 1342.31 1176.57 1344.81 1181.1 1347.31 1185.64 1349.82 1190.18 1352.32 1194.71 1354.82 1199.24 1357.32 1203.78 1359.82 1208.31 1362.33 1212.83 1364.83 1217.36 1367.33 1221.88 1369.83 1226.4 1372.33 1230.91 1374.84 1235.43 1377.34 1239.93 1379.84 1244.43 1382.34 1248.92 1384.84 1253.41 1387.35 1257.9 1389.85 1262.37 1392.35 1266.83 1394.85 1271.29 1397.35 1275.75 1399.86 1280.19 1402.36 1284.62 1404.86 1289.04 1407.36 1293.45 1409.86 1297.85 1412.37 1302.24 1414.87 1306.61 1417.37 1310.98 1419.87 1315.34 1422.37 1319.67 1424.88 1324 1427.38 1328.32 1429.88 1332.61 1432.38 1336.9 1434.88 1341.17 1437.39 1345.42 1439.89 1349.66 1442.39 1353.88 1444.89 1358.08 1447.39 1362.27 1449.9 1366.44 1452.4 1370.59 1454.9 1374.72 1457.4 1378.84 1459.9 1382.93 1462.41 1387.01 1464.91 1391.06 1467.41 1395.1 1469.91 1399.11 1472.41 1403.11 1474.92 1407.08 1477.42 1411.02 1479.92 1414.95 1482.42 1418.85 1484.92 1422.73 1487.43 1426.59 1489.93 1430.42 1492.43 1434.23 1494.93 1438.01 1497.43 1441.77 1499.94 1445.5 1502.44 1449.21 1504.94 1452.89 1507.44 1456.54 1509.94 1460.17 1512.45 1463.77 1514.95 1467.34 1517.45 1470.88 1519.95 1474.39 1522.45 1477.88 1524.96 1481.34 1527.46 1484.76 1529.96 1488.16 1532.46 1491.52 1534.96 1494.86 1537.47 1498.17 1539.97 1501.44 1542.47 1504.68 1544.97 1507.89 1547.47 1511.07 1549.98 1514.22 1552.48 1517.33 1554.98 1520.41 1557.48 1523.46 1559.98 1526.47 1562.49 1529.45 1564.99 1532.39 1567.49 1535.3 1569.99 1538.18 1572.49 1541.02 1575 1543.82 1577.5 1546.59 1580 1549.32 1582.5 1552.02 1585 1554.68 1587.51 1557.3 1590.01 1559.89 1592.51 1562.43 1595.01 1564.94 1597.51 1567.41 1600.02 1569.85 1602.52 1572.24 1605.02 1574.6 1607.52 1576.92 1610.02 1579.2 1612.53 1581.44 1615.03 1583.64 1617.53 1585.8 1620.03 1587.92 1622.53 1590 1625.04 1592.04 1627.54 1594.04 1630.04 1596 1632.54 1597.92 1635.04 1599.79 1637.55 1601.63 1640.05 1603.42 1642.55 1605.17 1645.05 1606.88 1647.55 1608.55 1650.06 1610.18 1652.56 1611.76 1655.06 1613.3 1657.56 1614.8 1660.06 1616.25 1662.57 1617.66 1665.07 1619.03 1667.57 1620.36 1670.07 1621.64 1672.57 1622.88 1675.08 1624.08 1677.58 1625.22 1680.08 1626.33 1682.58 1627.4 1685.08 1628.41 1687.59 1629.39 1690.09 1630.32 1692.59 1631.21 1695.09 1632.04 1697.59 1632.84 1700.1 1633.59 1702.6 1634.3 1705.1 1634.96 1707.6 1635.58 1710.1 1636.16 1712.61 1636.68 1715.11 1637.17 1717.61 1637.6 1720.11 1637.99 1722.61 1638.34 1725.12 1638.64 1727.62 1638.9 1730.12 1639.11 1732.62 1639.28 1735.12 1639.4 1737.63 1639.47 1740.13 1639.5 1742.63 1639.49 1745.13 1639.42 1747.63 1639.32 1750.14 1639.17 1752.64 1638.97 1755.14 1638.73 1757.64 1638.44 1760.14 1638.11 1762.65 1637.73 1765.15 1637.31 1767.65 1636.84 1770.15 1636.33 1772.65 1635.77 1775.16 1635.17 1777.66 1634.52 1780.16 1633.82 1782.66 1633.09 1785.16 1632.31 1787.67 1631.48 1790.17 1630.61 1792.67 1629.69 1795.17 1628.73 1797.67 1627.72 1800.18 1626.67 1802.68 1625.58 1805.18 1624.45 1807.68 1623.26 1810.18 1622.04 1812.69 1620.77 1815.19 1619.46 1817.69 1618.1 1820.19 1616.71 1822.69 1615.26 1825.2 1613.78 1827.7 1612.25 1830.2 1610.69 1832.7 1609.07 1835.2 1607.42 1837.71 1605.72 1840.21 1603.98 1842.71 1602.21 1845.21 1600.38 1847.71 1598.52 1850.22 1596.62 1852.72 1594.67 1855.22 1592.68 1857.72 1590.66 1860.22 1588.59 1862.73 1586.48 1865.23 1584.33 1867.73 1582.14 1870.23 1579.92 1872.73 1577.65 1875.24 1575.34 1877.74 1573 1880.24 1570.62 1882.74 1568.19 1885.24 1565.73 1887.75 1563.24 1890.25 1560.7 1892.75 1558.12 1895.25 1555.52 1897.75 1552.87 1900.26 1550.18 1902.76 1547.46 1905.26 1544.71 1907.76 1541.91 1910.26 1539.08 1912.77 1536.22 1915.27 1533.32 1917.77 1530.39 1920.27 1527.42 1922.77 1524.42 1925.28 1521.38 1927.78 1518.31 1930.28 1515.21 1932.78 1512.08 1935.28 1508.91 1937.79 1505.71 1940.29 1502.48 1942.79 1499.21 1945.29 1495.92 1947.79 1492.59 1950.3 1489.23 1952.8 1485.85 1955.3 1482.43 1957.8 1478.98 1960.3 1475.51 1962.81 1472 1965.31 1468.47 1967.81 1464.91 1970.31 1461.31 1972.81 1457.7 1975.32 1454.05 1977.82 1450.38 1980.32 1446.68 1982.82 1442.96 1985.32 1439.21 1987.83 1435.44 1990.33 1431.64 1992.83 1427.81 1995.33 1423.96 1997.83 1420.09 2000.34 1416.2 2002.84 1412.28 2005.34 1408.33 2007.84 1404.37 2010.34 1400.39 2012.85 1396.38 2015.35 1392.35 2017.85 1388.3 2020.35 1384.23 2022.85 1380.15 2025.36 1376.04 2027.86 1371.91 2030.36 1367.76 2032.86 1363.6 2035.36 1359.42 2037.87 1355.22 2040.37 1351 2042.87 1346.77 2045.37 1342.52 2047.87 1338.26 2050.38 1333.98 2052.88 1329.68 2055.38 1325.38 2057.88 1321.06 2060.38 1316.72 2062.89 1312.37 2065.39 1308.01 2067.89 1303.63 2070.39 1299.25 2072.89 1294.85 2075.4 1290.44 2077.9 1286.03 2080.4 1281.6 2082.9 1277.16 2085.4 1272.71 2087.91 1268.26 2090.41 1263.79 2092.91 1259.32 2095.41 1254.84 2097.91 1250.36 2100.42 1245.87 2102.92 1241.37 2105.42 1236.86 2107.92 1232.35 2110.42 1227.84 2112.93 1223.32 2115.43 1218.8 2117.93 1214.28 2120.43 1209.75 2122.93 1205.22 2125.44 1200.69 2127.94 1196.15 2130.44 1191.62 2132.94 1187.09 2135.44 1182.55 2137.95 1178.01 2140.45 1173.48 2142.95 1168.95 2145.45 1164.42 2147.95 1159.89 2150.46 1155.36 2152.96 1150.84 2155.46 1146.32 2157.96 1141.8 2160.46 1137.3 2162.97 1132.79 2165.47 1128.29 2167.97 1123.79 2170.47 1119.3 2172.97 1114.82 2175.48 1110.34 2177.98 1105.88 2180.48 1101.42 2182.98 1096.96 2185.48 1092.52 2187.99 1088.09 2190.49 1083.67 2192.99 1079.25 2195.49 1074.85 2197.99 1070.46 2200.5 1066.08 2203 1061.72 2205.5 1057.36 2208 1053.02 2210.5 1048.69 2213.01 1044.37 2215.51 1040.07 2218.01 1035.79 2220.51 1031.52 2223.01 1027.26 2225.52 1023.02 2228.02 1018.8 2230.52 1014.59 2233.02 1010.4 2235.52 1006.23 2238.03 1002.07 2240.53 997.934 2243.03 993.819 2245.53 989.722 2248.03 985.641 2250.54 981.585 2253.04 977.545 2255.54 973.527 2258.04 969.533 2260.54 965.559 2263.05 961.605 2265.55 957.676 2268.05 953.771 2270.55 949.886 2273.05 946.026 2275.56 942.19 2278.06 938.377 2280.56 934.592 2283.06 930.832 2285.56 927.095 2288.07 923.382 2290.57 919.701 2293.07 916.043 2295.57 912.413 2298.07 908.81 2300.58 905.235 2303.08 901.688 2305.58 898.168 2308.08 894.678 2310.58 891.217 2313.09 887.786 2315.59 884.383 2318.09 881.01 2320.59 877.673 2323.09 874.362 2325.6 871.082 2328.1 867.834 2330.6 864.62 2333.1 861.437 2335.6 858.284 2338.11 855.166 2340.61 852.079 2343.11 849.03 2345.61 846.012 2348.11 843.028 2350.62 840.075 2353.12 837.164 2355.62 834.283 2358.12 831.436 2360.62 828.628 2363.13 825.854 2365.63 823.114 2368.13 820.412 2370.63 817.748 2373.13 815.118 2375.64 812.53 2378.14 809.975 2380.64 807.459 2383.14 804.981 2385.64 802.54 2388.15 800.137 2390.65 797.775 2393.15 795.448 2395.65 793.165 2398.15 790.917 2400.66 788.71 2403.16 786.544 2405.66 784.417 2408.16 782.33 2410.66 780.285 2413.17 778.277 2415.67 776.314 2418.17 774.389 2420.67 772.505 2423.17 770.663 2425.68 768.865 2428.18 767.105 2430.68 765.389 2433.18 763.715 2435.68 762.082 2438.19 760.491 2440.69 758.944 2443.19 757.442 2445.69 755.977 2448.19 754.561 2450.7 753.186 2453.2 751.852 2455.7 750.563 2458.2 749.319 2460.7 748.115 2463.21 746.957 2465.71 745.843 2468.21 744.774 2470.71 743.75 2473.21 742.766 2475.72 741.829 2478.22 740.936 2480.72 740.088 2483.22 739.284 2485.72 738.525 2488.23 737.81 2490.73 737.141 2493.23 736.517 2495.73 735.937 2498.23 735.402 2500.74 734.912 2503.24 734.468 2505.74 734.068 2508.24 733.714 2510.74 733.405 2513.25 733.141 2515.75 732.923 2518.25 732.75 2520.75 732.622 2523.25 732.54 2525.76 732.503 2528.26 732.511 2530.76 732.564 2533.26 732.663 2535.76 732.808 2538.27 732.997 2540.77 733.232 2543.27 733.512 2545.77 733.838 2548.27 734.208 2550.78 734.624 2553.28 735.085 2555.78 735.591 2558.28 736.142 2560.78 736.738 2563.29 737.379 2565.79 738.065 2568.29 738.795 2570.79 739.571 2573.29 740.391 2575.8 741.255 2578.3 742.164 2580.8 743.117 2583.3 744.114 2585.8 745.159 2588.31 746.242 2590.81 747.373 2593.31 748.548 2595.81 749.765 2598.31 751.027 2600.82 752.33 2603.32 753.678 2605.82 755.07 2608.32 756.503 2610.82 757.981 2613.33 759.501 2615.83 761.065 2618.33 762.67 2620.83 764.317 2623.33 766.008 2625.84 767.737 2628.34 769.511 2630.84 771.326 2633.34 773.186 2635.84 775.084 2638.35 777.022 2640.85 779.002 2643.35 781.02 2645.85 783.083 2648.35 785.183 2650.86 787.325 2653.36 789.508 2655.86 791.729 2658.36 793.99 2660.86 796.29 2663.37 798.628 2665.87 801.007 2668.37 803.42 2670.87 805.874 2673.37 808.367 2675.88 810.896 2678.38 813.465 2680.88 816.07 2683.38 818.71 2685.88 821.388 2688.39 824.104 2690.89 826.854 2693.39 829.642 2695.89 832.464 2698.39 835.321 2700.9 838.216 2703.4 841.144 2705.9 844.107 2708.4 847.102 2710.9 850.134 2713.41 853.197 2715.91 856.294 2718.41 859.426 2720.91 862.588 2723.41 865.782 2725.92 869.009 2728.42 872.268 2730.92 875.558 2733.42 878.879 2735.92 882.231 2738.43 885.613 2740.93 889.027 2743.43 892.468 2745.93 895.94 2748.43 899.443 2750.94 902.97 2753.44 906.528 2755.94 910.113 2758.44 913.726 2760.94 917.367 2763.45 921.035 2765.95 924.727 2768.45 928.446 2770.95 932.193 2773.45 935.964 2775.96 939.759 2778.46 943.578 2780.96 947.425 2783.46 951.292 2785.96 955.184 2788.47 959.099 2790.97 963.039 2793.47 966.999 2795.97 970.98 2798.47 974.984 2800.98 979.01 2803.48 983.052 2805.98 987.119 2808.48 991.207 2810.98 995.311 2813.49 999.433 2815.99 1003.58 2818.49 1007.74 2820.99 1011.92 2823.49 1016.11 2826 1020.33 2828.5 1024.55 2831 1028.8 2833.5 1033.06 2836 1037.34 2838.51 1041.63 2841.01 1045.94 2843.51 1050.26 2846.01 1054.59 2848.51 1058.94 2851.02 1063.3 2853.52 1067.67 2856.02 1072.06 2858.52 1076.45 2861.02 1080.86 2863.53 1085.27 2866.03 1089.7 2868.53 1094.14 2871.03 1098.58 2873.53 1103.04 2876.04 1107.5 2878.54 1111.97 2881.04 1116.45 2883.54 1120.93 2886.04 1125.42 2888.55 1129.92 2891.05 1134.42 2893.55 1138.93 2896.05 1143.44 2898.55 1147.96 2901.06 1152.48 2903.56 1157.01 2906.06 1161.53 2908.56 1166.06 2911.06 1170.59 2913.57 1175.13 2916.07 1179.66 2918.57 1184.19 2921.07 1188.73 2923.57 1193.27 2926.08 1197.8 2928.58 1202.33 2931.08 1206.86 2933.58 1211.39 2936.08 1215.92 2938.59 1220.44 2941.09 1224.96 2943.59 1229.48 2946.09 1233.99 2948.59 1238.5 2951.1 1243 2953.6 1247.49 2956.1 1251.98 2958.6 1256.47 2961.1 1260.95 2963.61 1265.41 2966.11 1269.87 2968.61 1274.33 2971.11 1278.77 2973.61 1283.2 2976.12 1287.63 2978.62 1292.05 2981.12 1296.45 2983.62 1300.84 2986.12 1305.22 2988.63 1309.59 2991.13 1313.95 2993.63 1318.29 2996.13 1322.62 2998.63 1326.94 3001.14 1331.25 3003.64 1335.54 3006.14 1339.81 3008.64 1344.07 3011.14 1348.31 3013.65 1352.53 3016.15 1356.75 3018.65 1360.94 3021.15 1365.11 3023.65 1369.27 3026.16 1373.41 3028.66 1377.53 3031.16 1381.63 3033.66 1385.71 3036.16 1389.77 3038.67 1393.82 3041.17 1397.84 3043.67 1401.83 3046.17 1405.81 3048.67 1409.77 3051.18 1413.7 3053.68 1417.61 3056.18 1421.5 3058.68 1425.36 3061.18 1429.2 3063.69 1433.02 3066.19 1436.81 3068.69 1440.58 3071.19 1444.32 3073.69 1448.03 3076.2 1451.72 3078.7 1455.38 3081.2 1459.01 3083.7 1462.62 3086.2 1466.2 3088.71 1469.75 3091.21 1473.28 3093.71 1476.77 3096.21 1480.24 3098.71 1483.67 3101.22 1487.08 3103.72 1490.46 3106.22 1493.8 3108.72 1497.12 3111.22 1500.4 3113.73 1503.65 3116.23 1506.87 3118.73 1510.06 3121.23 1513.22 3123.73 1516.34 3126.24 1519.43 3128.74 1522.49 3131.24 1525.51 3133.74 1528.5 3136.24 1531.46 3138.75 1534.38 3141.25 1537.27 3143.75 1540.11 3146.25 1542.93 3148.75 1545.71 3151.26 1548.45 3153.76 1551.16 3156.26 1553.83 3158.76 1556.47 3161.26 1559.06 3163.77 1561.62 3166.27 1564.15 3168.77 1566.63 3171.27 1569.08 3173.77 1571.49 3176.28 1573.86 3178.78 1576.19 3181.28 1578.48 3183.78 1580.73 3186.28 1582.94 3188.79 1585.12 3191.29 1587.25 3193.79 1589.34 3196.29 1591.39 3198.79 1593.41 3201.3 1595.38 3203.8 1597.31 3206.3 1599.2 3208.8 1601.05 3211.3 1602.85 3213.81 1604.62 3216.31 1606.34 3218.81 1608.03 3221.31 1609.67 3223.81 1611.26 3226.32 1612.81 3228.82 1614.33 3231.32 1615.79 3233.82 1617.22 3236.32 1618.6 3238.83 1619.94 3241.33 1621.24 3243.83 1622.49 3246.33 1623.7 3248.83 1624.86 3251.34 1625.98 3253.84 1627.06 3256.34 1628.09 3258.84 1629.08 3261.34 1630.03 3263.85 1630.93 3266.35 1631.78 3268.85 1632.59 3271.35 1633.36 3273.85 1634.08 3276.36 1634.76 3278.86 1635.39 3281.36 1635.98 3283.86 1636.52 3286.36 1637.01 3288.87 1637.47 3291.37 1637.87 3293.87 1638.23 3296.37 1638.55 3298.87 1638.82 3301.38 1639.05 3303.88 1639.23 3306.38 1639.36 3308.88 1639.45 3311.38 1639.5 3313.89 1639.5 3316.39 1639.45 3318.89 1639.36 3321.39 1639.22 3323.89 1639.04 3326.4 1638.81 3328.9 1638.54 3331.4 1638.22 3333.9 1637.86 3336.4 1637.45 3338.91 1636.99 3341.41 1636.5 3343.91 1635.95 3346.41 1635.36 3348.91 1634.73 3351.42 1634.05 3353.92 1633.33 3356.42 1632.56 3358.92 1631.74 3361.42 1630.89 3363.93 1629.98 3366.43 1629.04 3368.93 1628.05 3371.43 1627.01 3373.93 1625.94 3376.44 1624.81 3378.94 1623.65 3381.44 1622.44 3383.94 1621.18 3386.44 1619.88 3388.95 1618.54 3391.45 1617.16 3393.95 1615.73 3396.45 1614.26 3398.95 1612.74 3401.46 1611.19 3403.96 1609.59 3406.46 1607.95 3408.96 1606.27 3411.46 1604.54 3413.97 1602.78 3416.47 1600.97 3418.97 1599.12 3421.47 1597.22 3423.97 1595.29 3426.48 1593.32 3428.98 1591.3 3431.48 1589.25 3433.98 1587.16 3436.48 1585.02 3438.99 1582.84 3441.49 1580.63 3443.99 1578.38 3446.49 1576.08 3448.99 1573.75 3451.5 1571.38 3454 1568.97 3456.5 1566.52" stroke="#0072BD" stroke-width="6.875" stroke-linejoin="round" stroke-miterlimit="10" fill="none" fill-rule="evenodd"/><path d="M954.5 732.5 1204.7 940.866 1454.9 1374.4 1705.1 1634.5 1955.3 1482.04 2205.5 1057.19 2455.7 750.554 2705.9 844.05 2956.1 1251.72 3206.3 1598.76 3456.5 1566.1" stroke="#D95319" stroke-width="6.875" stroke-linejoin="round" stroke-miterlimit="10" fill="none" fill-rule="evenodd"/><path d="M954.044 721.835C959.677 721.835 964.244 726.401 964.244 732.035L964.244 732.035C964.244 737.668 959.677 742.235 954.044 742.235 948.41 742.235 943.844 737.668 943.844 732.035 943.844 726.401 948.41 721.835 954.044 721.835ZM954.044 715.035C944.655 715.035 937.044 722.646 937.044 732.035 937.044 741.423 944.655 749.035 954.044 749.035 963.432 749.035 971.044 741.423 971.044 732.035L971.044 732.035C971.044 722.646 963.432 715.035 954.044 715.035Z" fill="#D95319" fill-rule="evenodd"/><path d="M1204.07 930.058C1209.7 930.058 1214.27 934.759 1214.27 940.558L1214.27 940.558C1214.27 946.357 1209.7 951.058 1204.07 951.058 1198.44 951.058 1193.87 946.357 1193.87 940.558 1193.87 934.759 1198.44 930.058 1204.07 930.058ZM1204.07 923.058C1194.68 923.058 1187.07 930.893 1187.07 940.558 1187.07 950.223 1194.68 958.058 1204.07 958.058 1213.46 958.058 1221.07 950.223 1221.07 940.558L1221.07 940.558C1221.07 930.893 1213.46 923.058 1204.07 923.058Z" fill="#D95319" fill-rule="evenodd"/><path d="M1454.6 1363.9C1460.4 1363.9 1465.1 1368.47 1465.1 1374.1L1465.1 1374.1C1465.1 1379.73 1460.4 1384.3 1454.6 1384.3 1448.8 1384.3 1444.1 1379.73 1444.1 1374.1 1444.1 1368.47 1448.8 1363.9 1454.6 1363.9ZM1454.6 1357.1C1444.93 1357.1 1437.1 1364.71 1437.1 1374.1 1437.1 1383.49 1444.93 1391.1 1454.6 1391.1 1464.26 1391.1 1472.1 1383.49 1472.1 1374.1L1472.1 1374.1C1472.1 1364.71 1464.26 1357.1 1454.6 1357.1Z" fill="#D95319" fill-rule="evenodd"/><path d="M1704.62 1624.13C1710.42 1624.13 1715.12 1628.83 1715.12 1634.63L1715.12 1634.63C1715.12 1640.43 1710.42 1645.13 1704.62 1645.13 1698.83 1645.13 1694.12 1640.43 1694.12 1634.63 1694.12 1628.83 1698.83 1624.13 1704.62 1624.13ZM1704.62 1617.13C1694.96 1617.13 1687.12 1624.97 1687.12 1634.63 1687.12 1644.3 1694.96 1652.13 1704.62 1652.13 1714.29 1652.13 1722.12 1644.3 1722.12 1634.63L1722.12 1634.63C1722.12 1624.97 1714.29 1617.13 1704.62 1617.13Z" fill="#D95319" fill-rule="evenodd"/><path d="M1955.15 1471.91C1960.78 1471.91 1965.35 1476.48 1965.35 1482.11L1965.35 1482.11C1965.35 1487.75 1960.78 1492.31 1955.15 1492.31 1949.51 1492.31 1944.95 1487.75 1944.95 1482.11 1944.95 1476.48 1949.51 1471.91 1955.15 1471.91ZM1955.15 1465.11C1945.76 1465.11 1938.15 1472.72 1938.15 1482.11 1938.15 1491.5 1945.76 1499.11 1955.15 1499.11 1964.54 1499.11 1972.15 1491.5 1972.15 1482.11L1972.15 1482.11C1972.15 1472.72 1964.54 1465.11 1955.15 1465.11Z" fill="#D95319" fill-rule="evenodd"/><path d="M2205.17 1046.87C2210.81 1046.87 2215.37 1051.43 2215.37 1057.07L2215.37 1057.07C2215.37 1062.7 2210.81 1067.27 2205.17 1067.27 2199.54 1067.27 2194.97 1062.7 2194.97 1057.07 2194.97 1051.43 2199.54 1046.87 2205.17 1046.87ZM2205.17 1040.07C2195.78 1040.07 2188.17 1047.68 2188.17 1057.07 2188.17 1066.46 2195.78 1074.07 2205.17 1074.07 2214.56 1074.07 2222.17 1066.46 2222.17 1057.07L2222.17 1057.07C2222.17 1047.68 2214.56 1040.07 2205.17 1040.07Z" fill="#D95319" fill-rule="evenodd"/><path d="M2455.71 739.836C2461.5 739.836 2466.21 744.403 2466.21 750.036L2466.21 750.036C2466.21 755.67 2461.5 760.236 2455.71 760.236 2449.91 760.236 2445.21 755.67 2445.21 750.036 2445.21 744.403 2449.91 739.836 2455.71 739.836ZM2455.71 733.036C2446.04 733.036 2438.21 740.648 2438.21 750.036 2438.21 759.425 2446.04 767.036 2455.71 767.036 2465.37 767.036 2473.21 759.425 2473.21 750.036L2473.21 750.036C2473.21 740.648 2465.37 733.036 2455.71 733.036Z" fill="#D95319" fill-rule="evenodd"/><path d="M2705.73 833.047C2711.53 833.047 2716.23 837.748 2716.23 843.547L2716.23 843.547C2716.23 849.347 2711.53 854.047 2705.73 854.047 2699.93 854.047 2695.23 849.347 2695.23 843.547 2695.23 837.748 2699.93 833.047 2705.73 833.047ZM2705.73 826.047C2696.07 826.047 2688.23 833.883 2688.23 843.547 2688.23 853.213 2696.07 861.048 2705.73 861.048 2715.4 861.048 2723.23 853.213 2723.23 843.547L2723.23 843.547C2723.23 833.883 2715.4 826.047 2705.73 826.047Z" fill="#D95319" fill-rule="evenodd"/><path d="M2956.25 1241.09C2961.88 1241.09 2966.45 1245.79 2966.45 1251.59L2966.45 1251.59C2966.45 1257.39 2961.88 1262.09 2956.25 1262.09 2950.62 1262.09 2946.05 1257.39 2946.05 1251.59 2946.05 1245.79 2950.62 1241.09 2956.25 1241.09ZM2956.25 1234.09C2946.86 1234.09 2939.25 1241.93 2939.25 1251.59 2939.25 1261.26 2946.86 1269.09 2956.25 1269.09 2965.64 1269.09 2973.25 1261.26 2973.25 1251.59L2973.25 1251.59C2973.25 1241.93 2965.64 1234.09 2956.25 1234.09Z" fill="#D95319" fill-rule="evenodd"/><path d="M3206.28 1588.92C3211.91 1588.92 3216.48 1593.49 3216.48 1599.12L3216.48 1599.12C3216.48 1604.76 3211.91 1609.32 3206.28 1609.32 3200.64 1609.32 3196.08 1604.76 3196.08 1599.12 3196.08 1593.49 3200.64 1588.92 3206.28 1588.92ZM3206.28 1582.12C3196.89 1582.12 3189.28 1589.74 3189.28 1599.12 3189.28 1608.51 3196.89 1616.12 3206.28 1616.12 3215.67 1616.12 3223.28 1608.51 3223.28 1599.12L3223.28 1599.12C3223.28 1589.74 3215.67 1582.12 3206.28 1582.12Z" fill="#D95319" fill-rule="evenodd"/><path d="M3456.81 1555.92C3462.61 1555.92 3467.31 1560.49 3467.31 1566.12L3467.31 1566.12C3467.31 1571.75 3462.61 1576.32 3456.81 1576.32 3451.01 1576.32 3446.31 1571.75 3446.31 1566.12 3446.31 1560.49 3451.01 1555.92 3456.81 1555.92ZM3456.81 1549.12C3447.15 1549.12 3439.31 1556.73 3439.31 1566.12 3439.31 1575.51 3447.15 1583.12 3456.81 1583.12 3466.48 1583.12 3474.31 1575.51 3474.31 1566.12L3474.31 1566.12C3474.31 1556.73 3466.48 1549.12 3456.81 1549.12Z" fill="#D95319" fill-rule="evenodd"/><path d="M3419 667 3419 543 2728 543 2728 667Z" fill="#FFFFFF" fill-rule="evenodd"/><text font-family="Arial,Arial_MSFontService,sans-serif" font-weight="400" font-size="41" transform="matrix(1 0 0 1 2898.96 596)">High resolution cosine wave</text><path d="M2741.5 577.5 2879.5 577.5" stroke="#0072BD" stroke-width="6.875" stroke-linejoin="round" stroke-miterlimit="10" fill="none" fill-rule="evenodd"/><text font-family="Arial,Arial_MSFontService,sans-serif" font-weight="400" font-size="41" transform="matrix(1 0 0 1 2898.39 652)">Low resolution cosine wave</text><path d="M2741.5 633.5 2879.5 633.5" stroke="#D95319" stroke-width="6.875" stroke-linejoin="round" stroke-miterlimit="10" fill="none" fill-rule="evenodd"/><path d="M2810.24 622.824C2815.87 622.824 2820.44 627.391 2820.44 633.024L2820.44 633.024C2820.44 638.658 2815.87 643.224 2810.24 643.224 2804.6 643.224 2800.04 638.658 2800.04 633.024 2800.04 627.391 2804.6 622.824 2810.24 622.824ZM2810.24 616.024C2800.85 616.024 2793.24 623.636 2793.24 633.024 2793.24 642.413 2800.85 650.024 2810.24 650.024 2819.62 650.024 2827.24 642.413 2827.24 633.024L2827.24 633.024C2827.24 623.636 2819.62 616.024 2810.24 616.024Z" fill="#D95319" fill-rule="evenodd"/><path d="M2728 667 2728 543 3419 543 3419 667Z" stroke="#262626" stroke-width="2.29167" stroke-miterlimit="8" fill="none" fill-rule="evenodd"/></g></svg>