<svg width="2332" height="1520" xmlns="http://www.w3.org/2000/svg" xmlns:xlink="http://www.w3.org/1999/xlink" xml:space="preserve" overflow="hidden"><g transform="translate(-971 -583)"><path d="M1178 1801 3248 1801 3248 622 1178 622Z" fill="#FFFFFF" fill-rule="evenodd"/><path d="M1178 1801 1178 622" stroke="#262626" stroke-width="2.29167" stroke-linejoin="round" stroke-miterlimit="10" stroke-opacity="0.14902" fill="none" fill-rule="evenodd"/><path d="M1408 1801 1408 622" stroke="#262626" stroke-width="2.29167" stroke-linejoin="round" stroke-miterlimit="10" stroke-opacity="0.14902" fill="none" fill-rule="evenodd"/><path d="M1638 1801 1638 622" stroke="#262626" stroke-width="2.29167" stroke-linejoin="round" stroke-miterlimit="10" stroke-opacity="0.14902" fill="none" fill-rule="evenodd"/><path d="M1868 1801 1868 622" stroke="#262626" stroke-width="2.29167" stroke-linejoin="round" stroke-miterlimit="10" stroke-opacity="0.14902" fill="none" fill-rule="evenodd"/><path d="M2098 1801 2098 622" stroke="#262626" stroke-width="2.29167" stroke-linejoin="round" stroke-miterlimit="10" stroke-opacity="0.14902" fill="none" fill-rule="evenodd"/><path d="M2328 1801 2328 622" stroke="#262626" stroke-width="2.29167" stroke-linejoin="round" stroke-miterlimit="10" stroke-opacity="0.14902" fill="none" fill-rule="evenodd"/><path d="M2558 1801 2558 622" stroke="#262626" stroke-width="2.29167" stroke-linejoin="round" stroke-miterlimit="10" stroke-opacity="0.14902" fill="none" fill-rule="evenodd"/><path d="M2788 1801 2788 622" stroke="#262626" stroke-width="2.29167" stroke-linejoin="round" stroke-miterlimit="10" stroke-opacity="0.14902" fill="none" fill-rule="evenodd"/><path d="M3018 1801 3018 622" stroke="#262626" stroke-width="2.29167" stroke-linejoin="round" stroke-miterlimit="10" stroke-opacity="0.14902" fill="none" fill-rule="evenodd"/><path d="M3248 1801 3248 622" stroke="#262626" stroke-width="2.29167" stroke-linejoin="round" stroke-miterlimit="10" stroke-opacity="0.14902" fill="none" fill-rule="evenodd"/><path d="M3248 1763 1178 1763" stroke="#262626" stroke-width="2.29167" stroke-linejoin="round" stroke-miterlimit="10" stroke-opacity="0.14902" fill="none" fill-rule="evenodd"/><path d="M3248 1572 1178 1572" stroke="#262626" stroke-width="2.29167" stroke-linejoin="round" stroke-miterlimit="10" stroke-opacity="0.14902" fill="none" fill-rule="evenodd"/><path d="M3248 1382 1178 1382" stroke="#262626" stroke-width="2.29167" stroke-linejoin="round" stroke-miterlimit="10" stroke-opacity="0.14902" fill="none" fill-rule="evenodd"/><path d="M3248 1192 1178 1192" stroke="#262626" stroke-width="2.29167" stroke-linejoin="round" stroke-miterlimit="10" stroke-opacity="0.14902" fill="none" fill-rule="evenodd"/><path d="M3248 1002 1178 1002" stroke="#262626" stroke-width="2.29167" stroke-linejoin="round" stroke-miterlimit="10" stroke-opacity="0.14902" fill="none" fill-rule="evenodd"/><path d="M3248 812 1178 812" stroke="#262626" stroke-width="2.29167" stroke-linejoin="round" stroke-miterlimit="10" stroke-opacity="0.14902" fill="none" fill-rule="evenodd"/><path d="M3248 622 1178 622" stroke="#262626" stroke-width="2.29167" stroke-linejoin="round" stroke-miterlimit="10" stroke-opacity="0.14902" fill="none" fill-rule="evenodd"/><path d="M1178 1801 3248 1801" stroke="#262626" stroke-width="2.29167" stroke-linecap="square" stroke-linejoin="round" stroke-miterlimit="10" fill="none" fill-rule="evenodd"/><path d="M1178 622 3248 622" stroke="#262626" stroke-width="2.29167" stroke-linecap="square" stroke-linejoin="round" stroke-miterlimit="10" fill="none" fill-rule="evenodd"/><path d="M1178 1801 1178 1780" stroke="#262626" stroke-width="2.29167" stroke-linecap="square" stroke-linejoin="round" stroke-miterlimit="10" fill="none" fill-rule="evenodd"/><path d="M1408 1801 1408 1780" stroke="#262626" stroke-width="2.29167" stroke-linecap="square" stroke-linejoin="round" stroke-miterlimit="10" fill="none" fill-rule="evenodd"/><path d="M1638 1801 1638 1780" stroke="#262626" stroke-width="2.29167" stroke-linecap="square" stroke-linejoin="round" stroke-miterlimit="10" fill="none" fill-rule="evenodd"/><path d="M1868 1801 1868 1780" stroke="#262626" stroke-width="2.29167" stroke-linecap="square" stroke-linejoin="round" stroke-miterlimit="10" fill="none" fill-rule="evenodd"/><path d="M2098 1801 2098 1780" stroke="#262626" stroke-width="2.29167" stroke-linecap="square" stroke-linejoin="round" stroke-miterlimit="10" fill="none" fill-rule="evenodd"/><path d="M2328 1801 2328 1780" stroke="#262626" stroke-width="2.29167" stroke-linecap="square" stroke-linejoin="round" stroke-miterlimit="10" fill="none" fill-rule="evenodd"/><path d="M2558 1801 2558 1780" stroke="#262626" stroke-width="2.29167" stroke-linecap="square" stroke-linejoin="round" stroke-miterlimit="10" fill="none" fill-rule="evenodd"/><path d="M2788 1801 2788 1780" stroke="#262626" stroke-width="2.29167" stroke-linecap="square" stroke-linejoin="round" stroke-miterlimit="10" fill="none" fill-rule="evenodd"/><path d="M3018 1801 3018 1780" stroke="#262626" stroke-width="2.29167" stroke-linecap="square" stroke-linejoin="round" stroke-miterlimit="10" fill="none" fill-rule="evenodd"/><path d="M3248 1801 3248 1780" stroke="#262626" stroke-width="2.29167" stroke-linecap="square" stroke-linejoin="round" stroke-miterlimit="10" fill="none" fill-rule="evenodd"/><path d="M1178 622 1178 642" stroke="#262626" stroke-width="2.29167" stroke-linecap="square" stroke-linejoin="round" stroke-miterlimit="10" fill="none" fill-rule="evenodd"/><path d="M1408 622 1408 642" stroke="#262626" stroke-width="2.29167" stroke-linecap="square" stroke-linejoin="round" stroke-miterlimit="10" fill="none" fill-rule="evenodd"/><path d="M1638 622 1638 642" stroke="#262626" stroke-width="2.29167" stroke-linecap="square" stroke-linejoin="round" stroke-miterlimit="10" fill="none" fill-rule="evenodd"/><path d="M1868 622 1868 642" stroke="#262626" stroke-width="2.29167" stroke-linecap="square" stroke-linejoin="round" stroke-miterlimit="10" fill="none" fill-rule="evenodd"/><path d="M2098 622 2098 642" stroke="#262626" stroke-width="2.29167" stroke-linecap="square" stroke-linejoin="round" stroke-miterlimit="10" fill="none" fill-rule="evenodd"/><path d="M2328 622 2328 642" stroke="#262626" stroke-width="2.29167" stroke-linecap="square" stroke-linejoin="round" stroke-miterlimit="10" fill="none" fill-rule="evenodd"/><path d="M2558 622 2558 642" stroke="#262626" stroke-width="2.29167" stroke-linecap="square" stroke-linejoin="round" stroke-miterlimit="10" fill="none" fill-rule="evenodd"/><path d="M2788 622 2788 642" stroke="#262626" stroke-width="2.29167" stroke-linecap="square" stroke-linejoin="round" stroke-miterlimit="10" fill="none" fill-rule="evenodd"/><path d="M3018 622 3018 642" stroke="#262626" stroke-width="2.29167" stroke-linecap="square" stroke-linejoin="round" stroke-miterlimit="10" fill="none" fill-rule="evenodd"/><path d="M3248 622 3248 642" stroke="#262626" stroke-width="2.29167" stroke-linecap="square" stroke-linejoin="round" stroke-miterlimit="10" fill="none" fill-rule="evenodd"/><text fill="#262626" font-family="Arial,Arial_MSFontService,sans-serif" font-weight="400" font-size="45" transform="matrix(1 0 0 1 1164.45 1868)">0</text><text fill="#262626" font-family="Arial,Arial_MSFontService,sans-serif" font-weight="400" font-size="45" transform="matrix(1 0 0 1 1394.38 1868)">2</text><text fill="#262626" font-family="Arial,Arial_MSFontService,sans-serif" font-weight="400" font-size="45" transform="matrix(1 0 0 1 1624.31 1868)">4</text><text fill="#262626" font-family="Arial,Arial_MSFontService,sans-serif" font-weight="400" font-size="45" transform="matrix(1 0 0 1 1854.25 1868)">6</text><text fill="#262626" font-family="Arial,Arial_MSFontService,sans-serif" font-weight="400" font-size="45" transform="matrix(1 0 0 1 2084.17 1868)">8</text><text fill="#262626" font-family="Arial,Arial_MSFontService,sans-serif" font-weight="400" font-size="45" transform="matrix(1 0 0 1 2301.79 1868)">10</text><text fill="#262626" font-family="Arial,Arial_MSFontService,sans-serif" font-weight="400" font-size="45" transform="matrix(1 0 0 1 2531.72 1868)">12</text><text fill="#262626" font-family="Arial,Arial_MSFontService,sans-serif" font-weight="400" font-size="45" transform="matrix(1 0 0 1 2761.65 1868)">14</text><text fill="#262626" font-family="Arial,Arial_MSFontService,sans-serif" font-weight="400" font-size="45" transform="matrix(1 0 0 1 2991.58 1868)">16</text><text fill="#262626" font-family="Arial,Arial_MSFontService,sans-serif" font-weight="400" font-size="45" transform="matrix(1 0 0 1 3221.51 1868)">18</text><text fill="#262626" font-family="Arial,Arial_MSFontService,sans-serif" font-weight="400" font-size="73" transform="matrix(1 0 0 1 2022.68 1944)">Cycly counts</text><path d="M1178 1801 1178 622" stroke="#262626" stroke-width="2.29167" stroke-linecap="square" stroke-linejoin="round" stroke-miterlimit="10" fill="none" fill-rule="evenodd"/><path d="M3248 1801 3248 622" stroke="#262626" stroke-width="2.29167" stroke-linecap="square" stroke-linejoin="round" stroke-miterlimit="10" fill="none" fill-rule="evenodd"/><path d="M1178 1763 1199 1763" stroke="#262626" stroke-width="2.29167" stroke-linecap="square" stroke-linejoin="round" stroke-miterlimit="10" fill="none" fill-rule="evenodd"/><path d="M1178 1572 1199 1572" stroke="#262626" stroke-width="2.29167" stroke-linecap="square" stroke-linejoin="round" stroke-miterlimit="10" fill="none" fill-rule="evenodd"/><path d="M1178 1382 1199 1382" stroke="#262626" stroke-width="2.29167" stroke-linecap="square" stroke-linejoin="round" stroke-miterlimit="10" fill="none" fill-rule="evenodd"/><path d="M1178 1192 1199 1192" stroke="#262626" stroke-width="2.29167" stroke-linecap="square" stroke-linejoin="round" stroke-miterlimit="10" fill="none" fill-rule="evenodd"/><path d="M1178 1002 1199 1002" stroke="#262626" stroke-width="2.29167" stroke-linecap="square" stroke-linejoin="round" stroke-miterlimit="10" fill="none" fill-rule="evenodd"/><path d="M1178 812 1199 812" stroke="#262626" stroke-width="2.29167" stroke-linecap="square" stroke-linejoin="round" stroke-miterlimit="10" fill="none" fill-rule="evenodd"/><path d="M1178 622 1199 622" stroke="#262626" stroke-width="2.29167" stroke-linecap="square" stroke-linejoin="round" stroke-miterlimit="10" fill="none" fill-rule="evenodd"/><path d="M3248 1763 3227 1763" stroke="#262626" stroke-width="2.29167" stroke-linecap="square" stroke-linejoin="round" stroke-miterlimit="10" fill="none" fill-rule="evenodd"/><path d="M3248 1572 3227 1572" stroke="#262626" stroke-width="2.29167" stroke-linecap="square" stroke-linejoin="round" stroke-miterlimit="10" fill="none" fill-rule="evenodd"/><path d="M3248 1382 3227 1382" stroke="#262626" stroke-width="2.29167" stroke-linecap="square" stroke-linejoin="round" stroke-miterlimit="10" fill="none" fill-rule="evenodd"/><path d="M3248 1192 3227 1192" stroke="#262626" stroke-width="2.29167" stroke-linecap="square" stroke-linejoin="round" stroke-miterlimit="10" fill="none" fill-rule="evenodd"/><path d="M3248 1002 3227 1002" stroke="#262626" stroke-width="2.29167" stroke-linecap="square" stroke-linejoin="round" stroke-miterlimit="10" fill="none" fill-rule="evenodd"/><path d="M3248 812 3227 812" stroke="#262626" stroke-width="2.29167" stroke-linecap="square" stroke-linejoin="round" stroke-miterlimit="10" fill="none" fill-rule="evenodd"/><path d="M3248 622 3227 622" stroke="#262626" stroke-width="2.29167" stroke-linecap="square" stroke-linejoin="round" stroke-miterlimit="10" fill="none" fill-rule="evenodd"/><text fill="#262626" font-family="Arial,Arial_MSFontService,sans-serif" font-weight="400" font-size="45" transform="matrix(1 0 0 1 1132.37 1782)">0</text><text fill="#262626" font-family="Arial,Arial_MSFontService,sans-serif" font-weight="400" font-size="45" transform="matrix(1 0 0 1 1132.37 1592)">5</text><text fill="#262626" font-family="Arial,Arial_MSFontService,sans-serif" font-weight="400" font-size="45" transform="matrix(1 0 0 1 1108.02 1402)">10</text><text fill="#262626" font-family="Arial,Arial_MSFontService,sans-serif" font-weight="400" font-size="45" transform="matrix(1 0 0 1 1108.02 1212)">15</text><text fill="#262626" font-family="Arial,Arial_MSFontService,sans-serif" font-weight="400" font-size="45" transform="matrix(1 0 0 1 1108.02 1022)">20</text><text fill="#262626" font-family="Arial,Arial_MSFontService,sans-serif" font-weight="400" font-size="45" transform="matrix(1 0 0 1 1108.02 831)">25</text><text fill="#262626" font-family="Arial,Arial_MSFontService,sans-serif" font-weight="400" font-size="45" transform="matrix(1 0 0 1 1108.02 641)">30</text><text fill="#262626" font-family="Arial,Arial_MSFontService,sans-serif" font-weight="400" font-size="73" transform="matrix(-1.83697e-16 -1 1 -1.83697e-16 1064.66 1531)">Phase </text><text fill="#262626" font-family="Arial,Arial_MSFontService,sans-serif" font-weight="400" font-size="73" transform="matrix(-1.83697e-16 -1 1 -1.83697e-16 1064.66 1303)">a</text><text fill="#262626" font-family="Arial,Arial_MSFontService,sans-serif" font-weight="400" font-size="73" transform="matrix(-1.83697e-16 -1 1 -1.83697e-16 1064.66 1262)">ccumulator</text><path d="M1293.5 1611.33 1408.5 1459.17 1523.5 1307 1638.5 1154.83 1753.5 1002.67 1868.5 850.5 1983.5 1763.5 2098.5 1611.33 2213.5 1459.17 2328.5 1307 2443.5 1154.83 2558.5 1002.67 2673.5 850.5 2788.5 1763.5 2903.5 1611.33 3018.5 1459.17 3133.5 1307" stroke="#0072BD" stroke-width="6.875" stroke-linejoin="round" stroke-miterlimit="10" fill="none" fill-rule="evenodd"/><path d="M1293.55 1600.12C1299.35 1600.12 1304.05 1604.82 1304.05 1610.62L1304.05 1610.62C1304.05 1616.42 1299.35 1621.12 1293.55 1621.12 1287.75 1621.12 1283.05 1616.42 1283.05 1610.62 1283.05 1604.82 1287.75 1600.12 1293.55 1600.12ZM1293.55 1593.12C1283.88 1593.12 1276.05 1600.95 1276.05 1610.62 1276.05 1620.28 1283.88 1628.12 1293.55 1628.12 1303.21 1628.12 1311.05 1620.28 1311.05 1610.62L1311.05 1610.62C1311.05 1600.95 1303.21 1593.12 1293.55 1593.12Z" fill="#0072BD" fill-rule="evenodd"/><path d="M1408.56 1448.1C1414.36 1448.1 1419.06 1452.8 1419.06 1458.6L1419.06 1458.6C1419.06 1464.4 1414.36 1469.1 1408.56 1469.1 1402.76 1469.1 1398.06 1464.4 1398.06 1458.6 1398.06 1452.8 1402.76 1448.1 1408.56 1448.1ZM1408.56 1441.1C1398.9 1441.1 1391.06 1448.94 1391.06 1458.6 1391.06 1468.27 1398.9 1476.1 1408.56 1476.1 1418.23 1476.1 1426.06 1468.27 1426.06 1458.6L1426.06 1458.6C1426.06 1448.94 1418.23 1441.1 1408.56 1441.1Z" fill="#0072BD" fill-rule="evenodd"/><path d="M1523.57 1295.88C1529.37 1295.88 1534.07 1300.45 1534.07 1306.08L1534.07 1306.08C1534.07 1311.72 1529.37 1316.28 1523.57 1316.28 1517.77 1316.28 1513.07 1311.72 1513.07 1306.08 1513.07 1300.45 1517.77 1295.88 1523.57 1295.88ZM1523.57 1289.08C1513.91 1289.08 1506.07 1296.69 1506.07 1306.08 1506.07 1315.47 1513.91 1323.08 1523.57 1323.08 1533.24 1323.08 1541.07 1315.47 1541.07 1306.08L1541.07 1306.08C1541.07 1296.69 1533.24 1289.08 1523.57 1289.08Z" fill="#0072BD" fill-rule="evenodd"/><path d="M1638.59 1143.87C1644.39 1143.87 1649.09 1148.43 1649.09 1154.07L1649.09 1154.07C1649.09 1159.7 1644.39 1164.27 1638.59 1164.27 1632.79 1164.27 1628.09 1159.7 1628.09 1154.07 1628.09 1148.43 1632.79 1143.87 1638.59 1143.87ZM1638.59 1137.07C1628.92 1137.07 1621.09 1144.68 1621.09 1154.07 1621.09 1163.46 1628.92 1171.07 1638.59 1171.07 1648.25 1171.07 1656.09 1163.46 1656.09 1154.07L1656.09 1154.07C1656.09 1144.68 1648.25 1137.07 1638.59 1137.07Z" fill="#0072BD" fill-rule="evenodd"/><path d="M1753.6 991.851C1759.4 991.851 1764.1 996.417 1764.1 1002.05L1764.1 1002.05C1764.1 1007.68 1759.4 1012.25 1753.6 1012.25 1747.8 1012.25 1743.1 1007.68 1743.1 1002.05 1743.1 996.417 1747.8 991.851 1753.6 991.851ZM1753.6 985.05C1743.93 985.05 1736.1 992.661 1736.1 1002.05 1736.1 1011.44 1743.93 1019.05 1753.6 1019.05 1763.26 1019.05 1771.1 1011.44 1771.1 1002.05L1771.1 1002.05C1771.1 992.661 1763.26 985.05 1753.6 985.05Z" fill="#0072BD" fill-rule="evenodd"/><path d="M1868.11 839.835C1873.74 839.835 1878.31 844.401 1878.31 850.035L1878.31 850.035C1878.31 855.668 1873.74 860.235 1868.11 860.235 1862.47 860.235 1857.91 855.668 1857.91 850.035 1857.91 844.401 1862.47 839.835 1868.11 839.835ZM1868.11 833.034C1858.72 833.034 1851.11 840.646 1851.11 850.035 1851.11 859.424 1858.72 867.035 1868.11 867.035 1877.5 867.035 1885.11 859.424 1885.11 850.035L1885.11 850.035C1885.11 840.646 1877.5 833.034 1868.11 833.034Z" fill="#0072BD" fill-rule="evenodd"/><path d="M1983.12 1752.13C1988.75 1752.13 1993.32 1756.83 1993.32 1762.63L1993.32 1762.63C1993.32 1768.43 1988.75 1773.13 1983.12 1773.13 1977.49 1773.13 1972.92 1768.43 1972.92 1762.63 1972.92 1756.83 1977.49 1752.13 1983.12 1752.13ZM1983.12 1745.13C1973.73 1745.13 1966.12 1752.97 1966.12 1762.63 1966.12 1772.3 1973.73 1780.13 1983.12 1780.13 1992.51 1780.13 2000.12 1772.3 2000.12 1762.63L2000.12 1762.63C2000.12 1752.97 1992.51 1745.13 1983.12 1745.13Z" fill="#0072BD" fill-rule="evenodd"/><path d="M2098.13 1600.12C2103.77 1600.12 2108.33 1604.82 2108.33 1610.62L2108.33 1610.62C2108.33 1616.42 2103.77 1621.12 2098.13 1621.12 2092.5 1621.12 2087.93 1616.42 2087.93 1610.62 2087.93 1604.82 2092.5 1600.12 2098.13 1600.12ZM2098.13 1593.12C2088.74 1593.12 2081.13 1600.95 2081.13 1610.62 2081.13 1620.28 2088.74 1628.12 2098.13 1628.12 2107.52 1628.12 2115.13 1620.28 2115.13 1610.62L2115.13 1610.62C2115.13 1600.95 2107.52 1593.12 2098.13 1593.12Z" fill="#0072BD" fill-rule="evenodd"/><path d="M2213.14 1448.1C2218.78 1448.1 2223.34 1452.8 2223.34 1458.6L2223.34 1458.6C2223.34 1464.4 2218.78 1469.1 2213.14 1469.1 2207.51 1469.1 2202.94 1464.4 2202.94 1458.6 2202.94 1452.8 2207.51 1448.1 2213.14 1448.1ZM2213.14 1441.1C2203.75 1441.1 2196.14 1448.94 2196.14 1458.6 2196.14 1468.27 2203.75 1476.1 2213.14 1476.1 2222.53 1476.1 2230.14 1468.27 2230.14 1458.6L2230.14 1458.6C2230.14 1448.94 2222.53 1441.1 2213.14 1441.1Z" fill="#0072BD" fill-rule="evenodd"/><path d="M2328.16 1295.88C2333.79 1295.88 2338.36 1300.45 2338.36 1306.08L2338.36 1306.08C2338.36 1311.72 2333.79 1316.28 2328.16 1316.28 2322.52 1316.28 2317.96 1311.72 2317.96 1306.08 2317.96 1300.45 2322.52 1295.88 2328.16 1295.88ZM2328.16 1289.08C2318.77 1289.08 2311.16 1296.69 2311.16 1306.08 2311.16 1315.47 2318.77 1323.08 2328.16 1323.08 2337.54 1323.08 2345.16 1315.47 2345.16 1306.08L2345.16 1306.08C2345.16 1296.69 2337.54 1289.08 2328.16 1289.08Z" fill="#0072BD" fill-rule="evenodd"/><path d="M2443.17 1143.87C2448.8 1143.87 2453.37 1148.43 2453.37 1154.07L2453.37 1154.07C2453.37 1159.7 2448.8 1164.27 2443.17 1164.27 2437.53 1164.27 2432.97 1159.7 2432.97 1154.07 2432.97 1148.43 2437.53 1143.87 2443.17 1143.87ZM2443.17 1137.07C2433.78 1137.07 2426.17 1144.68 2426.17 1154.07 2426.17 1163.46 2433.78 1171.07 2443.17 1171.07 2452.56 1171.07 2460.17 1163.46 2460.17 1154.07L2460.17 1154.07C2460.17 1144.68 2452.56 1137.07 2443.17 1137.07Z" fill="#0072BD" fill-rule="evenodd"/><path d="M2558.18 991.851C2563.81 991.851 2568.38 996.417 2568.38 1002.05L2568.38 1002.05C2568.38 1007.68 2563.81 1012.25 2558.18 1012.25 2552.55 1012.25 2547.98 1007.68 2547.98 1002.05 2547.98 996.417 2552.55 991.851 2558.18 991.851ZM2558.18 985.05C2548.79 985.05 2541.18 992.661 2541.18 1002.05 2541.18 1011.44 2548.79 1019.05 2558.18 1019.05 2567.57 1019.05 2575.18 1011.44 2575.18 1002.05L2575.18 1002.05C2575.18 992.661 2567.57 985.05 2558.18 985.05Z" fill="#0072BD" fill-rule="evenodd"/><path d="M2673.19 839.835C2678.82 839.835 2683.39 844.401 2683.39 850.035L2683.39 850.035C2683.39 855.668 2678.82 860.235 2673.19 860.235 2667.56 860.235 2662.99 855.668 2662.99 850.035 2662.99 844.401 2667.56 839.835 2673.19 839.835ZM2673.19 833.034C2663.8 833.034 2656.19 840.646 2656.19 850.035 2656.19 859.424 2663.8 867.035 2673.19 867.035 2682.58 867.035 2690.19 859.424 2690.19 850.035L2690.19 850.035C2690.19 840.646 2682.58 833.034 2673.19 833.034Z" fill="#0072BD" fill-rule="evenodd"/><path d="M2788.2 1752.13C2793.84 1752.13 2798.4 1756.83 2798.4 1762.63L2798.4 1762.63C2798.4 1768.43 2793.84 1773.13 2788.2 1773.13 2782.57 1773.13 2778 1768.43 2778 1762.63 2778 1756.83 2782.57 1752.13 2788.2 1752.13ZM2788.2 1745.13C2778.81 1745.13 2771.2 1752.97 2771.2 1762.63 2771.2 1772.3 2778.81 1780.13 2788.2 1780.13 2797.59 1780.13 2805.2 1772.3 2805.2 1762.63L2805.2 1762.63C2805.2 1752.97 2797.59 1745.13 2788.2 1745.13Z" fill="#0072BD" fill-rule="evenodd"/><path d="M2903.22 1600.12C2908.85 1600.12 2913.42 1604.82 2913.42 1610.62L2913.42 1610.62C2913.42 1616.42 2908.85 1621.12 2903.22 1621.12 2897.58 1621.12 2893.02 1616.42 2893.02 1610.62 2893.02 1604.82 2897.58 1600.12 2903.22 1600.12ZM2903.22 1593.12C2893.83 1593.12 2886.22 1600.95 2886.22 1610.62 2886.22 1620.28 2893.83 1628.12 2903.22 1628.12 2912.6 1628.12 2920.22 1620.28 2920.22 1610.62L2920.22 1610.62C2920.22 1600.95 2912.6 1593.12 2903.22 1593.12Z" fill="#0072BD" fill-rule="evenodd"/><path d="M3018.23 1448.1C3023.86 1448.1 3028.43 1452.8 3028.43 1458.6L3028.43 1458.6C3028.43 1464.4 3023.86 1469.1 3018.23 1469.1 3012.59 1469.1 3008.03 1464.4 3008.03 1458.6 3008.03 1452.8 3012.59 1448.1 3018.23 1448.1ZM3018.23 1441.1C3008.84 1441.1 3001.23 1448.94 3001.23 1458.6 3001.23 1468.27 3008.84 1476.1 3018.23 1476.1 3027.62 1476.1 3035.23 1468.27 3035.23 1458.6L3035.23 1458.6C3035.23 1448.94 3027.62 1441.1 3018.23 1441.1Z" fill="#0072BD" fill-rule="evenodd"/><path d="M3133.24 1295.88C3138.87 1295.88 3143.44 1300.45 3143.44 1306.08L3143.44 1306.08C3143.44 1311.72 3138.87 1316.28 3133.24 1316.28 3127.61 1316.28 3123.04 1311.72 3123.04 1306.08 3123.04 1300.45 3127.61 1295.88 3133.24 1295.88ZM3133.24 1289.08C3123.85 1289.08 3116.24 1296.69 3116.24 1306.08 3116.24 1315.47 3123.85 1323.08 3133.24 1323.08 3142.63 1323.08 3150.24 1315.47 3150.24 1306.08L3150.24 1306.08C3150.24 1296.69 3142.63 1289.08 3133.24 1289.08Z" fill="#0072BD" fill-rule="evenodd"/><path d="M1293.5 812.5 1408.5 812.5 1523.5 812.5 1638.5 812.5 1753.5 812.5 1868.5 812.5 1983.5 812.5 2098.5 812.5 2213.5 812.5 2328.5 812.5 2443.5 812.5 2558.5 812.5 2673.5 812.5 2788.5 812.5 2903.5 812.5 3018.5 812.5 3133.5 812.5" stroke="#D95319" stroke-width="6.875" stroke-linejoin="round" stroke-miterlimit="10" fill="none" fill-rule="evenodd"/><path d="M3210 783 3210 659 2760 659 2760 783Z" fill="#FFFFFF" fill-rule="evenodd"/><text font-family="Arial,Arial_MSFontService,sans-serif" font-weight="400" font-size="41" transform="matrix(1 0 0 1 2925.89 712)">Phase function</text><path d="M2773.5 693.5 2911.5 693.5" stroke="#0072BD" stroke-width="6.875" stroke-linejoin="round" stroke-miterlimit="10" fill="none" fill-rule="evenodd"/><path d="M2842.21 683.019C2847.84 683.019 2852.41 687.72 2852.41 693.519L2852.41 693.519C2852.41 699.318 2847.84 704.019 2842.21 704.019 2836.58 704.019 2832.01 699.318 2832.01 693.519 2832.01 687.72 2836.58 683.019 2842.21 683.019ZM2842.21 676.019C2832.82 676.019 2825.21 683.854 2825.21 693.519 2825.21 703.184 2832.82 711.019 2842.21 711.019 2851.6 711.019 2859.21 703.184 2859.21 693.519L2859.21 693.519C2859.21 683.854 2851.6 676.019 2842.21 676.019Z" fill="#0072BD" fill-rule="evenodd"/><text font-family="Arial,Arial_MSFontService,sans-serif" font-weight="400" font-size="41" transform="matrix(1 0 0 1 2920.73 768)">Overflow</text><path d="M2773.5 749.5 2911.5 749.5" stroke="#D95319" stroke-width="6.875" stroke-linejoin="round" stroke-miterlimit="10" fill="none" fill-rule="evenodd"/><path d="M2760 783 2760 659 3210 659 3210 783Z" stroke="#262626" stroke-width="2.29167" stroke-miterlimit="8" fill="none" fill-rule="evenodd"/><path d="M0 0 0.30748 515.884" stroke="#000000" stroke-width="4.58333" stroke-miterlimit="8" stroke-dasharray="36.6667 13.75 4.58333 13.75 4.58333 13.75" fill="none" fill-rule="evenodd" transform="matrix(-1 0 0 1 1408.81 1458.5)"/><path d="M1523.5 1306.5 1523.69 1974.52" stroke="#000000" stroke-width="4.58333" stroke-miterlimit="8" stroke-dasharray="36.6667 13.75 4.58333 13.75 4.58333 13.75" fill="none" fill-rule="evenodd"/><path d="M1433.78 1924.84 1500.09 1924.84 1500.09 1935.16 1433.78 1935.16ZM1438.94 1945.47 1408 1930 1438.94 1914.53ZM1494.93 1914.53 1525.87 1930 1494.93 1945.47Z"/><text font-family="Arial,Arial_MSFontService,sans-serif" font-weight="400" font-size="64" transform="matrix(1 0 0 1 1413.92 2049)">Clock period</text></g></svg>