<svg width="2509" height="1520" xmlns="http://www.w3.org/2000/svg" xmlns:xlink="http://www.w3.org/1999/xlink" xml:space="preserve" overflow="hidden"><g transform="translate(-896 -583)"><path d="M1150 1801 3350 1801 3350 622 1150 622Z" fill="#FFFFFF" fill-rule="evenodd"/><path d="M1150 1801 1150 622" stroke="#262626" stroke-width="2.29167" stroke-linejoin="round" stroke-miterlimit="10" stroke-opacity="0.14902" fill="none" fill-rule="evenodd"/><path d="M1394 1801 1394 622" stroke="#262626" stroke-width="2.29167" stroke-linejoin="round" stroke-miterlimit="10" stroke-opacity="0.14902" fill="none" fill-rule="evenodd"/><path d="M1639 1801 1639 622" stroke="#262626" stroke-width="2.29167" stroke-linejoin="round" stroke-miterlimit="10" stroke-opacity="0.14902" fill="none" fill-rule="evenodd"/><path d="M1883 1801 1883 622" stroke="#262626" stroke-width="2.29167" stroke-linejoin="round" stroke-miterlimit="10" stroke-opacity="0.14902" fill="none" fill-rule="evenodd"/><path d="M2128 1801 2128 622" stroke="#262626" stroke-width="2.29167" stroke-linejoin="round" stroke-miterlimit="10" stroke-opacity="0.14902" fill="none" fill-rule="evenodd"/><path d="M2372 1801 2372 622" stroke="#262626" stroke-width="2.29167" stroke-linejoin="round" stroke-miterlimit="10" stroke-opacity="0.14902" fill="none" fill-rule="evenodd"/><path d="M2617 1801 2617 622" stroke="#262626" stroke-width="2.29167" stroke-linejoin="round" stroke-miterlimit="10" stroke-opacity="0.14902" fill="none" fill-rule="evenodd"/><path d="M2861 1801 2861 622" stroke="#262626" stroke-width="2.29167" stroke-linejoin="round" stroke-miterlimit="10" stroke-opacity="0.14902" fill="none" fill-rule="evenodd"/><path d="M3105 1801 3105 622" stroke="#262626" stroke-width="2.29167" stroke-linejoin="round" stroke-miterlimit="10" stroke-opacity="0.14902" fill="none" fill-rule="evenodd"/><path d="M3350 1801 3350 622" stroke="#262626" stroke-width="2.29167" stroke-linejoin="round" stroke-miterlimit="10" stroke-opacity="0.14902" fill="none" fill-rule="evenodd"/><path d="M3350 1763 1150 1763" stroke="#262626" stroke-width="2.29167" stroke-linejoin="round" stroke-miterlimit="10" stroke-opacity="0.14902" fill="none" fill-rule="evenodd"/><path d="M3350 1573 1150 1573" stroke="#262626" stroke-width="2.29167" stroke-linejoin="round" stroke-miterlimit="10" stroke-opacity="0.14902" fill="none" fill-rule="evenodd"/><path d="M3350 1383 1150 1383" stroke="#262626" stroke-width="2.29167" stroke-linejoin="round" stroke-miterlimit="10" stroke-opacity="0.14902" fill="none" fill-rule="evenodd"/><path d="M3350 1193 1150 1193" stroke="#262626" stroke-width="2.29167" stroke-linejoin="round" stroke-miterlimit="10" stroke-opacity="0.14902" fill="none" fill-rule="evenodd"/><path d="M3350 1003 1150 1003" stroke="#262626" stroke-width="2.29167" stroke-linejoin="round" stroke-miterlimit="10" stroke-opacity="0.14902" fill="none" fill-rule="evenodd"/><path d="M3350 812 1150 812" stroke="#262626" stroke-width="2.29167" stroke-linejoin="round" stroke-miterlimit="10" stroke-opacity="0.14902" fill="none" fill-rule="evenodd"/><path d="M3350 622 1150 622" stroke="#262626" stroke-width="2.29167" stroke-linejoin="round" stroke-miterlimit="10" stroke-opacity="0.14902" fill="none" fill-rule="evenodd"/><path d="M1150 1801 3350 1801" stroke="#262626" stroke-width="2.29167" stroke-linecap="square" stroke-linejoin="round" stroke-miterlimit="10" fill="none" fill-rule="evenodd"/><path d="M1150 622 3350 622" stroke="#262626" stroke-width="2.29167" stroke-linecap="square" stroke-linejoin="round" stroke-miterlimit="10" fill="none" fill-rule="evenodd"/><path d="M1150 1801 1150 1779" stroke="#262626" stroke-width="2.29167" stroke-linecap="square" stroke-linejoin="round" stroke-miterlimit="10" fill="none" fill-rule="evenodd"/><path d="M1394 1801 1394 1779" stroke="#262626" stroke-width="2.29167" stroke-linecap="square" stroke-linejoin="round" stroke-miterlimit="10" fill="none" fill-rule="evenodd"/><path d="M1639 1801 1639 1779" stroke="#262626" stroke-width="2.29167" stroke-linecap="square" stroke-linejoin="round" stroke-miterlimit="10" fill="none" fill-rule="evenodd"/><path d="M1883 1801 1883 1779" stroke="#262626" stroke-width="2.29167" stroke-linecap="square" stroke-linejoin="round" stroke-miterlimit="10" fill="none" fill-rule="evenodd"/><path d="M2128 1801 2128 1779" stroke="#262626" stroke-width="2.29167" stroke-linecap="square" stroke-linejoin="round" stroke-miterlimit="10" fill="none" fill-rule="evenodd"/><path d="M2372 1801 2372 1779" stroke="#262626" stroke-width="2.29167" stroke-linecap="square" stroke-linejoin="round" stroke-miterlimit="10" fill="none" fill-rule="evenodd"/><path d="M2617 1801 2617 1779" stroke="#262626" stroke-width="2.29167" stroke-linecap="square" stroke-linejoin="round" stroke-miterlimit="10" fill="none" fill-rule="evenodd"/><path d="M2861 1801 2861 1779" stroke="#262626" stroke-width="2.29167" stroke-linecap="square" stroke-linejoin="round" stroke-miterlimit="10" fill="none" fill-rule="evenodd"/><path d="M3105 1801 3105 1779" stroke="#262626" stroke-width="2.29167" stroke-linecap="square" stroke-linejoin="round" stroke-miterlimit="10" fill="none" fill-rule="evenodd"/><path d="M3350 1801 3350 1779" stroke="#262626" stroke-width="2.29167" stroke-linecap="square" stroke-linejoin="round" stroke-miterlimit="10" fill="none" fill-rule="evenodd"/><path d="M1150 622 1150 644" stroke="#262626" stroke-width="2.29167" stroke-linecap="square" stroke-linejoin="round" stroke-miterlimit="10" fill="none" fill-rule="evenodd"/><path d="M1394 622 1394 644" stroke="#262626" stroke-width="2.29167" stroke-linecap="square" stroke-linejoin="round" stroke-miterlimit="10" fill="none" fill-rule="evenodd"/><path d="M1639 622 1639 644" stroke="#262626" stroke-width="2.29167" stroke-linecap="square" stroke-linejoin="round" stroke-miterlimit="10" fill="none" fill-rule="evenodd"/><path d="M1883 622 1883 644" stroke="#262626" stroke-width="2.29167" stroke-linecap="square" stroke-linejoin="round" stroke-miterlimit="10" fill="none" fill-rule="evenodd"/><path d="M2128 622 2128 644" stroke="#262626" stroke-width="2.29167" stroke-linecap="square" stroke-linejoin="round" stroke-miterlimit="10" fill="none" fill-rule="evenodd"/><path d="M2372 622 2372 644" stroke="#262626" stroke-width="2.29167" stroke-linecap="square" stroke-linejoin="round" stroke-miterlimit="10" fill="none" fill-rule="evenodd"/><path d="M2617 622 2617 644" stroke="#262626" stroke-width="2.29167" stroke-linecap="square" stroke-linejoin="round" stroke-miterlimit="10" fill="none" fill-rule="evenodd"/><path d="M2861 622 2861 644" stroke="#262626" stroke-width="2.29167" stroke-linecap="square" stroke-linejoin="round" stroke-miterlimit="10" fill="none" fill-rule="evenodd"/><path d="M3105 622 3105 644" stroke="#262626" stroke-width="2.29167" stroke-linecap="square" stroke-linejoin="round" stroke-miterlimit="10" fill="none" fill-rule="evenodd"/><path d="M3350 622 3350 644" stroke="#262626" stroke-width="2.29167" stroke-linecap="square" stroke-linejoin="round" stroke-miterlimit="10" fill="none" fill-rule="evenodd"/><text fill="#262626" font-family="Arial,Arial_MSFontService,sans-serif" font-weight="400" font-size="45" transform="matrix(1 0 0 1 1135.81 1868)">0</text><text fill="#262626" font-family="Arial,Arial_MSFontService,sans-serif" font-weight="400" font-size="45" transform="matrix(1 0 0 1 1380.25 1868)">2</text><text fill="#262626" font-family="Arial,Arial_MSFontService,sans-serif" font-weight="400" font-size="45" transform="matrix(1 0 0 1 1624.69 1868)">4</text><text fill="#262626" font-family="Arial,Arial_MSFontService,sans-serif" font-weight="400" font-size="45" transform="matrix(1 0 0 1 1869.14 1868)">6</text><text fill="#262626" font-family="Arial,Arial_MSFontService,sans-serif" font-weight="400" font-size="45" transform="matrix(1 0 0 1 2113.59 1868)">8</text><text fill="#262626" font-family="Arial,Arial_MSFontService,sans-serif" font-weight="400" font-size="45" transform="matrix(1 0 0 1 2345.71 1868)">10</text><text fill="#262626" font-family="Arial,Arial_MSFontService,sans-serif" font-weight="400" font-size="45" transform="matrix(1 0 0 1 2590.16 1868)">12</text><text fill="#262626" font-family="Arial,Arial_MSFontService,sans-serif" font-weight="400" font-size="45" transform="matrix(1 0 0 1 2834.6 1868)">14</text><text fill="#262626" font-family="Arial,Arial_MSFontService,sans-serif" font-weight="400" font-size="45" transform="matrix(1 0 0 1 3079.05 1868)">16</text><text fill="#262626" font-family="Arial,Arial_MSFontService,sans-serif" font-weight="400" font-size="45" transform="matrix(1 0 0 1 3323.49 1868)">18</text><text fill="#262626" font-family="Arial,Arial_MSFontService,sans-serif" font-weight="400" font-size="110" transform="matrix(1 0 0 1 2102.59 1984)">Time</text><path d="M1150 1801 1150 622" stroke="#262626" stroke-width="2.29167" stroke-linecap="square" stroke-linejoin="round" stroke-miterlimit="10" fill="none" fill-rule="evenodd"/><path d="M3350 1801 3350 622" stroke="#262626" stroke-width="2.29167" stroke-linecap="square" stroke-linejoin="round" stroke-miterlimit="10" fill="none" fill-rule="evenodd"/><path d="M1150 1763 1172 1763" stroke="#262626" stroke-width="2.29167" stroke-linecap="square" stroke-linejoin="round" stroke-miterlimit="10" fill="none" fill-rule="evenodd"/><path d="M1150 1573 1172 1573" stroke="#262626" stroke-width="2.29167" stroke-linecap="square" stroke-linejoin="round" stroke-miterlimit="10" fill="none" fill-rule="evenodd"/><path d="M1150 1383 1172 1383" stroke="#262626" stroke-width="2.29167" stroke-linecap="square" stroke-linejoin="round" stroke-miterlimit="10" fill="none" fill-rule="evenodd"/><path d="M1150 1193 1172 1193" stroke="#262626" stroke-width="2.29167" stroke-linecap="square" stroke-linejoin="round" stroke-miterlimit="10" fill="none" fill-rule="evenodd"/><path d="M1150 1003 1172 1003" stroke="#262626" stroke-width="2.29167" stroke-linecap="square" stroke-linejoin="round" stroke-miterlimit="10" fill="none" fill-rule="evenodd"/><path d="M1150 812 1172 812" stroke="#262626" stroke-width="2.29167" stroke-linecap="square" stroke-linejoin="round" stroke-miterlimit="10" fill="none" fill-rule="evenodd"/><path d="M1150 622 1172 622" stroke="#262626" stroke-width="2.29167" stroke-linecap="square" stroke-linejoin="round" stroke-miterlimit="10" fill="none" fill-rule="evenodd"/><path d="M3350 1763 3328 1763" stroke="#262626" stroke-width="2.29167" stroke-linecap="square" stroke-linejoin="round" stroke-miterlimit="10" fill="none" fill-rule="evenodd"/><path d="M3350 1573 3328 1573" stroke="#262626" stroke-width="2.29167" stroke-linecap="square" stroke-linejoin="round" stroke-miterlimit="10" fill="none" fill-rule="evenodd"/><path d="M3350 1383 3328 1383" stroke="#262626" stroke-width="2.29167" stroke-linecap="square" stroke-linejoin="round" stroke-miterlimit="10" fill="none" fill-rule="evenodd"/><path d="M3350 1193 3328 1193" stroke="#262626" stroke-width="2.29167" stroke-linecap="square" stroke-linejoin="round" stroke-miterlimit="10" fill="none" fill-rule="evenodd"/><path d="M3350 1003 3328 1003" stroke="#262626" stroke-width="2.29167" stroke-linecap="square" stroke-linejoin="round" stroke-miterlimit="10" fill="none" fill-rule="evenodd"/><path d="M3350 812 3328 812" stroke="#262626" stroke-width="2.29167" stroke-linecap="square" stroke-linejoin="round" stroke-miterlimit="10" fill="none" fill-rule="evenodd"/><path d="M3350 622 3328 622" stroke="#262626" stroke-width="2.29167" stroke-linecap="square" stroke-linejoin="round" stroke-miterlimit="10" fill="none" fill-rule="evenodd"/><text fill="#262626" font-family="Arial,Arial_MSFontService,sans-serif" font-weight="400" font-size="45" transform="matrix(1 0 0 1 1103.72 1783)">0</text><text fill="#262626" font-family="Arial,Arial_MSFontService,sans-serif" font-weight="400" font-size="45" transform="matrix(1 0 0 1 1103.72 1593)">5</text><text fill="#262626" font-family="Arial,Arial_MSFontService,sans-serif" font-weight="400" font-size="45" transform="matrix(1 0 0 1 1079.38 1402)">10</text><text fill="#262626" font-family="Arial,Arial_MSFontService,sans-serif" font-weight="400" font-size="45" transform="matrix(1 0 0 1 1079.38 1212)">15</text><text fill="#262626" font-family="Arial,Arial_MSFontService,sans-serif" font-weight="400" font-size="45" transform="matrix(1 0 0 1 1079.38 1022)">20</text><text fill="#262626" font-family="Arial,Arial_MSFontService,sans-serif" font-weight="400" font-size="45" transform="matrix(1 0 0 1 1079.38 832)">25</text><text fill="#262626" font-family="Arial,Arial_MSFontService,sans-serif" font-weight="400" font-size="45" transform="matrix(1 0 0 1 1079.38 642)">30</text><text fill="#262626" font-family="Arial,Arial_MSFontService,sans-serif" font-weight="400" font-size="110" transform="matrix(-1.83697e-16 -1 1 -1.83697e-16 1036.42 1406)">Phase</text><path d="M1272.5 1611.33 1394.75 1459.17 1517 1307 1639.25 1154.83 1761.5 1002.67 1883.75 850.5 2006 1763.5 2128.25 1611.33 2250.5 1459.17 2372.75 1307 2495 1154.83 2617.25 1002.67 2739.5 850.5 2861.75 1763.5 2984 1611.33 3106.25 1459.17 3228.5 1307" stroke="#0072BD" stroke-width="6.875" stroke-linejoin="round" stroke-miterlimit="10" fill="none" fill-rule="evenodd"/><path d="M1272.05 1600.91C1277.68 1600.91 1282.25 1605.48 1282.25 1611.11L1282.25 1611.11C1282.25 1616.75 1277.68 1621.31 1272.05 1621.31 1266.42 1621.31 1261.85 1616.75 1261.85 1611.11 1261.85 1605.48 1266.42 1600.91 1272.05 1600.91ZM1272.05 1594.11C1262.66 1594.11 1255.05 1601.72 1255.05 1611.11 1255.05 1620.5 1262.66 1628.11 1272.05 1628.11 1281.44 1628.11 1289.05 1620.5 1289.05 1611.11L1289.05 1611.11C1289.05 1601.72 1281.44 1594.11 1272.05 1594.11Z" fill="#0072BD" fill-rule="evenodd"/><path d="M1394.06 1448.9C1399.7 1448.9 1404.26 1453.46 1404.26 1459.1L1404.26 1459.1C1404.26 1464.73 1399.7 1469.3 1394.06 1469.3 1388.43 1469.3 1383.86 1464.73 1383.86 1459.1 1383.86 1453.46 1388.43 1448.9 1394.06 1448.9ZM1394.06 1442.1C1384.68 1442.1 1377.06 1449.71 1377.06 1459.1 1377.06 1468.49 1384.68 1476.1 1394.06 1476.1 1403.45 1476.1 1411.06 1468.49 1411.06 1459.1L1411.06 1459.1C1411.06 1449.71 1403.45 1442.1 1394.06 1442.1Z" fill="#0072BD" fill-rule="evenodd"/><path d="M1516.58 1296.88C1522.38 1296.88 1527.08 1301.45 1527.08 1307.08L1527.08 1307.08C1527.08 1312.72 1522.38 1317.28 1516.58 1317.28 1510.78 1317.28 1506.08 1312.72 1506.08 1307.08 1506.08 1301.45 1510.78 1296.88 1516.58 1296.88ZM1516.58 1290.08C1506.91 1290.08 1499.08 1297.69 1499.08 1307.08 1499.08 1316.47 1506.91 1324.08 1516.58 1324.08 1526.24 1324.08 1534.08 1316.47 1534.08 1307.08L1534.08 1307.08C1534.08 1297.69 1526.24 1290.08 1516.58 1290.08Z" fill="#0072BD" fill-rule="evenodd"/><path d="M1639.09 1144.07C1644.72 1144.07 1649.29 1148.77 1649.29 1154.57L1649.29 1154.57C1649.29 1160.37 1644.72 1165.07 1639.09 1165.07 1633.46 1165.07 1628.89 1160.37 1628.89 1154.57 1628.89 1148.77 1633.46 1144.07 1639.09 1144.07ZM1639.09 1137.07C1629.7 1137.07 1622.09 1144.9 1622.09 1154.57 1622.09 1164.23 1629.7 1172.07 1639.09 1172.07 1648.48 1172.07 1656.09 1164.23 1656.09 1154.57L1656.09 1154.57C1656.09 1144.9 1648.48 1137.07 1639.09 1137.07Z" fill="#0072BD" fill-rule="evenodd"/><path d="M1761.1 992.052C1766.74 992.052 1771.3 996.753 1771.3 1002.55L1771.3 1002.55C1771.3 1008.35 1766.74 1013.05 1761.1 1013.05 1755.47 1013.05 1750.9 1008.35 1750.9 1002.55 1750.9 996.753 1755.47 992.052 1761.1 992.052ZM1761.1 985.052C1751.71 985.052 1744.1 992.887 1744.1 1002.55 1744.1 1012.22 1751.71 1020.05 1761.1 1020.05 1770.49 1020.05 1778.1 1012.22 1778.1 1002.55L1778.1 1002.55C1778.1 992.887 1770.49 985.052 1761.1 985.052Z" fill="#0072BD" fill-rule="evenodd"/><path d="M1883.11 840.036C1888.75 840.036 1893.31 844.736 1893.31 850.536L1893.31 850.536C1893.31 856.335 1888.75 861.036 1883.11 861.036 1877.48 861.036 1872.91 856.335 1872.91 850.536 1872.91 844.736 1877.48 840.036 1883.11 840.036ZM1883.11 833.036C1873.73 833.036 1866.11 840.871 1866.11 850.536 1866.11 860.201 1873.73 868.036 1883.11 868.036 1892.5 868.036 1900.11 860.201 1900.11 850.536L1900.11 850.536C1900.11 840.871 1892.5 833.036 1883.11 833.036Z" fill="#0072BD" fill-rule="evenodd"/><path d="M2005.63 1752.93C2011.43 1752.93 2016.13 1757.5 2016.13 1763.13L2016.13 1763.13C2016.13 1768.76 2011.43 1773.33 2005.63 1773.33 1999.83 1773.33 1995.13 1768.76 1995.13 1763.13 1995.13 1757.5 1999.83 1752.93 2005.63 1752.93ZM2005.63 1746.13C1995.97 1746.13 1988.13 1753.74 1988.13 1763.13 1988.13 1772.52 1995.97 1780.13 2005.63 1780.13 2015.3 1780.13 2023.13 1772.52 2023.13 1763.13L2023.13 1763.13C2023.13 1753.74 2015.3 1746.13 2005.63 1746.13Z" fill="#0072BD" fill-rule="evenodd"/><path d="M2127.64 1600.91C2133.44 1600.91 2138.14 1605.48 2138.14 1611.11L2138.14 1611.11C2138.14 1616.75 2133.44 1621.31 2127.64 1621.31 2121.84 1621.31 2117.14 1616.75 2117.14 1611.11 2117.14 1605.48 2121.84 1600.91 2127.64 1600.91ZM2127.64 1594.11C2117.98 1594.11 2110.14 1601.72 2110.14 1611.11 2110.14 1620.5 2117.98 1628.11 2127.64 1628.11 2137.31 1628.11 2145.14 1620.5 2145.14 1611.11L2145.14 1611.11C2145.14 1601.72 2137.31 1594.11 2127.64 1594.11Z" fill="#0072BD" fill-rule="evenodd"/><path d="M2250.15 1448.9C2255.79 1448.9 2260.35 1453.46 2260.35 1459.1L2260.35 1459.1C2260.35 1464.73 2255.79 1469.3 2250.15 1469.3 2244.52 1469.3 2239.95 1464.73 2239.95 1459.1 2239.95 1453.46 2244.52 1448.9 2250.15 1448.9ZM2250.15 1442.1C2240.76 1442.1 2233.15 1449.71 2233.15 1459.1 2233.15 1468.49 2240.76 1476.1 2250.15 1476.1 2259.54 1476.1 2267.15 1468.49 2267.15 1459.1L2267.15 1459.1C2267.15 1449.71 2259.54 1442.1 2250.15 1442.1Z" fill="#0072BD" fill-rule="evenodd"/><path d="M2372.17 1296.88C2377.8 1296.88 2382.37 1301.45 2382.37 1307.08L2382.37 1307.08C2382.37 1312.72 2377.8 1317.28 2372.17 1317.28 2366.53 1317.28 2361.97 1312.72 2361.97 1307.08 2361.97 1301.45 2366.53 1296.88 2372.17 1296.88ZM2372.17 1290.08C2362.78 1290.08 2355.17 1297.69 2355.17 1307.08 2355.17 1316.47 2362.78 1324.08 2372.17 1324.08 2381.55 1324.08 2389.17 1316.47 2389.17 1307.08L2389.17 1307.08C2389.17 1297.69 2381.55 1290.08 2372.17 1290.08Z" fill="#0072BD" fill-rule="evenodd"/><path d="M2494.18 1144.07C2499.81 1144.07 2504.38 1148.77 2504.38 1154.57L2504.38 1154.57C2504.38 1160.37 2499.81 1165.07 2494.18 1165.07 2488.54 1165.07 2483.98 1160.37 2483.98 1154.57 2483.98 1148.77 2488.54 1144.07 2494.18 1144.07ZM2494.18 1137.07C2484.79 1137.07 2477.18 1144.9 2477.18 1154.57 2477.18 1164.23 2484.79 1172.07 2494.18 1172.07 2503.57 1172.07 2511.18 1164.23 2511.18 1154.57L2511.18 1154.57C2511.18 1144.9 2503.57 1137.07 2494.18 1137.07Z" fill="#0072BD" fill-rule="evenodd"/><path d="M2616.7 992.052C2622.5 992.052 2627.2 996.753 2627.2 1002.55L2627.2 1002.55C2627.2 1008.35 2622.5 1013.05 2616.7 1013.05 2610.9 1013.05 2606.2 1008.35 2606.2 1002.55 2606.2 996.753 2610.9 992.052 2616.7 992.052ZM2616.7 985.052C2607.03 985.052 2599.2 992.887 2599.2 1002.55 2599.2 1012.22 2607.03 1020.05 2616.7 1020.05 2626.36 1020.05 2634.2 1012.22 2634.2 1002.55L2634.2 1002.55C2634.2 992.887 2626.36 985.052 2616.7 985.052Z" fill="#0072BD" fill-rule="evenodd"/><path d="M2739.2 840.036C2744.84 840.036 2749.4 844.736 2749.4 850.536L2749.4 850.536C2749.4 856.335 2744.84 861.036 2739.2 861.036 2733.57 861.036 2729 856.335 2729 850.536 2729 844.736 2733.57 840.036 2739.2 840.036ZM2739.2 833.036C2729.81 833.036 2722.2 840.871 2722.2 850.536 2722.2 860.201 2729.81 868.036 2739.2 868.036 2748.59 868.036 2756.2 860.201 2756.2 850.536L2756.2 850.536C2756.2 840.871 2748.59 833.036 2739.2 833.036Z" fill="#0072BD" fill-rule="evenodd"/><path d="M2861.22 1752.93C2866.85 1752.93 2871.42 1757.5 2871.42 1763.13L2871.42 1763.13C2871.42 1768.76 2866.85 1773.33 2861.22 1773.33 2855.58 1773.33 2851.02 1768.76 2851.02 1763.13 2851.02 1757.5 2855.58 1752.93 2861.22 1752.93ZM2861.22 1746.13C2851.83 1746.13 2844.22 1753.74 2844.22 1763.13 2844.22 1772.52 2851.83 1780.13 2861.22 1780.13 2870.6 1780.13 2878.22 1772.52 2878.22 1763.13L2878.22 1763.13C2878.22 1753.74 2870.6 1746.13 2861.22 1746.13Z" fill="#0072BD" fill-rule="evenodd"/><path d="M2983.23 1600.91C2988.86 1600.91 2993.43 1605.48 2993.43 1611.11L2993.43 1611.11C2993.43 1616.75 2988.86 1621.31 2983.23 1621.31 2977.6 1621.31 2973.03 1616.75 2973.03 1611.11 2973.03 1605.48 2977.6 1600.91 2983.23 1600.91ZM2983.23 1594.11C2973.84 1594.11 2966.23 1601.72 2966.23 1611.11 2966.23 1620.5 2973.84 1628.11 2983.23 1628.11 2992.62 1628.11 3000.23 1620.5 3000.23 1611.11L3000.23 1611.11C3000.23 1601.72 2992.62 1594.11 2983.23 1594.11Z" fill="#0072BD" fill-rule="evenodd"/><path d="M3105.75 1448.9C3111.55 1448.9 3116.25 1453.46 3116.25 1459.1L3116.25 1459.1C3116.25 1464.73 3111.55 1469.3 3105.75 1469.3 3099.95 1469.3 3095.25 1464.73 3095.25 1459.1 3095.25 1453.46 3099.95 1448.9 3105.75 1448.9ZM3105.75 1442.1C3096.08 1442.1 3088.25 1449.71 3088.25 1459.1 3088.25 1468.49 3096.08 1476.1 3105.75 1476.1 3115.41 1476.1 3123.25 1468.49 3123.25 1459.1L3123.25 1459.1C3123.25 1449.71 3115.41 1442.1 3105.75 1442.1Z" fill="#0072BD" fill-rule="evenodd"/><path d="M3227.76 1296.88C3233.56 1296.88 3238.26 1301.45 3238.26 1307.08L3238.26 1307.08C3238.26 1312.72 3233.56 1317.28 3227.76 1317.28 3221.96 1317.28 3217.26 1312.72 3217.26 1307.08 3217.26 1301.45 3221.96 1296.88 3227.76 1296.88ZM3227.76 1290.08C3218.1 1290.08 3210.26 1297.69 3210.26 1307.08 3210.26 1316.47 3218.1 1324.08 3227.76 1324.08 3237.43 1324.08 3245.26 1316.47 3245.26 1307.08L3245.26 1307.08C3245.26 1297.69 3237.43 1290.08 3227.76 1290.08Z" fill="#0072BD" fill-rule="evenodd"/><path d="M1272.5 812.5 1394.75 812.5 1517 812.5 1639.25 812.5 1761.5 812.5 1883.75 812.5 2006 812.5 2128.25 812.5 2250.5 812.5 2372.75 812.5 2495 812.5 2617.25 812.5 2739.5 812.5 2861.75 812.5 2984 812.5 3106.25 812.5 3228.5 812.5" stroke="#D95319" stroke-width="6.875" stroke-linejoin="round" stroke-miterlimit="10" fill="none" fill-rule="evenodd"/><path d="M3312 784 3312 660 2848 660 2848 784Z" fill="#FFFFFF" fill-rule="evenodd"/><text font-family="Arial,Arial_MSFontService,sans-serif" font-weight="400" font-size="41" transform="matrix(1 0 0 1 3011.18 713)">Phase </text><text font-family="Arial,Arial_MSFontService,sans-serif" font-weight="400" font-size="41" transform="matrix(1 0 0 1 3139.52 713)">f</text><text font-family="Arial,Arial_MSFontService,sans-serif" font-weight="400" font-size="41" transform="matrix(1 0 0 1 3150.98 713)">unction</text><path d="M2862.5 694.5 2999.5 694.5" stroke="#0072BD" stroke-width="6.875" stroke-linejoin="round" stroke-miterlimit="10" fill="none" fill-rule="evenodd"/><path d="M2930.73 683.818C2936.53 683.818 2941.23 688.385 2941.23 694.018L2941.23 694.018C2941.23 699.652 2936.53 704.218 2930.73 704.218 2924.93 704.218 2920.23 699.652 2920.23 694.018 2920.23 688.385 2924.93 683.818 2930.73 683.818ZM2930.73 677.018C2921.07 677.018 2913.23 684.63 2913.23 694.018 2913.23 703.407 2921.07 711.018 2930.73 711.018 2940.39 711.018 2948.23 703.407 2948.23 694.018L2948.23 694.018C2948.23 684.63 2940.39 677.018 2930.73 677.018Z" fill="#0072BD" fill-rule="evenodd"/><text font-family="Arial,Arial_MSFontService,sans-serif" font-weight="400" font-size="41" transform="matrix(1 0 0 1 3008.96 769)">Overflow</text><path d="M2862.5 750.5 2999.5 750.5" stroke="#D95319" stroke-width="6.875" stroke-linejoin="round" stroke-miterlimit="10" fill="none" fill-rule="evenodd"/><path d="M2848 784 2848 660 3312 660 3312 784Z" stroke="#262626" stroke-width="2.29167" stroke-miterlimit="8" fill="none" fill-rule="evenodd"/><path d="M1518.5 1306.5 1521.24 1975.01" stroke="#000000" stroke-width="4.58333" stroke-miterlimit="8" stroke-dasharray="36.6667 13.75 4.58333 13.75 4.58333 13.75" fill="none" fill-rule="evenodd"/><path d="M1639.5 1154.5 1639.81 1974.88" stroke="#000000" stroke-width="4.58333" stroke-miterlimit="8" stroke-dasharray="36.6667 13.75 4.58333 13.75 4.58333 13.75" fill="none" fill-rule="evenodd"/><path d="M1546.78 1924.84 1613.09 1924.84 1613.09 1935.16 1546.78 1935.16ZM1551.94 1945.47 1521 1930 1551.94 1914.53ZM1607.93 1914.53 1638.87 1930 1607.93 1945.47Z"/><text font-family="Arial,Arial_MSFontService,sans-serif" font-weight="400" font-size="64" transform="matrix(1 0 0 1 1526.67 2049)">Clock period</text></g></svg>