<svg width="3754" height="2261" xmlns="http://www.w3.org/2000/svg" xmlns:xlink="http://www.w3.org/1999/xlink" xml:space="preserve" overflow="hidden"><g transform="translate(-305 -175)"><path d="M1263 1860.33C1263 1808.23 1305.23 1766 1357.33 1766L3038.67 1766C3090.76 1766 3133 1808.23 3133 1860.33L3133 2237.67C3133 2289.77 3090.76 2332 3038.67 2332L1357.33 2332C1305.23 2332 1263 2289.77 1263 2237.67Z" stroke="#000000" stroke-width="10.3125" stroke-linejoin="round" stroke-miterlimit="10" fill="none" fill-rule="evenodd"/><text font-family="Arial,Arial_MSFontService,sans-serif" font-weight="400" font-size="110" transform="matrix(1 0 0 1 2442.31 2263)">Phase select</text><rect x="1265" y="622" width="187" height="187" stroke="#000000" stroke-width="10.3125" stroke-miterlimit="8" fill="none"/><text fill="#0D0D0D" font-family="Calibri,Calibri_MSFontService,sans-serif" font-weight="400" font-size="83" transform="matrix(1 0 0 1 1337.59 742)">1</text><rect x="1452" y="622" width="187" height="187" stroke="#000000" stroke-width="10.3125" stroke-miterlimit="8" fill="none"/><text fill="#0D0D0D" font-family="Calibri,Calibri_MSFontService,sans-serif" font-weight="400" font-size="83" transform="matrix(1 0 0 1 1524.59 742)">2</text><rect x="1639" y="622" width="187" height="187" stroke="#000000" stroke-width="10.3125" stroke-miterlimit="8" fill="none"/><text fill="#0D0D0D" font-family="Calibri,Calibri_MSFontService,sans-serif" font-weight="400" font-size="83" transform="matrix(1 0 0 1 1711.59 742)">3</text><rect x="1826" y="622" width="187" height="187" stroke="#000000" stroke-width="10.3125" stroke-miterlimit="8" fill="none"/><text fill="#0D0D0D" font-family="Calibri,Calibri_MSFontService,sans-serif" font-weight="400" font-size="83" transform="matrix(1 0 0 1 1898.59 742)">4</text><rect x="2013" y="622" width="187" height="187" stroke="#000000" stroke-width="10.3125" stroke-miterlimit="8" fill="none"/><text fill="#0D0D0D" font-family="Calibri,Calibri_MSFontService,sans-serif" font-weight="400" font-size="83" transform="matrix(1 0 0 1 2085.59 742)">5</text><rect x="2200" y="622" width="187" height="187" stroke="#000000" stroke-width="10.3125" stroke-miterlimit="8" fill="none"/><text fill="#0D0D0D" font-family="Calibri,Calibri_MSFontService,sans-serif" font-weight="400" font-size="83" transform="matrix(1 0 0 1 2272.59 742)">6</text><rect x="2387" y="622" width="187" height="187" stroke="#000000" stroke-width="10.3125" stroke-miterlimit="8" fill="none"/><text fill="#0D0D0D" font-family="Calibri,Calibri_MSFontService,sans-serif" font-weight="400" font-size="83" transform="matrix(1 0 0 1 2459.59 742)">7</text><rect x="2574" y="622" width="187" height="187" stroke="#000000" stroke-width="10.3125" stroke-miterlimit="8" fill="none"/><text fill="#0D0D0D" font-family="Calibri,Calibri_MSFontService,sans-serif" font-weight="400" font-size="83" transform="matrix(1 0 0 1 2646.59 742)">8</text><rect x="2761" y="622" width="187" height="187" stroke="#000000" stroke-width="10.3125" stroke-miterlimit="8" fill="none"/><text fill="#0D0D0D" font-family="Calibri,Calibri_MSFontService,sans-serif" font-weight="400" font-size="83" transform="matrix(1 0 0 1 2833.59 742)">9</text><rect x="2948" y="622" width="187" height="187" stroke="#000000" stroke-width="10.3125" stroke-miterlimit="8" fill="none"/><text fill="#0D0D0D" font-family="Calibri,Calibri_MSFontService,sans-serif" font-weight="400" font-size="83" transform="matrix(1 0 0 1 2999.68 742)">10</text><rect x="1263" y="1394" width="187" height="187" stroke="#000000" stroke-width="10.3125" stroke-miterlimit="8" fill="none"/><text fill="#0D0D0D" font-family="Calibri,Calibri_MSFontService,sans-serif" font-weight="400" font-size="83" transform="matrix(1 0 0 1 1335.94 1515)">1</text><rect x="1450" y="1394" width="187" height="187" stroke="#000000" stroke-width="10.3125" stroke-miterlimit="8" fill="none"/><text fill="#0D0D0D" font-family="Calibri,Calibri_MSFontService,sans-serif" font-weight="400" font-size="83" transform="matrix(1 0 0 1 1522.94 1515)">2</text><rect x="1637" y="1394" width="187" height="187" stroke="#000000" stroke-width="10.3125" stroke-miterlimit="8" fill="none"/><text fill="#0D0D0D" font-family="Calibri,Calibri_MSFontService,sans-serif" font-weight="400" font-size="83" transform="matrix(1 0 0 1 1709.94 1515)">3</text><rect x="1824" y="1394" width="187" height="187" stroke="#000000" stroke-width="10.3125" stroke-miterlimit="8" fill="none"/><text fill="#0D0D0D" font-family="Calibri,Calibri_MSFontService,sans-serif" font-weight="400" font-size="83" transform="matrix(1 0 0 1 1896.94 1515)">4</text><rect x="2011" y="1394" width="187" height="187" stroke="#000000" stroke-width="10.3125" stroke-miterlimit="8" fill="none"/><text fill="#0D0D0D" font-family="Calibri,Calibri_MSFontService,sans-serif" font-weight="400" font-size="83" transform="matrix(1 0 0 1 2083.94 1515)">5</text><rect x="2198" y="1394" width="187" height="187" stroke="#000000" stroke-width="10.3125" stroke-miterlimit="8" fill="none"/><text fill="#0D0D0D" font-family="Calibri,Calibri_MSFontService,sans-serif" font-weight="400" font-size="83" transform="matrix(1 0 0 1 2270.94 1515)">6</text><rect x="2385" y="1394" width="187" height="187" stroke="#000000" stroke-width="10.3125" stroke-miterlimit="8" fill="none"/><text fill="#0D0D0D" font-family="Calibri,Calibri_MSFontService,sans-serif" font-weight="400" font-size="83" transform="matrix(1 0 0 1 2457.94 1515)">7</text><rect x="2572" y="1394" width="187" height="187" stroke="#000000" stroke-width="10.3125" stroke-miterlimit="8" fill="none"/><text fill="#0D0D0D" font-family="Calibri,Calibri_MSFontService,sans-serif" font-weight="400" font-size="83" transform="matrix(1 0 0 1 2644.94 1515)">8</text><rect x="2759" y="1394" width="187" height="187" stroke="#000000" stroke-width="10.3125" stroke-miterlimit="8" fill="none"/><text fill="#0D0D0D" font-family="Calibri,Calibri_MSFontService,sans-serif" font-weight="400" font-size="83" transform="matrix(1 0 0 1 2831.94 1515)">9</text><rect x="2946" y="1394" width="187" height="187" stroke="#000000" stroke-width="10.3125" stroke-miterlimit="8" fill="none"/><text fill="#0D0D0D" font-family="Calibri,Calibri_MSFontService,sans-serif" font-weight="400" font-size="83" transform="matrix(1 0 0 1 2998.03 1515)">10</text><path d="M1362.08 282.5 1362.08 579.502 1352.92 579.502 1352.92 282.5ZM1380.42 574.919 1357.5 620.752 1334.58 574.919Z"/><path d="M1628 283C1628 226.115 1674.11 180 1731 180 1787.89 180 1834 226.115 1834 283 1834 339.885 1787.89 386 1731 386 1674.11 386 1628 339.885 1628 283Z" stroke="#000000" stroke-width="10.3125" stroke-miterlimit="8" fill="none" fill-rule="evenodd"/><path d="M1731 180 1731 386.25" stroke="#000000" stroke-width="10.3125" stroke-miterlimit="8" fill="none" fill-rule="evenodd"/><path d="M1628 283 1834.25 283" stroke="#000000" stroke-width="10.3125" stroke-miterlimit="8" fill="none" fill-rule="evenodd"/><path d="M1728.29 621.654 1727.16 427.776 1736.32 427.722 1737.46 621.6ZM1708.85 432.466 1731.5 386.5 1754.68 432.198Z"/><path d="M1357 283 1628.15 283" stroke="#000000" stroke-width="10.3125" stroke-miterlimit="8" fill="none" fill-rule="evenodd"/><path d="M0.00652455-4.58333 1166.01-2.92348 1165.99 6.24318-0.00652455 4.58333ZM1161.45-21.2633 1207.25 1.71857 1161.38 24.57Z" transform="matrix(-1 0 0 1 3041.75 282.5)"/><path d="M3042 282 3042 621.971" stroke="#000000" stroke-width="10.3125" stroke-miterlimit="8" fill="none" fill-rule="evenodd"/><path d="M1362.08 1581.5 1362.08 1839.08 1352.92 1839.08 1352.92 1581.5ZM1380.42 1834.5 1357.5 1880.33 1334.58 1834.5Z"/><path d="M1549.08 1581.5 1549.08 1839.08 1539.92 1839.08 1539.92 1581.5ZM1567.42 1834.5 1544.5 1880.33 1521.58 1834.5Z"/><path d="M1735.08 1581.5 1735.08 1839.08 1725.92 1839.08 1725.92 1581.5ZM1753.42 1834.5 1730.5 1880.33 1707.58 1834.5Z"/><path d="M1922.08 1581.5 1922.08 1839.08 1912.92 1839.08 1912.92 1581.5ZM1940.42 1834.5 1917.5 1880.33 1894.58 1834.5Z"/><path d="M2109.08 1581.5 2109.08 1839.08 2099.92 1839.08 2099.92 1581.5ZM2127.42 1834.5 2104.5 1880.33 2081.58 1834.5Z"/><path d="M2296.08 1581.5 2296.08 1839.08 2286.92 1839.08 2286.92 1581.5ZM2314.42 1834.5 2291.5 1880.33 2268.58 1834.5Z"/><path d="M2483.08 1581.5 2483.08 1839.08 2473.92 1839.08 2473.92 1581.5ZM2501.42 1834.5 2478.5 1880.33 2455.58 1834.5Z"/><path d="M2669.08 1581.5 2669.08 1839.08 2659.92 1839.08 2659.92 1581.5ZM2687.42 1834.5 2664.5 1880.33 2641.58 1834.5Z"/><path d="M2856.08 1581.5 2856.08 1839.08 2846.92 1839.08 2846.92 1581.5ZM2874.42 1834.5 2851.5 1880.33 2828.58 1834.5Z"/><path d="M3043.08 1581.5 3043.08 1839.08 3033.92 1839.08 3033.92 1581.5ZM3061.42 1834.5 3038.5 1880.33 3015.58 1834.5Z"/><path d="M1922 2146.5C1922 2089.34 1968.11 2043 2025 2043 2081.89 2043 2128 2089.34 2128 2146.5 2128 2203.66 2081.89 2250 2025 2250 1968.11 2250 1922 2203.66 1922 2146.5Z" stroke="#000000" stroke-width="10.3125" stroke-miterlimit="8" fill="none" fill-rule="evenodd"/><path d="M2025 2043 2025 2249.25" stroke="#000000" stroke-width="10.3125" stroke-miterlimit="8" fill="none" fill-rule="evenodd"/><path d="M1922 2147 2128.25 2147" stroke="#000000" stroke-width="10.3125" stroke-miterlimit="8" fill="none" fill-rule="evenodd"/><path d="M1330 1908.5C1330 1892.76 1342.09 1880 1357 1880 1371.91 1880 1384 1892.76 1384 1908.5 1384 1924.24 1371.91 1937 1357 1937 1342.09 1937 1330 1924.24 1330 1908.5Z" stroke="#000000" stroke-width="10.3125" stroke-miterlimit="8" fill="none" fill-rule="evenodd"/><path d="M1524 1908.5C1524 1892.76 1536.31 1880 1551.5 1880 1566.69 1880 1579 1892.76 1579 1908.5 1579 1924.24 1566.69 1937 1551.5 1937 1536.31 1937 1524 1924.24 1524 1908.5Z" stroke="#000000" stroke-width="10.3125" stroke-miterlimit="8" fill="none" fill-rule="evenodd"/><path d="M1704 1908.5C1704 1892.76 1716.09 1880 1731 1880 1745.91 1880 1758 1892.76 1758 1908.5 1758 1924.24 1745.91 1937 1731 1937 1716.09 1937 1704 1924.24 1704 1908.5Z" stroke="#000000" stroke-width="10.3125" stroke-miterlimit="8" fill="none" fill-rule="evenodd"/><path d="M1890 1908.5C1890 1892.76 1902.31 1880 1917.5 1880 1932.69 1880 1945 1892.76 1945 1908.5 1945 1924.24 1932.69 1937 1917.5 1937 1902.31 1937 1890 1924.24 1890 1908.5Z" stroke="#000000" stroke-width="10.3125" stroke-miterlimit="8" fill="none" fill-rule="evenodd"/><path d="M2076 1908.5C2076 1892.76 2088.31 1880 2103.5 1880 2118.69 1880 2131 1892.76 2131 1908.5 2131 1924.24 2118.69 1937 2103.5 1937 2088.31 1937 2076 1924.24 2076 1908.5Z" stroke="#000000" stroke-width="10.3125" stroke-miterlimit="8" fill="none" fill-rule="evenodd"/><path d="M2263 1908.5C2263 1892.76 2275.31 1880 2290.5 1880 2305.69 1880 2318 1892.76 2318 1908.5 2318 1924.24 2305.69 1937 2290.5 1937 2275.31 1937 2263 1924.24 2263 1908.5Z" stroke="#000000" stroke-width="10.3125" stroke-miterlimit="8" fill="none" fill-rule="evenodd"/><path d="M2451 1908.5C2451 1892.76 2463.31 1880 2478.5 1880 2493.69 1880 2506 1892.76 2506 1908.5 2506 1924.24 2493.69 1937 2478.5 1937 2463.31 1937 2451 1924.24 2451 1908.5Z" stroke="#000000" stroke-width="10.3125" stroke-miterlimit="8" fill="none" fill-rule="evenodd"/><path d="M2638 1908.5C2638 1892.76 2650.31 1880 2665.5 1880 2680.69 1880 2693 1892.76 2693 1908.5 2693 1924.24 2680.69 1937 2665.5 1937 2650.31 1937 2638 1924.24 2638 1908.5Z" stroke="#000000" stroke-width="10.3125" stroke-miterlimit="8" fill="none" fill-rule="evenodd"/><path d="M2824 1908.5C2824 1892.76 2836.31 1880 2851.5 1880 2866.69 1880 2879 1892.76 2879 1908.5 2879 1924.24 2866.69 1937 2851.5 1937 2836.31 1937 2824 1924.24 2824 1908.5Z" stroke="#000000" stroke-width="10.3125" stroke-miterlimit="8" fill="none" fill-rule="evenodd"/><path d="M3011 1908.5C3011 1892.76 3023.09 1880 3038 1880 3052.91 1880 3065 1892.76 3065 1908.5 3065 1924.24 3052.91 1937 3038 1937 3023.09 1937 3011 1924.24 3011 1908.5Z" stroke="#000000" stroke-width="10.3125" stroke-miterlimit="8" fill="none" fill-rule="evenodd"/><path d="M1734.89 1934.42 1897.81 2113.58 1891.02 2119.75 1728.11 1940.58ZM1908.29 2097.86 1922.17 2147.19 1874.38 2128.69Z"/><path d="M2.35092-3.93448 317.873 184.595 313.171 192.464-2.35092 3.93448ZM323.342 166.506 350.932 209.688 299.833 205.851Z" transform="matrix(-1 0 0 1 2479.43 1937.5)"/><path d="M4.58333-1.32956e-06 4.58368 1202.84-4.58298 1202.84-4.58333 1.32956e-06ZM22.917 1198.26 0.000360892 1244.09-22.9163 1198.26Z" transform="matrix(1 0 0 -1 3417.5 2423.59)"/><path d="M3314 1076C3314 1019.11 3360.11 973 3417 973 3473.89 973 3520 1019.11 3520 1076 3520 1132.89 3473.89 1179 3417 1179 3360.11 1179 3314 1132.89 3314 1076Z" stroke="#000000" stroke-width="10.3125" stroke-miterlimit="8" fill="none" fill-rule="evenodd"/><path d="M3417 973 3417 1179.25" stroke="#000000" stroke-width="10.3125" stroke-miterlimit="8" fill="none" fill-rule="evenodd"/><path d="M3314 1076 3520.25 1076" stroke="#000000" stroke-width="10.3125" stroke-miterlimit="8" fill="none" fill-rule="evenodd"/><path d="M2025 2250 2025 2430.35" stroke="#000000" stroke-width="10.3125" stroke-miterlimit="8" fill="none" fill-rule="evenodd"/><path d="M0 0 1392.02 6.52926" stroke="#000000" stroke-width="10.3125" stroke-miterlimit="8" fill="none" fill-rule="evenodd" transform="matrix(1 0 0 -1 2025 2426.53)"/><path d="M3132 715 3420.93 715" stroke="#000000" stroke-width="10.3125" stroke-miterlimit="8" fill="none" fill-rule="evenodd"/><path d="M3422.08 715.5 3422.08 932.063 3412.92 932.063 3412.92 715.5ZM3440.42 927.48 3417.5 973.313 3394.58 927.48Z"/><path d="M380.512 658.917 1223.03 661.036 1223.01 670.202 380.488 668.083ZM1218.49 642.691 1264.27 665.723 1218.38 688.524Z"/><path d="M380.511 761.917 1223.03 763.992 1223.01 773.159 380.489 771.083ZM1218.49 745.647 1264.27 768.677 1218.38 791.481Z"/><path d="M0 0 5.5 773.598" stroke="#000000" stroke-width="10.3125" stroke-miterlimit="8" fill="none" fill-rule="evenodd" transform="matrix(-1 0 0 1 1083.5 667)"/><path d="M1084.5 1436.92 1223.1 1436.92 1223.1 1446.08 1084.5 1446.08ZM1218.52 1418.58 1264.35 1441.5 1218.52 1464.42Z"/><path d="M1008 768 1008 1539.65" stroke="#000000" stroke-width="10.3125" stroke-miterlimit="8" fill="none" fill-rule="evenodd"/><path d="M1008.5 1535.92 1222.78 1535.92 1222.78 1545.08 1008.5 1545.08ZM1218.19 1517.58 1264.03 1540.5 1218.19 1563.42Z"/><text font-family="Arial,Arial_MSFontService,sans-serif" font-weight="400" font-size="110" transform="matrix(1 0 0 1 375.701 607)">Clock</text><text font-family="Arial,Arial_MSFontService,sans-serif" font-weight="400" font-size="110" transform="matrix(1 0 0 1 371.482 888)">Init: All ones</text><path d="M3520.5 1071.92 3971.02 1071.92 3971.02 1081.08 3520.5 1081.08ZM3966.44 1053.58 4012.27 1076.5 3966.44 1099.42Z"/><text font-family="Arial,Arial_MSFontService,sans-serif" font-weight="400" font-size="110" transform="matrix(1 0 0 1 3517.92 1208)">C/A code</text><path d="M1628 1061.5C1628 1004.34 1674.11 958 1731 958 1787.89 958 1834 1004.34 1834 1061.5 1834 1118.66 1787.89 1165 1731 1165 1674.11 1165 1628 1118.66 1628 1061.5Z" stroke="#000000" stroke-width="10.3125" stroke-miterlimit="8" fill="none" fill-rule="evenodd"/><path d="M1731 958 1731 1164.25" stroke="#000000" stroke-width="10.3125" stroke-miterlimit="8" fill="none" fill-rule="evenodd"/><path d="M1628 1061 1834.25 1061" stroke="#000000" stroke-width="10.3125" stroke-miterlimit="8" fill="none" fill-rule="evenodd"/><path d="M1726.38 1394.73 1725.18 1205.78 1734.35 1205.72 1735.55 1394.67ZM1706.88 1210.48 1729.5 1164.5 1752.71 1210.19Z"/><path d="M3.50031-2.95884 89.5753 98.8679 82.5746 104.786-3.50031 2.95884ZM100.618 83.5322 112.705 133.33 65.6145 113.121Z" transform="matrix(1 0 0 -1 1546.5 1267.83)"/><path d="M1544 1268 1544 1394.62" stroke="#000000" stroke-width="10.3125" stroke-miterlimit="8" fill="none" fill-rule="evenodd"/><path d="M2291 1134 2291 1401.28" stroke="#000000" stroke-width="10.3125" stroke-miterlimit="8" fill="none" fill-rule="evenodd"/><path d="M2664 1061 2664 1396.04" stroke="#000000" stroke-width="10.3125" stroke-miterlimit="8" fill="none" fill-rule="evenodd"/><path d="M2851 988 2851 1395.96" stroke="#000000" stroke-width="10.3125" stroke-miterlimit="8" fill="none" fill-rule="evenodd"/><path d="M3038 873 3038 1394.13" stroke="#000000" stroke-width="10.3125" stroke-miterlimit="8" fill="none" fill-rule="evenodd"/><path d="M3.82271e-06-5.15625 440.383-5.15592 440.383 5.15658-3.82271e-06 5.15625ZM435.226-25.7809 486.789 0.000360892 435.226 25.7816Z" transform="matrix(-1 0 0 1 2290.79 1134)"/><path d="M1.99245e-06-4.58333 788.927-4.58299 788.927 4.58368-1.99245e-06 4.58333ZM784.344-22.9163 830.177 0.000360892 784.344 22.917Z" transform="matrix(-1 0 0 1 2664.68 1061.5)"/><path d="M1.57957e-06-4.58333 1005.93-4.58299 1005.93 4.58368-1.57957e-06 4.58333ZM1001.35-22.9163 1047.18 0.000360892 1001.35 22.917Z" transform="matrix(-1 0 0 1 2851.68 988.5)"/><path d="M1734.08 873.406 1734.98 917.299 1725.81 917.486 1724.92 873.594ZM1753.21 912.342 1731.24 958.634 1707.39 913.278Z"/><path d="M1729 873 3041.11 873" stroke="#000000" stroke-width="10.3125" stroke-miterlimit="8" fill="none" fill-rule="evenodd"/><path d="M1359.08 1061.46 1361.62 1353.08 1352.46 1353.16 1349.92 1061.54ZM1379.92 1348.34 1357.4 1394.37 1334.08 1348.73Z"/><path d="M1352 1061 1627.52 1061" stroke="#000000" stroke-width="10.3125" stroke-miterlimit="8" fill="none" fill-rule="evenodd"/><path d="M1263 1860.33C1263 1808.23 1305.23 1766 1357.33 1766L3038.67 1766C3090.76 1766 3133 1808.23 3133 1860.33L3133 2237.67C3133 2289.77 3090.76 2332 3038.67 2332L1357.33 2332C1305.23 2332 1263 2289.77 1263 2237.67Z" stroke="#000000" stroke-width="10.3125" stroke-linejoin="round" stroke-miterlimit="10" stroke-dasharray="82.5 30.9375 10.3125 30.9375 10.3125 30.9375" fill="none" fill-rule="evenodd"/><text font-family="Arial,Arial_MSFontService,sans-serif" font-weight="400" font-size="110" transform="matrix(1 0 0 1 2442.31 2263)">Phase select</text><path d="M1067.5 667.5C1067.5 658.111 1075.11 650.5 1084.5 650.5 1093.89 650.5 1101.5 658.111 1101.5 667.5 1101.5 676.889 1093.89 684.5 1084.5 684.5 1075.11 684.5 1067.5 676.889 1067.5 667.5Z" stroke="#000000" stroke-width="4.58333" stroke-miterlimit="8" fill-rule="evenodd"/><path d="M991.5 767.5C991.5 758.111 999.111 750.5 1008.5 750.5 1017.89 750.5 1025.5 758.111 1025.5 767.5 1025.5 776.889 1017.89 784.5 1008.5 784.5 999.111 784.5 991.5 776.889 991.5 767.5Z" stroke="#000000" stroke-width="4.58333" stroke-miterlimit="8" fill-rule="evenodd"/><text font-family="Arial,Arial_MSFontService,sans-serif" font-weight="400" font-size="110" transform="matrix(1 0 0 1 3163.46 694)">G1</text><text font-family="Arial,Arial_MSFontService,sans-serif" font-weight="400" font-size="110" transform="matrix(1 0 0 1 3163.46 1530)">G2</text></g></svg>