<svg width="3152" height="1605" xmlns="http://www.w3.org/2000/svg" xmlns:xlink="http://www.w3.org/1999/xlink" xml:space="preserve" overflow="hidden"><g transform="translate(-619 -370)"><rect x="688" y="602" width="3025" height="363" stroke="#000000" stroke-width="10.3125" stroke-miterlimit="8" fill="none"/><text font-family="Arial,Arial_MSFontService,sans-serif" font-weight="400" font-size="110" transform="matrix(1 0 0 1 3571.85 1144)">0</text><text font-family="Arial,Arial_MSFontService,sans-serif" font-weight="400" font-size="110" transform="matrix(1 0 0 1 701.364 1150)">98</text><path d="M685.667 390.595 2141.61 390.595 2141.61 535.595 685.667 535.595Z" fill="#808080" fill-rule="evenodd"/><text font-family="YaHei Consolas Hybrid,YaHei Consolas Hybrid_MSFontService,sans-serif" font-weight="400" font-size="110" transform="matrix(1 0 0 1 685.667 510)">code_subcarr_delay_reg_u</text><rect x="2028" y="602" width="344" height="363" stroke="#000000" stroke-width="10.3125" stroke-miterlimit="8" fill="none"/><text font-family="Arial,Arial_MSFontService,sans-serif" font-weight="400" font-size="110" transform="matrix(1 0 0 1 2163.33 825)">P</text><text font-family="Arial,Arial_MSFontService,sans-serif" font-weight="400" font-size="110" transform="matrix(1 0 0 1 2121.28 1144)">49</text><rect x="2800" y="602" width="345" height="363" stroke="#000000" stroke-width="10.3125" stroke-miterlimit="8" fill="none"/><text font-family="Arial,Arial_MSFontService,sans-serif" font-weight="400" font-size="110" transform="matrix(1 0 0 1 2935.62 825)">E</text><text font-family="Arial,Arial_MSFontService,sans-serif" font-weight="400" font-size="110" transform="matrix(1 0 0 1 2893.57 1144)">25</text><rect x="1208" y="602" width="344" height="363" stroke="#000000" stroke-width="10.3125" stroke-miterlimit="8" fill="none"/><text font-family="Arial,Arial_MSFontService,sans-serif" font-weight="400" font-size="110" transform="matrix(1 0 0 1 1349.39 825)">L</text><text font-family="Arial,Arial_MSFontService,sans-serif" font-weight="400" font-size="110" transform="matrix(1 0 0 1 1301.32 1144)">73</text><path d="M3065.5 1349.92 3512.01 1349.92 3512.01 1359.08 3065.5 1359.08ZM3507.43 1331.58 3553.26 1354.5 3507.43 1377.42Z"/><path d="M3065 965 3065 1353.67" stroke="#000000" stroke-width="10.3125" stroke-miterlimit="8" fill="none" fill-rule="evenodd"/><path d="M2293.51 1605.92 3517 1609.46 3516.98 1618.63 2293.49 1615.08ZM3512.48 1591.12 3558.24 1614.17 3512.34 1636.95Z"/><path d="M2293 965 2293 1614" stroke="#000000" stroke-width="10.3125" stroke-miterlimit="8" fill="none" fill-rule="evenodd"/><path d="M3557 1354C3557 1297.11 3603.79 1251 3661.5 1251 3719.21 1251 3766 1297.11 3766 1354 3766 1410.89 3719.21 1457 3661.5 1457 3603.79 1457 3557 1410.89 3557 1354Z" stroke="#000000" stroke-width="10.3125" stroke-miterlimit="8" fill="none" fill-rule="evenodd"/><path d="M0 0 147.87 145.841" stroke="#000000" stroke-width="10.3125" stroke-miterlimit="8" fill="none" fill-rule="evenodd" transform="matrix(1 0 0 -1 3588 1426.84)"/><path d="M3588 1281 3735.87 1426.84" stroke="#000000" stroke-width="10.3125" stroke-miterlimit="8" fill="none" fill-rule="evenodd"/><path d="M3557 1610.5C3557 1553.34 3603.79 1507 3661.5 1507 3719.21 1507 3766 1553.34 3766 1610.5 3766 1667.66 3719.21 1714 3661.5 1714 3603.79 1714 3557 1667.66 3557 1610.5Z" stroke="#000000" stroke-width="10.3125" stroke-miterlimit="8" fill="none" fill-rule="evenodd"/><path d="M0 0 147.87 145.841" stroke="#000000" stroke-width="10.3125" stroke-miterlimit="8" fill="none" fill-rule="evenodd" transform="matrix(1 0 0 -1 3588 1683.84)"/><path d="M3588 1538 3735.87 1683.84" stroke="#000000" stroke-width="10.3125" stroke-miterlimit="8" fill="none" fill-rule="evenodd"/><path d="M1471.5 1862.92 3513.33 1862.92 3513.33 1872.08 1471.5 1872.08ZM3508.75 1844.58 3554.58 1867.5 3508.75 1890.42Z"/><path d="M0 0 3.63094 904.75" stroke="#000000" stroke-width="10.3125" stroke-miterlimit="8" fill="none" fill-rule="evenodd" transform="matrix(-1 0 0 1 1474.63 962)"/><path d="M3557 1867C3557 1810.11 3603.79 1764 3661.5 1764 3719.21 1764 3766 1810.11 3766 1867 3766 1923.89 3719.21 1970 3661.5 1970 3603.79 1970 3557 1923.89 3557 1867Z" stroke="#000000" stroke-width="10.3125" stroke-miterlimit="8" fill="none" fill-rule="evenodd"/><path d="M0 0 147.87 145.841" stroke="#000000" stroke-width="10.3125" stroke-miterlimit="8" fill="none" fill-rule="evenodd" transform="matrix(1 0 0 -1 3588 1939.84)"/><path d="M3588 1794 3735.87 1939.84" stroke="#000000" stroke-width="10.3125" stroke-miterlimit="8" fill="none" fill-rule="evenodd"/></g></svg>