<svg width="3259" height="595" xmlns="http://www.w3.org/2000/svg" xmlns:xlink="http://www.w3.org/1999/xlink" xml:space="preserve" overflow="hidden"><g transform="translate(-470 -940)"><path d="M475 1042.5C475 988.653 518.653 945 572.502 945L1222.5 945C1276.35 945 1320 988.653 1320 1042.5L1320 1432.5C1320 1486.35 1276.35 1530 1222.5 1530L572.502 1530C518.653 1530 475 1486.35 475 1432.5Z" stroke="#000000" stroke-width="10.3125" stroke-miterlimit="8" fill="none" fill-rule="evenodd"/><text font-family="Arial,Arial_MSFontService,sans-serif" font-weight="400" font-size="110" transform="matrix(1 0 0 1 631.286 1278)">Acquisition</text><path d="M1677 1042.5C1677 988.653 1720.65 945 1774.5 945L2424.5 945C2478.35 945 2522 988.653 2522 1042.5L2522 1432.5C2522 1486.35 2478.35 1530 2424.5 1530L1774.5 1530C1720.65 1530 1677 1486.35 1677 1432.5Z" stroke="#000000" stroke-width="10.3125" stroke-miterlimit="8" fill="none" fill-rule="evenodd"/><text font-family="Arial,Arial_MSFontService,sans-serif" font-weight="700" font-size="110" transform="matrix(1 0 0 1 1873.49 1278)">Tracking</text><path d="M2879 1042.5C2879 988.653 2922.65 945 2976.5 945L3626.5 945C3680.35 945 3724 988.653 3724 1042.5L3724 1432.5C3724 1486.35 3680.35 1530 3626.5 1530L2976.5 1530C2922.65 1530 2879 1486.35 2879 1432.5Z" stroke="#000000" stroke-width="10.3125" stroke-miterlimit="8" fill="none" fill-rule="evenodd"/><text font-family="Arial,Arial_MSFontService,sans-serif" font-weight="400" font-size="110" transform="matrix(1 0 0 1 3041.17 1278)">Navigation</text><path d="M1320.5 1233.92 1636.58 1233.92 1636.58 1243.08 1320.5 1243.08ZM1632 1215.58 1677.83 1238.5 1632 1261.42Z"/><path d="M2522.5 1233.92 2838.58 1233.92 2838.58 1243.08 2522.5 1243.08ZM2834 1215.58 2879.83 1238.5 2834 1261.42Z"/></g></svg>