<svg width="2473" height="2005" xmlns="http://www.w3.org/2000/svg" xmlns:xlink="http://www.w3.org/1999/xlink" xml:space="preserve" overflow="hidden"><g transform="translate(-942 -238)"><rect x="1135" y="311" width="2233" height="458" fill="#FFFFFF"/><path d="M1135 769 3368 769" stroke="#262626" stroke-width="2.29167" stroke-linejoin="round" stroke-miterlimit="10" fill="none" fill-rule="evenodd"/><path d="M1135 311 3368 311" stroke="#262626" stroke-width="2.29167" stroke-linejoin="round" stroke-miterlimit="10" fill="none" fill-rule="evenodd"/><path d="M0 0 0.000360892 22" stroke="#262626" stroke-width="2.29167" stroke-linejoin="round" stroke-miterlimit="10" fill="none" fill-rule="evenodd" transform="matrix(1 0 0 -1 1135 769)"/><path d="M0 0 0.000360892 22" stroke="#262626" stroke-width="2.29167" stroke-linejoin="round" stroke-miterlimit="10" fill="none" fill-rule="evenodd" transform="matrix(1 0 0 -1 1358 769)"/><path d="M0 0 0.000360892 22" stroke="#262626" stroke-width="2.29167" stroke-linejoin="round" stroke-miterlimit="10" fill="none" fill-rule="evenodd" transform="matrix(1 0 0 -1 1582 769)"/><path d="M0 0 0.000360892 22" stroke="#262626" stroke-width="2.29167" stroke-linejoin="round" stroke-miterlimit="10" fill="none" fill-rule="evenodd" transform="matrix(1 0 0 -1 1805 769)"/><path d="M0 0 0.000360892 22" stroke="#262626" stroke-width="2.29167" stroke-linejoin="round" stroke-miterlimit="10" fill="none" fill-rule="evenodd" transform="matrix(1 0 0 -1 2028 769)"/><path d="M0 0 0.000360892 22" stroke="#262626" stroke-width="2.29167" stroke-linejoin="round" stroke-miterlimit="10" fill="none" fill-rule="evenodd" transform="matrix(1 0 0 -1 2252 769)"/><path d="M0 0 0.000360892 22" stroke="#262626" stroke-width="2.29167" stroke-linejoin="round" stroke-miterlimit="10" fill="none" fill-rule="evenodd" transform="matrix(1 0 0 -1 2475 769)"/><path d="M0 0 0.000360892 22" stroke="#262626" stroke-width="2.29167" stroke-linejoin="round" stroke-miterlimit="10" fill="none" fill-rule="evenodd" transform="matrix(1 0 0 -1 2698 769)"/><path d="M0 0 0.000360892 22" stroke="#262626" stroke-width="2.29167" stroke-linejoin="round" stroke-miterlimit="10" fill="none" fill-rule="evenodd" transform="matrix(1 0 0 -1 2922 769)"/><path d="M0 0 0.000360892 22" stroke="#262626" stroke-width="2.29167" stroke-linejoin="round" stroke-miterlimit="10" fill="none" fill-rule="evenodd" transform="matrix(1 0 0 -1 3145 769)"/><path d="M0 0 0.000360892 22" stroke="#262626" stroke-width="2.29167" stroke-linejoin="round" stroke-miterlimit="10" fill="none" fill-rule="evenodd" transform="matrix(1 0 0 -1 3368 769)"/><path d="M1135 311 1135 334" stroke="#262626" stroke-width="2.29167" stroke-linejoin="round" stroke-miterlimit="10" fill="none" fill-rule="evenodd"/><path d="M1358 311 1358 334" stroke="#262626" stroke-width="2.29167" stroke-linejoin="round" stroke-miterlimit="10" fill="none" fill-rule="evenodd"/><path d="M1582 311 1582 334" stroke="#262626" stroke-width="2.29167" stroke-linejoin="round" stroke-miterlimit="10" fill="none" fill-rule="evenodd"/><path d="M1805 311 1805 334" stroke="#262626" stroke-width="2.29167" stroke-linejoin="round" stroke-miterlimit="10" fill="none" fill-rule="evenodd"/><path d="M2028 311 2028 334" stroke="#262626" stroke-width="2.29167" stroke-linejoin="round" stroke-miterlimit="10" fill="none" fill-rule="evenodd"/><path d="M2252 311 2252 334" stroke="#262626" stroke-width="2.29167" stroke-linejoin="round" stroke-miterlimit="10" fill="none" fill-rule="evenodd"/><path d="M2475 311 2475 334" stroke="#262626" stroke-width="2.29167" stroke-linejoin="round" stroke-miterlimit="10" fill="none" fill-rule="evenodd"/><path d="M2698 311 2698 334" stroke="#262626" stroke-width="2.29167" stroke-linejoin="round" stroke-miterlimit="10" fill="none" fill-rule="evenodd"/><path d="M2922 311 2922 334" stroke="#262626" stroke-width="2.29167" stroke-linejoin="round" stroke-miterlimit="10" fill="none" fill-rule="evenodd"/><path d="M3145 311 3145 334" stroke="#262626" stroke-width="2.29167" stroke-linejoin="round" stroke-miterlimit="10" fill="none" fill-rule="evenodd"/><path d="M3368 311 3368 334" stroke="#262626" stroke-width="2.29167" stroke-linejoin="round" stroke-miterlimit="10" fill="none" fill-rule="evenodd"/><text fill="#262626" font-family="Arial,Arial_MSFontService,sans-serif" font-weight="400" font-size="41" transform="matrix(1 0 0 1 1124.64 830)">0</text><text fill="#262626" font-family="Arial,Arial_MSFontService,sans-serif" font-weight="400" font-size="41" transform="matrix(1 0 0 1 1348.07 830)">5</text><text fill="#262626" font-family="Arial,Arial_MSFontService,sans-serif" font-weight="400" font-size="41" transform="matrix(1 0 0 1 1558.33 830)">10</text><text fill="#262626" font-family="Arial,Arial_MSFontService,sans-serif" font-weight="400" font-size="41" transform="matrix(1 0 0 1 1781.77 830)">15</text><text fill="#262626" font-family="Arial,Arial_MSFontService,sans-serif" font-weight="400" font-size="41" transform="matrix(1 0 0 1 2005.78 830)">20</text><text fill="#262626" font-family="Arial,Arial_MSFontService,sans-serif" font-weight="400" font-size="41" transform="matrix(1 0 0 1 2229.22 830)">25</text><text fill="#262626" font-family="Arial,Arial_MSFontService,sans-serif" font-weight="400" font-size="41" transform="matrix(1 0 0 1 2449.22 830)">30</text><text fill="#262626" font-family="Arial,Arial_MSFontService,sans-serif" font-weight="400" font-size="41" transform="matrix(1 0 0 1 2673.23 830)">35</text><text fill="#262626" font-family="Arial,Arial_MSFontService,sans-serif" font-weight="400" font-size="41" transform="matrix(1 0 0 1 2896.67 830)">40</text><text fill="#262626" font-family="Arial,Arial_MSFontService,sans-serif" font-weight="400" font-size="41" transform="matrix(1 0 0 1 3120.68 830)">45</text><text fill="#262626" font-family="Arial,Arial_MSFontService,sans-serif" font-weight="400" font-size="41" transform="matrix(1 0 0 1 3344.11 830)">50</text><text fill="#262626" font-family="Arial,Arial_MSFontService,sans-serif" font-weight="400" font-size="46" transform="matrix(1 0 0 1 2150.16 890)">Time (ms)</text><path d="M0 0 0.000360892 458" stroke="#262626" stroke-width="2.29167" stroke-linejoin="round" stroke-miterlimit="10" fill="none" fill-rule="evenodd" transform="matrix(1 0 0 -1 1135 769)"/><path d="M0 0 0.000360892 458" stroke="#262626" stroke-width="2.29167" stroke-linejoin="round" stroke-miterlimit="10" fill="none" fill-rule="evenodd" transform="matrix(1 0 0 -1 3368 769)"/><path d="M1135 692 1157 692" stroke="#262626" stroke-width="2.29167" stroke-linejoin="round" stroke-miterlimit="10" fill="none" fill-rule="evenodd"/><path d="M1135 597 1157 597" stroke="#262626" stroke-width="2.29167" stroke-linejoin="round" stroke-miterlimit="10" fill="none" fill-rule="evenodd"/><path d="M1135 502 1157 502" stroke="#262626" stroke-width="2.29167" stroke-linejoin="round" stroke-miterlimit="10" fill="none" fill-rule="evenodd"/><path d="M1135 407 1157 407" stroke="#262626" stroke-width="2.29167" stroke-linejoin="round" stroke-miterlimit="10" fill="none" fill-rule="evenodd"/><path d="M1135 311 1157 311" stroke="#262626" stroke-width="2.29167" stroke-linejoin="round" stroke-miterlimit="10" fill="none" fill-rule="evenodd"/><path d="M0 0 22 0.000360892" stroke="#262626" stroke-width="2.29167" stroke-linejoin="round" stroke-miterlimit="10" fill="none" fill-rule="evenodd" transform="matrix(-1 0 0 1 3368 692)"/><path d="M0 0 22 0.000360892" stroke="#262626" stroke-width="2.29167" stroke-linejoin="round" stroke-miterlimit="10" fill="none" fill-rule="evenodd" transform="matrix(-1 0 0 1 3368 597)"/><path d="M0 0 22 0.000360892" stroke="#262626" stroke-width="2.29167" stroke-linejoin="round" stroke-miterlimit="10" fill="none" fill-rule="evenodd" transform="matrix(-1 0 0 1 3368 502)"/><path d="M0 0 22 0.000360892" stroke="#262626" stroke-width="2.29167" stroke-linejoin="round" stroke-miterlimit="10" fill="none" fill-rule="evenodd" transform="matrix(-1 0 0 1 3368 407)"/><path d="M0 0 22 0.000360892" stroke="#262626" stroke-width="2.29167" stroke-linejoin="round" stroke-miterlimit="10" fill="none" fill-rule="evenodd" transform="matrix(-1 0 0 1 3368 311)"/><text fill="#262626" font-family="Arial,Arial_MSFontService,sans-serif" font-weight="400" font-size="41" transform="matrix(1 0 0 1 1014.64 713)">-</text><text fill="#262626" font-family="Arial,Arial_MSFontService,sans-serif" font-weight="400" font-size="41" transform="matrix(1 0 0 1 1028.39 713)">2000</text><text fill="#262626" font-family="Arial,Arial_MSFontService,sans-serif" font-weight="400" font-size="41" transform="matrix(1 0 0 1 1014.64 616)">-</text><text fill="#262626" font-family="Arial,Arial_MSFontService,sans-serif" font-weight="400" font-size="41" transform="matrix(1 0 0 1 1028.39 616)">1000</text><text fill="#262626" font-family="Arial,Arial_MSFontService,sans-serif" font-weight="400" font-size="41" transform="matrix(1 0 0 1 1097.14 520)">0</text><text fill="#262626" font-family="Arial,Arial_MSFontService,sans-serif" font-weight="400" font-size="41" transform="matrix(1 0 0 1 1028.39 427)">1000</text><text fill="#262626" font-family="Arial,Arial_MSFontService,sans-serif" font-weight="400" font-size="41" transform="matrix(1 0 0 1 1028.39 331)">2000</text><text fill="#262626" font-family="Arial,Arial_MSFontService,sans-serif" font-weight="400" font-size="46" transform="matrix(-1.83697e-16 -1 1 -1.83697e-16 1001.21 641)">A</text><text fill="#262626" font-family="Arial,Arial_MSFontService,sans-serif" font-weight="400" font-size="46" transform="matrix(-1.83697e-16 -1 1 -1.83697e-16 1001.21 610)">m</text><text fill="#262626" font-family="Arial,Arial_MSFontService,sans-serif" font-weight="400" font-size="46" transform="matrix(-1.83697e-16 -1 1 -1.83697e-16 1001.21 572)">p</text><text fill="#262626" font-family="Arial,Arial_MSFontService,sans-serif" font-weight="400" font-size="46" transform="matrix(-1.83697e-16 -1 1 -1.83697e-16 1001.21 548)">l</text><text fill="#262626" font-family="Arial,Arial_MSFontService,sans-serif" font-weight="400" font-size="46" transform="matrix(-1.83697e-16 -1 1 -1.83697e-16 1001.21 538)">i</text><text fill="#262626" font-family="Arial,Arial_MSFontService,sans-serif" font-weight="400" font-size="46" transform="matrix(-1.83697e-16 -1 1 -1.83697e-16 1001.21 528)">t</text><text fill="#262626" font-family="Arial,Arial_MSFontService,sans-serif" font-weight="400" font-size="46" transform="matrix(-1.83697e-16 -1 1 -1.83697e-16 1001.21 514)">u</text><text fill="#262626" font-family="Arial,Arial_MSFontService,sans-serif" font-weight="400" font-size="46" transform="matrix(-1.83697e-16 -1 1 -1.83697e-16 1001.21 490)">d</text><text fill="#262626" font-family="Arial,Arial_MSFontService,sans-serif" font-weight="400" font-size="46" transform="matrix(-1.83697e-16 -1 1 -1.83697e-16 1001.21 466)">e</text><text font-family="Arial,Arial_MSFontService,sans-serif" font-weight="700" font-size="46" transform="matrix(1 0 0 1 2174.22 298)">I Phase</text><path d="M1180 463.747 1224.68 588.935 1269.35 502.046 1314.03 755.852 1358.71 491.757 1403.38 576.359 1448.06 482.611 1492.74 374 1537.41 526.055 1582.09 423.161 1626.76 528.342 1671.44 593.508 1715.54 663.247 1760.79 539.203 1805.47 419.731 1849.57 659.818 1894.25 410.585 1939.5 507.763 1983.6 431.164 2028.28 384.289 2072.96 637.524 2117.63 435.737 2162.31 472.893 2206.99 590.65 2251.66 648.957 2296.34 387.719 2341.01 419.731 2385.69 504.333 2430.37 446.026 2475.04 402.01 2519.72 572.357 2564.4 482.611 2609.07 438.023 2653.75 769 2698.43 656.388 2743.1 434.593 2787.78 378.573 2832.46 598.653 2877.13 438.023 2921.81 407.726 2966.48 628.378 3011.16 528.913 3055.84 571.214 3100.51 484.897 3145.19 596.938 3189.87 472.321 3233.97 453.457 3279.22 508.906 3323.9 610.657 3368 601.511" stroke="#0072BD" stroke-width="2.29167" stroke-linejoin="round" stroke-miterlimit="10" fill="none" fill-rule="evenodd"/><rect x="1135" y="969" width="2233" height="458" fill="#FFFFFF"/><path d="M1135 1427 3368 1427" stroke="#262626" stroke-width="2.29167" stroke-linejoin="round" stroke-miterlimit="10" fill="none" fill-rule="evenodd"/><path d="M1135 969 3368 969" stroke="#262626" stroke-width="2.29167" stroke-linejoin="round" stroke-miterlimit="10" fill="none" fill-rule="evenodd"/><path d="M0 0 0.000360892 22" stroke="#262626" stroke-width="2.29167" stroke-linejoin="round" stroke-miterlimit="10" fill="none" fill-rule="evenodd" transform="matrix(1 0 0 -1 1135 1427)"/><path d="M0 0 0.000360892 22" stroke="#262626" stroke-width="2.29167" stroke-linejoin="round" stroke-miterlimit="10" fill="none" fill-rule="evenodd" transform="matrix(1 0 0 -1 1358 1427)"/><path d="M0 0 0.000360892 22" stroke="#262626" stroke-width="2.29167" stroke-linejoin="round" stroke-miterlimit="10" fill="none" fill-rule="evenodd" transform="matrix(1 0 0 -1 1582 1427)"/><path d="M0 0 0.000360892 22" stroke="#262626" stroke-width="2.29167" stroke-linejoin="round" stroke-miterlimit="10" fill="none" fill-rule="evenodd" transform="matrix(1 0 0 -1 1805 1427)"/><path d="M0 0 0.000360892 22" stroke="#262626" stroke-width="2.29167" stroke-linejoin="round" stroke-miterlimit="10" fill="none" fill-rule="evenodd" transform="matrix(1 0 0 -1 2028 1427)"/><path d="M0 0 0.000360892 22" stroke="#262626" stroke-width="2.29167" stroke-linejoin="round" stroke-miterlimit="10" fill="none" fill-rule="evenodd" transform="matrix(1 0 0 -1 2252 1427)"/><path d="M0 0 0.000360892 22" stroke="#262626" stroke-width="2.29167" stroke-linejoin="round" stroke-miterlimit="10" fill="none" fill-rule="evenodd" transform="matrix(1 0 0 -1 2475 1427)"/><path d="M0 0 0.000360892 22" stroke="#262626" stroke-width="2.29167" stroke-linejoin="round" stroke-miterlimit="10" fill="none" fill-rule="evenodd" transform="matrix(1 0 0 -1 2698 1427)"/><path d="M0 0 0.000360892 22" stroke="#262626" stroke-width="2.29167" stroke-linejoin="round" stroke-miterlimit="10" fill="none" fill-rule="evenodd" transform="matrix(1 0 0 -1 2922 1427)"/><path d="M0 0 0.000360892 22" stroke="#262626" stroke-width="2.29167" stroke-linejoin="round" stroke-miterlimit="10" fill="none" fill-rule="evenodd" transform="matrix(1 0 0 -1 3145 1427)"/><path d="M0 0 0.000360892 22" stroke="#262626" stroke-width="2.29167" stroke-linejoin="round" stroke-miterlimit="10" fill="none" fill-rule="evenodd" transform="matrix(1 0 0 -1 3368 1427)"/><path d="M1135 969 1135 991" stroke="#262626" stroke-width="2.29167" stroke-linejoin="round" stroke-miterlimit="10" fill="none" fill-rule="evenodd"/><path d="M1358 969 1358 991" stroke="#262626" stroke-width="2.29167" stroke-linejoin="round" stroke-miterlimit="10" fill="none" fill-rule="evenodd"/><path d="M1582 969 1582 991" stroke="#262626" stroke-width="2.29167" stroke-linejoin="round" stroke-miterlimit="10" fill="none" fill-rule="evenodd"/><path d="M1805 969 1805 991" stroke="#262626" stroke-width="2.29167" stroke-linejoin="round" stroke-miterlimit="10" fill="none" fill-rule="evenodd"/><path d="M2028 969 2028 991" stroke="#262626" stroke-width="2.29167" stroke-linejoin="round" stroke-miterlimit="10" fill="none" fill-rule="evenodd"/><path d="M2252 969 2252 991" stroke="#262626" stroke-width="2.29167" stroke-linejoin="round" stroke-miterlimit="10" fill="none" fill-rule="evenodd"/><path d="M2475 969 2475 991" stroke="#262626" stroke-width="2.29167" stroke-linejoin="round" stroke-miterlimit="10" fill="none" fill-rule="evenodd"/><path d="M2698 969 2698 991" stroke="#262626" stroke-width="2.29167" stroke-linejoin="round" stroke-miterlimit="10" fill="none" fill-rule="evenodd"/><path d="M2922 969 2922 991" stroke="#262626" stroke-width="2.29167" stroke-linejoin="round" stroke-miterlimit="10" fill="none" fill-rule="evenodd"/><path d="M3145 969 3145 991" stroke="#262626" stroke-width="2.29167" stroke-linejoin="round" stroke-miterlimit="10" fill="none" fill-rule="evenodd"/><path d="M3368 969 3368 991" stroke="#262626" stroke-width="2.29167" stroke-linejoin="round" stroke-miterlimit="10" fill="none" fill-rule="evenodd"/><text fill="#262626" font-family="Arial,Arial_MSFontService,sans-serif" font-weight="400" font-size="41" transform="matrix(1 0 0 1 1124.64 1488)">0</text><text fill="#262626" font-family="Arial,Arial_MSFontService,sans-serif" font-weight="400" font-size="41" transform="matrix(1 0 0 1 1348.07 1488)">5</text><text fill="#262626" font-family="Arial,Arial_MSFontService,sans-serif" font-weight="400" font-size="41" transform="matrix(1 0 0 1 1558.33 1488)">10</text><text fill="#262626" font-family="Arial,Arial_MSFontService,sans-serif" font-weight="400" font-size="41" transform="matrix(1 0 0 1 1781.77 1488)">15</text><text fill="#262626" font-family="Arial,Arial_MSFontService,sans-serif" font-weight="400" font-size="41" transform="matrix(1 0 0 1 2005.78 1488)">20</text><text fill="#262626" font-family="Arial,Arial_MSFontService,sans-serif" font-weight="400" font-size="41" transform="matrix(1 0 0 1 2229.22 1488)">25</text><text fill="#262626" font-family="Arial,Arial_MSFontService,sans-serif" font-weight="400" font-size="41" transform="matrix(1 0 0 1 2449.22 1488)">30</text><text fill="#262626" font-family="Arial,Arial_MSFontService,sans-serif" font-weight="400" font-size="41" transform="matrix(1 0 0 1 2673.23 1488)">35</text><text fill="#262626" font-family="Arial,Arial_MSFontService,sans-serif" font-weight="400" font-size="41" transform="matrix(1 0 0 1 2896.67 1488)">40</text><text fill="#262626" font-family="Arial,Arial_MSFontService,sans-serif" font-weight="400" font-size="41" transform="matrix(1 0 0 1 3120.68 1488)">45</text><text fill="#262626" font-family="Arial,Arial_MSFontService,sans-serif" font-weight="400" font-size="41" transform="matrix(1 0 0 1 3344.11 1488)">50</text><text fill="#262626" font-family="Arial,Arial_MSFontService,sans-serif" font-weight="400" font-size="46" transform="matrix(1 0 0 1 2150.16 1548)">Time (ms)</text><path d="M0 0 0.000360892 458" stroke="#262626" stroke-width="2.29167" stroke-linejoin="round" stroke-miterlimit="10" fill="none" fill-rule="evenodd" transform="matrix(1 0 0 -1 1135 1427)"/><path d="M0 0 0.000360892 458" stroke="#262626" stroke-width="2.29167" stroke-linejoin="round" stroke-miterlimit="10" fill="none" fill-rule="evenodd" transform="matrix(1 0 0 -1 3368 1427)"/><path d="M1135 1427 1157 1427" stroke="#262626" stroke-width="2.29167" stroke-linejoin="round" stroke-miterlimit="10" fill="none" fill-rule="evenodd"/><path d="M1135 1313 1157 1313" stroke="#262626" stroke-width="2.29167" stroke-linejoin="round" stroke-miterlimit="10" fill="none" fill-rule="evenodd"/><path d="M1135 1198 1157 1198" stroke="#262626" stroke-width="2.29167" stroke-linejoin="round" stroke-miterlimit="10" fill="none" fill-rule="evenodd"/><path d="M1135 1083 1157 1083" stroke="#262626" stroke-width="2.29167" stroke-linejoin="round" stroke-miterlimit="10" fill="none" fill-rule="evenodd"/><path d="M1135 969 1157 969" stroke="#262626" stroke-width="2.29167" stroke-linejoin="round" stroke-miterlimit="10" fill="none" fill-rule="evenodd"/><path d="M0 0 22 0.000360892" stroke="#262626" stroke-width="2.29167" stroke-linejoin="round" stroke-miterlimit="10" fill="none" fill-rule="evenodd" transform="matrix(-1 0 0 1 3368 1427)"/><path d="M0 0 22 0.000360892" stroke="#262626" stroke-width="2.29167" stroke-linejoin="round" stroke-miterlimit="10" fill="none" fill-rule="evenodd" transform="matrix(-1 0 0 1 3368 1313)"/><path d="M0 0 22 0.000360892" stroke="#262626" stroke-width="2.29167" stroke-linejoin="round" stroke-miterlimit="10" fill="none" fill-rule="evenodd" transform="matrix(-1 0 0 1 3368 1198)"/><path d="M0 0 22 0.000360892" stroke="#262626" stroke-width="2.29167" stroke-linejoin="round" stroke-miterlimit="10" fill="none" fill-rule="evenodd" transform="matrix(-1 0 0 1 3368 1083)"/><path d="M0 0 22 0.000360892" stroke="#262626" stroke-width="2.29167" stroke-linejoin="round" stroke-miterlimit="10" fill="none" fill-rule="evenodd" transform="matrix(-1 0 0 1 3368 969)"/><text fill="#262626" font-family="Arial,Arial_MSFontService,sans-serif" font-weight="400" font-size="41" transform="matrix(1 0 0 1 1014.64 1447)">-</text><text fill="#262626" font-family="Arial,Arial_MSFontService,sans-serif" font-weight="400" font-size="41" transform="matrix(1 0 0 1 1028.39 1447)">4000</text><text fill="#262626" font-family="Arial,Arial_MSFontService,sans-serif" font-weight="400" font-size="41" transform="matrix(1 0 0 1 1014.64 1332)">-</text><text fill="#262626" font-family="Arial,Arial_MSFontService,sans-serif" font-weight="400" font-size="41" transform="matrix(1 0 0 1 1028.39 1332)">2000</text><text fill="#262626" font-family="Arial,Arial_MSFontService,sans-serif" font-weight="400" font-size="41" transform="matrix(1 0 0 1 1097.14 1219)">0</text><text fill="#262626" font-family="Arial,Arial_MSFontService,sans-serif" font-weight="400" font-size="41" transform="matrix(1 0 0 1 1028.39 1102)">2000</text><text fill="#262626" font-family="Arial,Arial_MSFontService,sans-serif" font-weight="400" font-size="41" transform="matrix(1 0 0 1 1028.39 988)">4000</text><text fill="#262626" font-family="Arial,Arial_MSFontService,sans-serif" font-weight="400" font-size="46" transform="matrix(-1.83697e-16 -1 1 -1.83697e-16 1001.21 1299)">A</text><text fill="#262626" font-family="Arial,Arial_MSFontService,sans-serif" font-weight="400" font-size="46" transform="matrix(-1.83697e-16 -1 1 -1.83697e-16 1001.21 1268)">m</text><text fill="#262626" font-family="Arial,Arial_MSFontService,sans-serif" font-weight="400" font-size="46" transform="matrix(-1.83697e-16 -1 1 -1.83697e-16 1001.21 1231)">p</text><text fill="#262626" font-family="Arial,Arial_MSFontService,sans-serif" font-weight="400" font-size="46" transform="matrix(-1.83697e-16 -1 1 -1.83697e-16 1001.21 1207)">l</text><text fill="#262626" font-family="Arial,Arial_MSFontService,sans-serif" font-weight="400" font-size="46" transform="matrix(-1.83697e-16 -1 1 -1.83697e-16 1001.21 1196)">i</text><text fill="#262626" font-family="Arial,Arial_MSFontService,sans-serif" font-weight="400" font-size="46" transform="matrix(-1.83697e-16 -1 1 -1.83697e-16 1001.21 1186)">t</text><text fill="#262626" font-family="Arial,Arial_MSFontService,sans-serif" font-weight="400" font-size="46" transform="matrix(-1.83697e-16 -1 1 -1.83697e-16 1001.21 1172)">u</text><text fill="#262626" font-family="Arial,Arial_MSFontService,sans-serif" font-weight="400" font-size="46" transform="matrix(-1.83697e-16 -1 1 -1.83697e-16 1001.21 1148)">d</text><text fill="#262626" font-family="Arial,Arial_MSFontService,sans-serif" font-weight="400" font-size="46" transform="matrix(-1.83697e-16 -1 1 -1.83697e-16 1001.21 1124)">e</text><text font-family="Arial,Arial_MSFontService,sans-serif" font-weight="700" font-size="46" transform="matrix(1 0 0 1 2163.91 955)">Q Phase</text><path d="M1180 1157.07 1224.68 1122.15 1269.35 1130.16 1314.03 1099.24 1358.71 1320.83 1403.38 1145.05 1448.06 1138.75 1492.74 1405 1537.41 1123.86 1582.09 1256.13 1626.76 1240.1 1671.44 1160.51 1715.54 1267.01 1760.79 1309.38 1805.47 1201.16 1849.57 1107.83 1894.25 1205.17 1939.5 1227.5 1983.6 1198.87 2028.28 1174.25 2072.96 1258.42 2117.63 1201.16 2162.31 1150.2 2206.99 1204.6 2251.66 1233.8 2296.34 1175.97 2341.01 1133.02 2385.69 1189.14 2430.37 1213.76 2475.04 1198.87 2519.72 1150.2 2564.4 1291.63 2609.07 1194.86 2653.75 1255.56 2698.43 1224.06 2743.1 1244.1 2787.78 1289.34 2832.46 1203.45 2877.13 1253.84 2921.81 1139.32 2966.48 1218.34 3011.16 1131.88 3055.84 1300.79 3100.51 1086.07 3145.19 1115.85 3189.87 1231.51 3233.97 1183.98 3279.22 1050 3323.9 1265.86 3368 1321.4" stroke="#0072BD" stroke-width="2.29167" stroke-linejoin="round" stroke-miterlimit="10" fill="none" fill-rule="evenodd"/><rect x="1135" y="1627" width="2233" height="457" fill="#FFFFFF"/><path d="M1135 2084 3368 2084" stroke="#262626" stroke-width="2.29167" stroke-linejoin="round" stroke-miterlimit="10" fill="none" fill-rule="evenodd"/><path d="M1135 1627 3368 1627" stroke="#262626" stroke-width="2.29167" stroke-linejoin="round" stroke-miterlimit="10" fill="none" fill-rule="evenodd"/><path d="M0 0 0.000360892 21.0003" stroke="#262626" stroke-width="2.29167" stroke-linejoin="round" stroke-miterlimit="10" fill="none" fill-rule="evenodd" transform="matrix(1 0 0 -1 1135 2084)"/><path d="M0 0 0.000360892 21.0003" stroke="#262626" stroke-width="2.29167" stroke-linejoin="round" stroke-miterlimit="10" fill="none" fill-rule="evenodd" transform="matrix(1 0 0 -1 1358 2084)"/><path d="M0 0 0.000360892 21.0003" stroke="#262626" stroke-width="2.29167" stroke-linejoin="round" stroke-miterlimit="10" fill="none" fill-rule="evenodd" transform="matrix(1 0 0 -1 1582 2084)"/><path d="M0 0 0.000360892 21.0003" stroke="#262626" stroke-width="2.29167" stroke-linejoin="round" stroke-miterlimit="10" fill="none" fill-rule="evenodd" transform="matrix(1 0 0 -1 1805 2084)"/><path d="M0 0 0.000360892 21.0003" stroke="#262626" stroke-width="2.29167" stroke-linejoin="round" stroke-miterlimit="10" fill="none" fill-rule="evenodd" transform="matrix(1 0 0 -1 2028 2084)"/><path d="M0 0 0.000360892 21.0003" stroke="#262626" stroke-width="2.29167" stroke-linejoin="round" stroke-miterlimit="10" fill="none" fill-rule="evenodd" transform="matrix(1 0 0 -1 2252 2084)"/><path d="M0 0 0.000360892 21.0003" stroke="#262626" stroke-width="2.29167" stroke-linejoin="round" stroke-miterlimit="10" fill="none" fill-rule="evenodd" transform="matrix(1 0 0 -1 2475 2084)"/><path d="M0 0 0.000360892 21.0003" stroke="#262626" stroke-width="2.29167" stroke-linejoin="round" stroke-miterlimit="10" fill="none" fill-rule="evenodd" transform="matrix(1 0 0 -1 2698 2084)"/><path d="M0 0 0.000360892 21.0003" stroke="#262626" stroke-width="2.29167" stroke-linejoin="round" stroke-miterlimit="10" fill="none" fill-rule="evenodd" transform="matrix(1 0 0 -1 2922 2084)"/><path d="M0 0 0.000360892 21.0003" stroke="#262626" stroke-width="2.29167" stroke-linejoin="round" stroke-miterlimit="10" fill="none" fill-rule="evenodd" transform="matrix(1 0 0 -1 3145 2084)"/><path d="M0 0 0.000360892 21.0003" stroke="#262626" stroke-width="2.29167" stroke-linejoin="round" stroke-miterlimit="10" fill="none" fill-rule="evenodd" transform="matrix(1 0 0 -1 3368 2084)"/><path d="M1135 1627 1135 1649" stroke="#262626" stroke-width="2.29167" stroke-linejoin="round" stroke-miterlimit="10" fill="none" fill-rule="evenodd"/><path d="M1358 1627 1358 1649" stroke="#262626" stroke-width="2.29167" stroke-linejoin="round" stroke-miterlimit="10" fill="none" fill-rule="evenodd"/><path d="M1582 1627 1582 1649" stroke="#262626" stroke-width="2.29167" stroke-linejoin="round" stroke-miterlimit="10" fill="none" fill-rule="evenodd"/><path d="M1805 1627 1805 1649" stroke="#262626" stroke-width="2.29167" stroke-linejoin="round" stroke-miterlimit="10" fill="none" fill-rule="evenodd"/><path d="M2028 1627 2028 1649" stroke="#262626" stroke-width="2.29167" stroke-linejoin="round" stroke-miterlimit="10" fill="none" fill-rule="evenodd"/><path d="M2252 1627 2252 1649" stroke="#262626" stroke-width="2.29167" stroke-linejoin="round" stroke-miterlimit="10" fill="none" fill-rule="evenodd"/><path d="M2475 1627 2475 1649" stroke="#262626" stroke-width="2.29167" stroke-linejoin="round" stroke-miterlimit="10" fill="none" fill-rule="evenodd"/><path d="M2698 1627 2698 1649" stroke="#262626" stroke-width="2.29167" stroke-linejoin="round" stroke-miterlimit="10" fill="none" fill-rule="evenodd"/><path d="M2922 1627 2922 1649" stroke="#262626" stroke-width="2.29167" stroke-linejoin="round" stroke-miterlimit="10" fill="none" fill-rule="evenodd"/><path d="M3145 1627 3145 1649" stroke="#262626" stroke-width="2.29167" stroke-linejoin="round" stroke-miterlimit="10" fill="none" fill-rule="evenodd"/><path d="M3368 1627 3368 1649" stroke="#262626" stroke-width="2.29167" stroke-linejoin="round" stroke-miterlimit="10" fill="none" fill-rule="evenodd"/><text fill="#262626" font-family="Arial,Arial_MSFontService,sans-serif" font-weight="400" font-size="41" transform="matrix(1 0 0 1 1124.64 2145)">0</text><text fill="#262626" font-family="Arial,Arial_MSFontService,sans-serif" font-weight="400" font-size="41" transform="matrix(1 0 0 1 1348.07 2145)">5</text><text fill="#262626" font-family="Arial,Arial_MSFontService,sans-serif" font-weight="400" font-size="41" transform="matrix(1 0 0 1 1558.33 2145)">10</text><text fill="#262626" font-family="Arial,Arial_MSFontService,sans-serif" font-weight="400" font-size="41" transform="matrix(1 0 0 1 1781.77 2145)">15</text><text fill="#262626" font-family="Arial,Arial_MSFontService,sans-serif" font-weight="400" font-size="41" transform="matrix(1 0 0 1 2005.78 2145)">20</text><text fill="#262626" font-family="Arial,Arial_MSFontService,sans-serif" font-weight="400" font-size="41" transform="matrix(1 0 0 1 2229.22 2145)">25</text><text fill="#262626" font-family="Arial,Arial_MSFontService,sans-serif" font-weight="400" font-size="41" transform="matrix(1 0 0 1 2449.22 2145)">30</text><text fill="#262626" font-family="Arial,Arial_MSFontService,sans-serif" font-weight="400" font-size="41" transform="matrix(1 0 0 1 2673.23 2145)">35</text><text fill="#262626" font-family="Arial,Arial_MSFontService,sans-serif" font-weight="400" font-size="41" transform="matrix(1 0 0 1 2896.67 2145)">40</text><text fill="#262626" font-family="Arial,Arial_MSFontService,sans-serif" font-weight="400" font-size="41" transform="matrix(1 0 0 1 3120.68 2145)">45</text><text fill="#262626" font-family="Arial,Arial_MSFontService,sans-serif" font-weight="400" font-size="41" transform="matrix(1 0 0 1 3344.11 2145)">50</text><text fill="#262626" font-family="Arial,Arial_MSFontService,sans-serif" font-weight="400" font-size="46" transform="matrix(1 0 0 1 2150.16 2205)">Time (ms)</text><path d="M0 0 0.000360892 457" stroke="#262626" stroke-width="2.29167" stroke-linejoin="round" stroke-miterlimit="10" fill="none" fill-rule="evenodd" transform="matrix(1 0 0 -1 1135 2084)"/><path d="M0 0 0.000360892 457" stroke="#262626" stroke-width="2.29167" stroke-linejoin="round" stroke-miterlimit="10" fill="none" fill-rule="evenodd" transform="matrix(1 0 0 -1 3368 2084)"/><path d="M1135 2084 1157 2084" stroke="#262626" stroke-width="2.29167" stroke-linejoin="round" stroke-miterlimit="10" fill="none" fill-rule="evenodd"/><path d="M1135 1932 1157 1932" stroke="#262626" stroke-width="2.29167" stroke-linejoin="round" stroke-miterlimit="10" fill="none" fill-rule="evenodd"/><path d="M1135 1779 1157 1779" stroke="#262626" stroke-width="2.29167" stroke-linejoin="round" stroke-miterlimit="10" fill="none" fill-rule="evenodd"/><path d="M1135 1627 1157 1627" stroke="#262626" stroke-width="2.29167" stroke-linejoin="round" stroke-miterlimit="10" fill="none" fill-rule="evenodd"/><path d="M0 0 22 0.000360892" stroke="#262626" stroke-width="2.29167" stroke-linejoin="round" stroke-miterlimit="10" fill="none" fill-rule="evenodd" transform="matrix(-1 0 0 1 3368 2084)"/><path d="M0 0 22 0.000360892" stroke="#262626" stroke-width="2.29167" stroke-linejoin="round" stroke-miterlimit="10" fill="none" fill-rule="evenodd" transform="matrix(-1 0 0 1 3368 1932)"/><path d="M0 0 22 0.000360892" stroke="#262626" stroke-width="2.29167" stroke-linejoin="round" stroke-miterlimit="10" fill="none" fill-rule="evenodd" transform="matrix(-1 0 0 1 3368 1779)"/><path d="M0 0 22 0.000360892" stroke="#262626" stroke-width="2.29167" stroke-linejoin="round" stroke-miterlimit="10" fill="none" fill-rule="evenodd" transform="matrix(-1 0 0 1 3368 1627)"/><text fill="#262626" font-family="Arial,Arial_MSFontService,sans-serif" font-weight="400" font-size="41" transform="matrix(1 0 0 1 1097.14 2104)">0</text><text fill="#262626" font-family="Arial,Arial_MSFontService,sans-serif" font-weight="400" font-size="41" transform="matrix(1 0 0 1 1097.14 1952)">5</text><text fill="#262626" font-family="Arial,Arial_MSFontService,sans-serif" font-weight="400" font-size="41" transform="matrix(1 0 0 1 1073.07 1798)">10</text><text fill="#262626" font-family="Arial,Arial_MSFontService,sans-serif" font-weight="400" font-size="41" transform="matrix(1 0 0 1 1073.07 1646)">15</text><text fill="#262626" font-family="Arial,Arial_MSFontService,sans-serif" font-weight="400" font-size="46" transform="matrix(-1.83697e-16 -1 1 -1.83697e-16 1059.64 1957)">A</text><text fill="#262626" font-family="Arial,Arial_MSFontService,sans-serif" font-weight="400" font-size="46" transform="matrix(-1.83697e-16 -1 1 -1.83697e-16 1059.64 1926)">m</text><text fill="#262626" font-family="Arial,Arial_MSFontService,sans-serif" font-weight="400" font-size="46" transform="matrix(-1.83697e-16 -1 1 -1.83697e-16 1059.64 1888)">p</text><text fill="#262626" font-family="Arial,Arial_MSFontService,sans-serif" font-weight="400" font-size="46" transform="matrix(-1.83697e-16 -1 1 -1.83697e-16 1059.64 1864)">l</text><text fill="#262626" font-family="Arial,Arial_MSFontService,sans-serif" font-weight="400" font-size="46" transform="matrix(-1.83697e-16 -1 1 -1.83697e-16 1059.64 1854)">i</text><text fill="#262626" font-family="Arial,Arial_MSFontService,sans-serif" font-weight="400" font-size="46" transform="matrix(-1.83697e-16 -1 1 -1.83697e-16 1059.64 1844)">t</text><text fill="#262626" font-family="Arial,Arial_MSFontService,sans-serif" font-weight="400" font-size="46" transform="matrix(-1.83697e-16 -1 1 -1.83697e-16 1059.64 1830)">u</text><text fill="#262626" font-family="Arial,Arial_MSFontService,sans-serif" font-weight="400" font-size="46" transform="matrix(-1.83697e-16 -1 1 -1.83697e-16 1059.64 1806)">d</text><text fill="#262626" font-family="Arial,Arial_MSFontService,sans-serif" font-weight="400" font-size="46" transform="matrix(-1.83697e-16 -1 1 -1.83697e-16 1059.64 1782)">e</text><path d="M1141.5 1615.64C1141.5 1615.42 1141.5 1615.21 1141.72 1614.99L1150.41 1606.39 1141.72 1598.01C1141.5 1597.79 1141.5 1597.58 1141.5 1597.36 1141.5 1597.15 1141.5 1596.93 1141.72 1596.71 1141.93 1596.71 1142.15 1596.5 1142.37 1596.5 1142.37 1596.5 1142.59 1596.71 1143.02 1596.71L1151.5 1605.32 1160.2 1596.71C1160.41 1596.71 1160.63 1596.5 1160.85 1596.5 1161.07 1596.5 1161.28 1596.71 1161.28 1596.71 1161.5 1596.93 1161.5 1597.15 1161.5 1597.36 1161.5 1597.58 1161.5 1597.79 1161.28 1598.01L1152.8 1606.39 1161.28 1614.99C1161.5 1615.21 1161.5 1615.42 1161.5 1615.64 1161.5 1615.85 1161.5 1616.07 1161.28 1616.29 1161.28 1616.29 1161.07 1616.5 1160.85 1616.5 1160.63 1616.5 1160.41 1616.29 1160.2 1616.07L1151.5 1607.68 1143.02 1616.07C1142.8 1616.29 1142.59 1616.5 1142.37 1616.5 1142.15 1616.5 1141.93 1616.29 1141.72 1616.29 1141.5 1616.07 1141.5 1615.85 1141.5 1615.64Z" stroke="#000000" stroke-width="0" stroke-linejoin="round" stroke-miterlimit="10" fill="#262626" fill-rule="evenodd"/><text fill="#262626" font-family="Arial,Arial_MSFontService,sans-serif" font-weight="400" font-size="41" transform="matrix(1 0 0 1 1169.32 1618)">10</text><text fill="#262626" font-family="Arial,Arial_MSFontService,sans-serif" font-weight="400" font-size="37" transform="matrix(1 0 0 1 1217.45 1601)">6</text><text font-family="Arial,Arial_MSFontService,sans-serif" font-weight="700" font-size="46" transform="matrix(1 0 0 1 2095.16 1613)">Sum of square</text><path d="M1180 2063.95 1224.68 2006.09 1269.35 2042.18 1314.03 1775.8 1358.71 1943.65 1403.38 2040.46 1448.06 2051.35 1492.74 1628 1537.41 2032.44 1582.09 2031.87 1626.76 2065.67 1671.44 2043.9 1715.54 1951.67 1760.79 1963.7 1805.47 2061.66 1849.57 1924.74 1894.25 2055.93 1939.5 2076.55 1983.6 2067.96 2028.28 2033.02 2072.96 1988.33 2117.63 2069.68 2162.31 2061.09 2206.99 2057.65 2251.66 1999.22 2296.34 2036.45 2341.01 2023.28 2385.69 2084 2430.37 2071.97 2475.04 2050.77 2519.72 2046.76 2564.4 2000.93 2609.07 2070.82 2653.75 1812.46 2698.43 1998.07 2743.1 2049.63 2787.78 1955.11 2832.46 2053.07 2877.13 2041.61 2921.81 2022.7 2966.48 2027.29 3011.16 2041.61 3055.84 1970 3100.51 1967.71 3145.19 1991.77 3189.87 2071.4 3233.97 2074.83 3279.22 1881.21 3323.9 2002.08 3368 1908.13" stroke="#0072BD" stroke-width="2.29167" stroke-linejoin="round" stroke-miterlimit="10" fill="none" fill-rule="evenodd"/><rect x="1135" y="2026" width="2237" height="10" fill="#262626"/><rect x="1135" y="2029" width="2233" height="6.99988" fill="#FFFFFF"/><rect x="1135" y="2026" width="2237" height="10" fill="#262626"/><text fill="#262626" font-family="Arial,Arial_MSFontService,sans-serif" font-weight="400" font-size="83" transform="matrix(1 0 0 1 2453.23 2010)">Average noise: 1700000</text><path d="M1497 1640.04 1497 1786.96 1497 1787.54 1497 1788.11 1497 1788.69 1497 1789.26 1497 1789.83 1497.57 1790.41 1497.57 1790.41 1498.14 1790.98 1498.14 1791.56 1498.72 1792.13 1498.72 1792.13 1499.29 1792.7 1499.86 1793.28 1499.86 1793.85 1500.43 1793.85 1501.01 1793.85 1501.58 1794.43 1502.15 1794.43 1502.15 1794.43 1502.72 1795 1503.29 1795 1503.87 1795 1504.44 1795 1505.01 1795 1785.42 1795 1785.99 1795 1786.56 1795 1787.13 1795 1787.71 1795 1788.28 1794.43 1788.85 1794.43 1788.85 1794.43 1789.42 1793.85 1789.99 1793.85 1790.57 1793.85 1791.14 1793.28 1791.14 1792.7 1791.71 1792.13 1792.28 1792.13 1792.28 1791.56 1792.86 1790.98 1792.86 1790.41 1792.86 1790.41 1793.43 1789.83 1793.43 1789.26 1793.43 1788.69 1793.43 1788.11 1793.43 1787.54 1794 1786.96 1794 1640.04 1793.43 1639.46 1793.43 1638.89 1793.43 1638.31 1793.43 1637.74 1793.43 1637.74 1792.86 1637.17 1792.86 1636.59 1792.86 1636.02 1792.28 1635.44 1792.28 1635.44 1791.71 1634.87 1791.14 1634.3 1791.14 1633.72 1790.57 1633.72 1789.99 1633.15 1789.42 1633.15 1788.85 1632.57 1788.85 1632.57 1788.28 1632.57 1787.71 1632 1787.13 1632 1786.56 1632 1785.99 1632 1785.42 1632 1505.01 1632 1504.44 1632 1503.87 1632 1503.29 1632 1502.72 1632 1502.15 1632.57 1502.15 1632.57 1501.58 1632.57 1501.01 1633.15 1500.43 1633.15 1499.86 1633.72 1499.86 1633.72 1499.29 1634.3 1498.72 1634.87 1498.72 1635.44 1498.14 1635.44 1498.14 1636.02 1497.57 1636.59 1497.57 1637.17 1497 1637.74 1497 1637.74 1497 1638.31 1497 1638.89 1497 1639.46 1497 1640.04Z" fill="#FAFAFF" fill-rule="evenodd"/><path d="M1497 1786.96 1497 1787.54 1497 1788.11 1497 1788.69 1497 1789.26 1497 1789.83 1497.57 1790.41 1497.57 1790.41 1498.14 1790.98 1498.14 1791.56 1498.72 1792.13 1498.72 1792.13 1499.29 1792.7 1499.86 1793.28 1499.86 1793.85 1500.43 1793.85 1501.01 1793.85 1501.58 1794.43 1502.15 1794.43 1502.15 1794.43 1502.72 1795 1503.29 1795 1503.87 1795 1504.44 1795 1505.01 1795 1785.42 1795 1785.99 1795 1786.56 1795 1787.13 1795 1787.71 1795 1788.28 1794.43 1788.85 1794.43 1788.85 1794.43 1789.42 1793.85 1789.99 1793.85 1790.57 1793.85 1791.14 1793.28 1791.14 1792.7 1791.71 1792.13 1792.28 1792.13 1792.28 1791.56 1792.86 1790.98 1792.86 1790.41 1792.86 1790.41 1793.43 1789.83 1793.43 1789.26 1793.43 1788.69 1793.43 1788.11 1793.43 1787.54 1794 1786.96 1794 1640.04 1793.43 1639.46 1793.43 1638.89 1793.43 1638.31 1793.43 1637.74 1793.43 1637.74 1792.86 1637.17 1792.86 1636.59 1792.86 1636.02 1792.28 1635.44 1792.28 1635.44 1791.71 1634.87 1791.14 1634.3 1791.14 1633.72 1790.57 1633.72 1789.99 1633.15 1789.42 1633.15 1788.85 1632.57 1788.85 1632.57 1788.28 1632.57 1787.71 1632 1787.13 1632 1786.56 1632 1785.99 1632 1785.42 1632 1505.01 1632 1504.44 1632 1503.87 1632 1503.29 1632 1502.72 1632 1502.15 1632.57 1502.15 1632.57 1501.58 1632.57 1501.01 1633.15 1500.43 1633.15 1499.86 1633.72 1499.86 1633.72 1499.29 1634.3 1498.72 1634.87 1498.72 1635.44 1498.14 1635.44 1498.14 1636.02 1497.57 1636.59 1497.57 1637.17 1497 1637.74 1497 1637.74 1497 1638.31 1497 1638.89 1497 1639.46 1497 1640.04 1497 1786.96Z" stroke="#A6A6A6" stroke-width="2.29167" stroke-linejoin="round" stroke-miterlimit="10" fill="none" fill-rule="evenodd"/><text fill="#404040" font-family="Arial,Arial_MSFontService,sans-serif" font-weight="400" font-size="46" transform="matrix(1 0 0 1 1520.52 1706)">X </text><text fill="#0099FF" font-family="Arial,Arial_MSFontService,sans-serif" font-weight="700" font-size="46" transform="matrix(1 0 0 1 1565.21 1706)">8</text><text fill="#404040" font-family="Arial,Arial_MSFontService,sans-serif" font-weight="400" font-size="46" transform="matrix(1 0 0 1 1520.52 1765)">Y </text><text fill="#0099FF" font-family="Arial,Arial_MSFontService,sans-serif" font-weight="700" font-size="46" transform="matrix(1 0 0 1 1565.21 1765)">14970400</text><path d="M1483.5 1628C1483.5 1622.75 1487.75 1618.5 1493 1618.5 1498.25 1618.5 1502.5 1622.75 1502.5 1628 1502.5 1633.25 1498.25 1637.5 1493 1637.5 1487.75 1637.5 1483.5 1633.25 1483.5 1628Z" stroke="#000000" stroke-width="0" stroke-linejoin="round" stroke-miterlimit="10" fill="#262626" fill-rule="evenodd"/><path d="M1493 1618.93C1497.85 1618.93 1502.07 1622.94 1502.07 1628L1502.07 1628C1502.07 1632.85 1497.85 1636.86 1493 1636.86 1487.94 1636.86 1483.93 1632.85 1483.93 1628 1483.93 1622.94 1487.94 1618.93 1493 1618.93ZM1493 1614.5C1485.62 1614.5 1479.5 1620.41 1479.5 1628 1479.5 1635.38 1485.62 1641.5 1493 1641.5 1500.38 1641.5 1506.5 1635.38 1506.5 1628L1506.5 1628C1506.5 1620.41 1500.38 1614.5 1493 1614.5Z" stroke="#000000" stroke-width="0" stroke-linejoin="round" stroke-miterlimit="10" fill="#FFFFDC" fill-rule="evenodd"/></g></svg>