<svg width="2921" height="1300" xmlns="http://www.w3.org/2000/svg" xmlns:xlink="http://www.w3.org/1999/xlink" xml:space="preserve" overflow="hidden"><g transform="translate(-1080 -799)"><rect x="2466" y="1478" width="1469" height="389" stroke="#000000" stroke-width="10.3125" stroke-miterlimit="8" stroke-dasharray="41.25 30.9375 10.3125 30.9375" fill="#FFFFFF"/><text font-family="Arial,Arial_MSFontService,sans-serif" font-weight="400" font-size="110" transform="matrix(1 0 0 1 3145.87 1713)">…</text><rect x="1126" y="1013" width="1157" height="395" stroke="#000000" stroke-width="10.3125" stroke-miterlimit="8" stroke-dasharray="41.25 30.9375 10.3125 30.9375" fill="#FFFFFF"/><text font-family="Arial,Arial_MSFontService,sans-serif" font-weight="400" font-size="110" transform="matrix(1 0 0 1 1649.43 1251)">…</text><rect x="3004" y="1013" width="973" height="395" stroke="#000000" stroke-width="10.3125" stroke-miterlimit="8" stroke-dasharray="41.25 30.9375 10.3125 30.9375" fill="#FFFFFF"/><text font-family="Arial,Arial_MSFontService,sans-serif" font-weight="400" font-size="110" transform="matrix(1 0 0 1 3435.36 1251)">…</text><rect x="1126" y="983" width="1157" height="460" stroke="#000000" stroke-width="10.3125" stroke-miterlimit="8" fill="none"/><rect x="2283" y="1013" width="360" height="395" stroke="#000000" stroke-width="10.3125" stroke-miterlimit="8" stroke-dasharray="41.25 30.9375 10.3125 30.9375" fill="#FFFFFF"/><text font-family="Arial,Arial_MSFontService,sans-serif" font-weight="400" font-size="110" transform="matrix(1 0 0 1 2432.37 1251)">0</text><rect x="2283" y="983" width="1694" height="460" stroke="#000000" stroke-width="10.3125" stroke-miterlimit="8" fill="none"/><rect x="2643" y="1013" width="361" height="395" stroke="#000000" stroke-width="10.3125" stroke-miterlimit="8" stroke-dasharray="41.25 30.9375 10.3125 30.9375" fill="#FFFFFF"/><text font-family="Arial,Arial_MSFontService,sans-serif" font-weight="400" font-size="110" transform="matrix(1 0 0 1 2792.83 1251)">1</text><rect x="1126" y="1443" width="1340" height="459" stroke="#000000" stroke-width="10.3125" stroke-miterlimit="8" fill="none"/><rect x="2103" y="1478" width="363" height="389" stroke="#000000" stroke-width="10.3125" stroke-miterlimit="8" stroke-dasharray="41.25 30.9375 10.3125 30.9375" fill="#FFFFFF"/><text font-family="Arial,Arial_MSFontService,sans-serif" font-weight="400" font-size="110" transform="matrix(1 0 0 1 2161.92 1713)">1022</text><text font-family="Arial,Arial_MSFontService,sans-serif" font-weight="400" font-size="110" transform="matrix(1 0 0 1 2291.97 940)">Signal block n+1</text><text font-family="Arial,Arial_MSFontService,sans-serif" font-weight="400" font-size="110" transform="matrix(1 0 0 1 1200.83 940)">Signal block n</text><text font-family="Arial,Arial_MSFontService,sans-serif" font-weight="400" font-size="110" transform="matrix(1 0 0 1 1159.08 2008)">Local </text><text font-family="Arial,Arial_MSFontService,sans-serif" font-weight="400" font-size="110" transform="matrix(1 0 0 1 1452.99 2008)">code block n</text><rect x="2467" y="1443" width="1510" height="459" stroke="#000000" stroke-width="10.3125" stroke-miterlimit="8" fill="none"/><text font-family="Arial,Arial_MSFontService,sans-serif" font-weight="400" font-size="110" transform="matrix(1 0 0 1 2470.22 2008)">Local </text><text font-family="Arial,Arial_MSFontService,sans-serif" font-weight="400" font-size="110" transform="matrix(1 0 0 1 2764.12 2008)">code block n+1</text><rect x="1126" y="1478" width="980" height="389" stroke="#000000" stroke-width="10.3125" stroke-miterlimit="8" stroke-dasharray="41.25 30.9375 10.3125 30.9375" fill="#FFFFFF"/><text font-family="Arial,Arial_MSFontService,sans-serif" font-weight="400" font-size="110" transform="matrix(1 0 0 1 1560.75 1713)">…</text><rect x="1080" y="951" width="88" height="982" fill="#FFFFFF"/><rect x="3913" y="951" width="88" height="982" fill="#FFFFFF"/></g></svg>