<svg width="3673" height="2046" xmlns="http://www.w3.org/2000/svg" xmlns:xlink="http://www.w3.org/1999/xlink" xml:space="preserve" overflow="hidden"><g transform="translate(-264 -349)"><path d="M1752.5 1160C1752.5 1096.21 1808.24 1044.5 1877 1044.5 1945.76 1044.5 2001.5 1096.21 2001.5 1160 2001.5 1223.79 1945.76 1275.5 1877 1275.5 1808.24 1275.5 1752.5 1223.79 1752.5 1160Z" stroke="#000000" stroke-width="9.16667" stroke-miterlimit="8" fill="none" fill-rule="evenodd"/><path d="M0 0 176.365 162.799" stroke="#000000" stroke-width="9.16667" stroke-miterlimit="8" fill="none" fill-rule="evenodd" transform="matrix(1 0 0 -1 1788.5 1241.3)"/><path d="M1788.5 1078.5 1964.87 1241.3" stroke="#000000" stroke-width="9.16667" stroke-miterlimit="8" fill="none" fill-rule="evenodd"/><path d="M2001.5 1160.5 2523.07 1160.5" stroke="#000000" stroke-width="9.16667" stroke-miterlimit="8" fill="none" fill-rule="evenodd"/><path d="M1881.08 557.5 1881.08 1004.01 1871.92 1004.01 1871.92 557.5ZM1899.42 999.427 1876.5 1045.26 1853.58 999.427Z"/><rect x="269" y="1460" width="559" height="406" stroke="#000000" stroke-width="10.3125" stroke-linejoin="round" stroke-miterlimit="10" fill="none"/><text font-family="Arial,Arial_MSFontService,sans-serif" font-weight="400" font-size="110" transform="matrix(1 0 0 1 425.785 1704)">NCO</text><rect x="269" y="354" width="559" height="406" stroke="#000000" stroke-width="10.3125" stroke-linejoin="round" stroke-miterlimit="10" fill="none"/><text font-family="Cambria Math,Cambria Math_MSFontService,sans-serif" font-weight="400" font-size="110" transform="matrix(1 0 0 1 459.874 598)">s(t)</text><path d="M4.58333-8.15016e-06 4.58362 161.702-4.58305 161.702-4.58333 8.15016e-06ZM22.9169 157.118 0.000360892 202.952-22.9164 157.119Z" transform="matrix(1 0 0 -1 1179.5 1560.45)"/><path d="M828.5 1560.5 1179.6 1560.5" stroke="#000000" stroke-width="9.16667" stroke-miterlimit="8" fill="none" fill-rule="evenodd"/><path d="M831.5 1748.5 1182.6 1748.5" stroke="#000000" stroke-width="9.16667" stroke-miterlimit="8" fill="none" fill-rule="evenodd"/><path d="M1188.08 1748.42 1191.32 1937.35 1182.15 1937.51 1178.92 1748.58ZM1209.57 1932.45 1187.44 1978.67 1163.74 1933.24Z"/><rect x="899" y="957" width="559" height="405" stroke="#000000" stroke-width="10.3125" stroke-linejoin="round" stroke-miterlimit="10" fill="none"/><text font-family="Arial,Arial_MSFontService,sans-serif" font-weight="400" font-size="110" transform="matrix(1 0 0 1 1010.22 1135)">Carrier </text><text font-family="Arial,Arial_MSFontService,sans-serif" font-weight="400" font-size="110" transform="matrix(1 0 0 1 1074.66 1267)">Gen</text><rect x="899" y="1984" width="559" height="406" stroke="#000000" stroke-width="10.3125" stroke-linejoin="round" stroke-miterlimit="10" fill="none"/><text font-family="Arial,Arial_MSFontService,sans-serif" font-weight="400" font-size="110" transform="matrix(1 0 0 1 1046.89 2162)">Code </text><text font-family="Arial,Arial_MSFontService,sans-serif" font-weight="400" font-size="110" transform="matrix(1 0 0 1 1074.66 2294)">Gen</text><path d="M5.63472e-06-4.58333 252.303-4.58302 252.303 4.58364-5.63472e-06 4.58333ZM247.72-22.9164 293.553 0.000360892 247.72 22.917Z" transform="matrix(1 0 0 -1 1458.5 1160.5)"/><path d="M0 0 1048.82 0.000360892" stroke="#000000" stroke-width="9.16667" stroke-miterlimit="8" fill="none" fill-rule="evenodd" transform="matrix(-1 0 0 1 1877.32 557.5)"/><path d="M1458.5 2187.5 2523.04 2187.5" stroke="#000000" stroke-width="9.16667" stroke-miterlimit="8" fill="none" fill-rule="evenodd"/><path d="M2398.5 1660.5C2398.5 1596.99 2454.46 1545.5 2523.5 1545.5 2592.54 1545.5 2648.5 1596.99 2648.5 1660.5 2648.5 1724.01 2592.54 1775.5 2523.5 1775.5 2454.46 1775.5 2398.5 1724.01 2398.5 1660.5Z" stroke="#000000" stroke-width="9.16667" stroke-miterlimit="8" fill="none" fill-rule="evenodd"/><path d="M0 0 176.365 162.799" stroke="#000000" stroke-width="9.16667" stroke-miterlimit="8" fill="none" fill-rule="evenodd" transform="matrix(1 0 0 -1 2435.5 1741.3)"/><path d="M2435.5 1578.5 2611.87 1741.3" stroke="#000000" stroke-width="9.16667" stroke-miterlimit="8" fill="none" fill-rule="evenodd"/><path d="M4.58333-4.01037e-06 4.58366 371.203-4.58301 371.203-4.58333 4.01037e-06ZM22.917 366.62 0.000360892 412.453-22.9163 366.62Z" transform="matrix(1 0 0 -1 2523.5 2187.95)"/><path d="M2528.08 1155.5 2528.44 1503.89 2519.28 1503.9 2518.92 1155.5ZM2546.77 1499.29 2523.9 1545.14 2500.94 1499.34Z"/><path d="M2648.5 1655.92 2994.8 1655.92 2994.8 1665.08 2648.5 1665.08ZM2990.22 1637.58 3036.05 1660.5 2990.22 1683.42Z"/><path d="M3154.11 1595.72 3155.83 1595.72C3155.71 1597.72 3155.65 1600.5 3155.65 1604.04L3155.65 1630.72C3155.65 1631.93 3155.71 1632.84 3155.85 1633.46 3155.98 1634.07 3156.22 1634.57 3156.57 1634.96 3156.91 1635.34 3157.41 1635.65 3158.05 1635.86 3158.7 1636.08 3159.51 1636.25 3160.49 1636.36 3161.47 1636.48 3162.76 1636.56 3164.36 1636.6L3164.36 1638.88 3141.27 1638.88 3141.27 1636.6C3143.58 1636.5 3145.23 1636.35 3146.22 1636.18 3147.21 1636 3147.97 1635.73 3148.49 1635.38 3149.01 1635.03 3149.39 1634.53 3149.63 1633.88 3149.87 1633.23 3149.99 1632.18 3149.99 1630.72L3149.99 1605.38C3149.99 1604.55 3149.84 1603.94 3149.55 1603.55 3149.26 1603.17 3148.83 1602.97 3148.27 1602.97 3147.6 1602.97 3146.66 1603.32 3145.43 1604.01 3144.2 1604.69 3142.68 1605.64 3140.86 1606.85L3139.49 1604.44Z" fill-rule="evenodd"/><text fill="#000000" fill-opacity="0" font-family="Arial,Arial_MSFontService,sans-serif" font-size="43.1562" x="3139.49" y="1633.49">1</text><path d="M3136.33 1687.71 3168.95 1687.71 3166.51 1698.71 3163.51 1698.71C3163.51 1696.69 3163.46 1695.17 3163.36 1694.16 3163.25 1693.15 3163.06 1692.38 3162.76 1691.85 3162.47 1691.32 3162.11 1690.95 3161.69 1690.75 3161.26 1690.56 3160.5 1690.46 3159.42 1690.46L3154.8 1690.46 3148.01 1721.27C3147.83 1722.08 3147.7 1722.73 3147.62 1723.21 3147.55 1723.69 3147.49 1724.19 3147.44 1724.72 3147.38 1725.25 3147.36 1725.73 3147.36 1726.15 3147.36 1726.79 3147.46 1727.3 3147.67 1727.66 3147.88 1728.03 3148.19 1728.29 3148.61 1728.46 3149.02 1728.62 3149.74 1728.75 3150.76 1728.83L3150.42 1730.36 3137.26 1730.36 3137.61 1728.83C3138.44 1728.71 3139.06 1728.54 3139.45 1728.33 3139.85 1728.12 3140.2 1727.8 3140.5 1727.36 3140.8 1726.93 3141.1 1726.24 3141.4 1725.3 3141.71 1724.36 3142.07 1722.95 3142.48 1721.05L3149.17 1690.46 3145.2 1690.46C3143.91 1690.46 3142.88 1690.65 3142.11 1691.02 3141.34 1691.4 3140.57 1692.09 3139.8 1693.11 3139.02 1694.13 3138.09 1695.84 3136.98 1698.24L3133.98 1698.24Z" fill-rule="evenodd"/><text fill="#000000" fill-opacity="0" font-family="Arial,Arial_MSFontService,sans-serif" font-size="42.6562" x="3133.98" y="1725.03">ğ‘‡</text><path d="M3131.8 1667.45 3171.8 1667.45 3171.8 1671.45 3131.8 1671.45Z" fill-rule="evenodd"/><path d="M3221.43 1600.34C3222.53 1600.34 3223.54 1600.44 3224.44 1600.64 3225.35 1600.84 3226.12 1601.08 3226.74 1601.37L3226.15 1607.91 3222.68 1607.91C3222.62 1606.76 3222.37 1605.89 3221.93 1605.3 3221.49 1604.7 3220.69 1604.41 3219.52 1604.41 3216.61 1604.41 3214.48 1607.69 3213.15 1614.25 3211.81 1620.81 3210.62 1638.93 3209.55 1668.59 3208.49 1695.28 3206.42 1713.52 3203.35 1723.31 3200.28 1733.1 3196.13 1738 3190.9 1738 3189.83 1738 3188.86 1737.92 3187.96 1737.75 3187.06 1737.58 3186.27 1737.31 3185.58 1736.94L3186.18 1730.09 3189.33 1730.09C3189.65 1731.47 3190.05 1732.43 3190.55 1732.98 3191.05 1733.54 3191.81 1733.81 3192.83 1733.81 3194.71 1733.81 3196.51 1730.57 3198.24 1724.09 3199.97 1717.61 3201.32 1700.67 3202.3 1673.25 3203.51 1643.5 3205.45 1623.91 3208.13 1614.48 3210.81 1605.06 3215.24 1600.34 3221.43 1600.34Z" fill-rule="evenodd"/><text fill="#000000" fill-opacity="0" font-family="Arial,Arial_MSFontService,sans-serif" font-size="137.656" x="3185.58" y="1720.79">à¶±</text><path d="M3281.07 1639.51C3287.15 1641.12 3291.82 1644.58 3295.08 1649.9 3298.34 1655.23 3299.97 1661.65 3299.97 1669.17 3299.97 1676.71 3298.35 1683.13 3295.1 1688.43 3291.85 1693.74 3287.17 1697.19 3281.07 1698.79L3280.32 1696.39C3285.13 1694.78 3288.71 1691.62 3291.05 1686.89 3293.39 1682.16 3294.57 1676.15 3294.57 1668.86 3294.57 1661.81 3293.4 1655.96 3291.07 1651.31 3288.73 1646.65 3285.12 1643.52 3280.22 1641.92ZM3258.6 1639.51 3259.45 1641.92C3254.57 1643.52 3250.96 1646.65 3248.62 1651.31 3246.28 1655.96 3245.1 1661.81 3245.1 1668.86 3245.1 1676.15 3246.28 1682.16 3248.62 1686.89 3250.96 1691.62 3254.54 1694.78 3259.35 1696.39L3258.6 1698.79C3252.5 1697.19 3247.82 1693.74 3244.57 1688.43 3241.32 1683.13 3239.7 1676.71 3239.7 1669.17 3239.7 1661.65 3241.33 1655.23 3244.59 1649.9 3247.85 1644.58 3252.52 1641.12 3258.6 1639.51Z" fill-rule="evenodd"/><path d="M3269.73 1664.66C3270.55 1664.66 3271.28 1664.85 3271.94 1665.24 3272.59 1665.62 3273.1 1666.16 3273.45 1666.85 3273.81 1667.53 3273.98 1668.31 3273.98 1669.16 3273.98 1670.03 3273.8 1670.82 3273.44 1671.5 3273.07 1672.19 3272.56 1672.72 3271.9 1673.1 3271.25 1673.47 3270.52 1673.66 3269.73 1673.66 3268.94 1673.66 3268.22 1673.47 3267.56 1673.1 3266.9 1672.72 3266.39 1672.19 3266.03 1671.5 3265.67 1670.82 3265.48 1670.03 3265.48 1669.16 3265.48 1668.31 3265.66 1667.53 3266.01 1666.85 3266.37 1666.16 3266.87 1665.62 3267.53 1665.24 3268.19 1664.85 3268.92 1664.66 3269.73 1664.66Z" fill-rule="evenodd"/><text fill="#000000" fill-opacity="0" font-family="Arial,Arial_MSFontService,sans-serif" font-size="9" x="3265.48" y="1672.53">âˆ™</text><path d="M3336.33 1659.5C3334.21 1659.5 3332.3 1660.36 3330.62 1662.08 3328.93 1663.8 3327.6 1666.12 3326.63 1669.03 3325.66 1671.95 3325.18 1674.86 3325.18 1677.75 3325.18 1679.92 3325.48 1681.54 3326.07 1682.61 3326.66 1683.69 3327.66 1684.22 3329.05 1684.22 3329.7 1684.22 3330.36 1684.08 3331.02 1683.8 3331.69 1683.52 3332.38 1683.07 3333.1 1682.44 3333.82 1681.82 3334.53 1681.06 3335.23 1680.16 3335.92 1679.26 3336.56 1678.36 3337.15 1677.46 3337.73 1676.55 3338.27 1675.48 3338.77 1674.24 3339.27 1673 3339.7 1671.5 3340.05 1669.75L3340.33 1668.41C3340.65 1666.91 3340.8 1665.49 3340.8 1664.16 3340.8 1662.53 3340.46 1661.35 3339.77 1660.61 3339.08 1659.87 3337.94 1659.5 3336.33 1659.5ZM3365.58 1649.85 3369.9 1649.85 3368.18 1657.57 3377.68 1657.57 3376.99 1660.72 3367.49 1660.72 3364.71 1672.85C3364.17 1675.2 3363.82 1676.89 3363.68 1677.93 3363.53 1678.96 3363.46 1679.78 3363.46 1680.41 3363.46 1682.99 3364.53 1684.28 3366.68 1684.28 3367.6 1684.28 3368.57 1683.94 3369.6 1683.24 3370.63 1682.54 3371.86 1681.35 3373.27 1679.66L3375.08 1681.53C3373.27 1683.72 3371.53 1685.34 3369.85 1686.38 3368.17 1687.42 3366.42 1687.94 3364.58 1687.94 3360.23 1687.94 3358.05 1685.74 3358.05 1681.35 3358.05 1679.95 3358.23 1678.48 3358.58 1676.94L3362.27 1660.72 3357.02 1660.72 3357.49 1658.57C3358.72 1658.55 3359.65 1658.45 3360.29 1658.28 3360.92 1658.12 3361.45 1657.89 3361.88 1657.6 3362.31 1657.31 3362.7 1656.89 3363.05 1656.35 3363.41 1655.81 3363.75 1655.11 3364.08 1654.27 3364.42 1653.43 3364.92 1651.95 3365.58 1649.85ZM3349.43 1642.75 3351.27 1642.75 3343.49 1677.35C3343.03 1679.39 3342.8 1680.93 3342.8 1681.97 3342.8 1682.81 3342.94 1683.41 3343.21 1683.78 3343.48 1684.16 3343.91 1684.35 3344.49 1684.35 3345.12 1684.35 3345.78 1684.09 3346.49 1683.58 3347.2 1683.07 3348.2 1682.1 3349.49 1680.66L3351.27 1682.41C3349.36 1684.43 3347.74 1685.86 3346.43 1686.69 3345.12 1687.52 3343.7 1687.94 3342.18 1687.94 3340.89 1687.94 3339.86 1687.51 3339.08 1686.66 3338.31 1685.81 3337.93 1684.67 3337.93 1683.25 3337.93 1682.11 3338.17 1680.89 3338.65 1679.6L3338.24 1679.47C3336.24 1682.39 3334.35 1684.52 3332.55 1685.88 3330.76 1687.23 3328.87 1687.91 3326.87 1687.91 3324.57 1687.91 3322.8 1687.05 3321.54 1685.32 3320.28 1683.59 3319.65 1681.16 3319.65 1678.03 3319.65 1674.45 3320.35 1671.01 3321.76 1667.71 3323.16 1664.4 3325.1 1661.8 3327.55 1659.89 3330.01 1657.99 3332.75 1657.03 3335.77 1657.03 3337.04 1657.03 3338.22 1657.16 3339.29 1657.43 3340.36 1657.69 3341.46 1658.14 3342.58 1658.78L3344.21 1651.57C3344.38 1650.88 3344.52 1650.12 3344.65 1649.28 3344.77 1648.45 3344.83 1647.72 3344.83 1647.1 3344.83 1646.47 3344.72 1646 3344.49 1645.68 3344.26 1645.35 3343.93 1645.12 3343.51 1644.97 3343.08 1644.83 3342.31 1644.72 3341.21 1644.66L3341.58 1643.03Z" fill-rule="evenodd"/><text fill="#000000" fill-opacity="0" font-family="Arial,Arial_MSFontService,sans-serif" font-size="45.1875" x="3319.65" y="1682.29">ğ‘‘ğ‘¡</text><rect x="3037.5" y="1537.5" width="465" height="252" stroke="#000000" stroke-width="9.16667" stroke-miterlimit="8" fill="none"/><path d="M3502.5 1646.92 3848.8 1646.92 3848.8 1656.08 3502.5 1656.08ZM3844.22 1628.58 3890.05 1651.5 3844.22 1674.42Z"/></g></svg>