<svg width="3743" height="2046" xmlns="http://www.w3.org/2000/svg" xmlns:xlink="http://www.w3.org/1999/xlink" xml:space="preserve" overflow="hidden"><g transform="translate(-264 -349)"><path d="M1752.5 1160C1752.5 1096.21 1808.24 1044.5 1877 1044.5 1945.76 1044.5 2001.5 1096.21 2001.5 1160 2001.5 1223.79 1945.76 1275.5 1877 1275.5 1808.24 1275.5 1752.5 1223.79 1752.5 1160Z" stroke="#000000" stroke-width="9.16667" stroke-miterlimit="8" fill="none" fill-rule="evenodd"/><path d="M0 0 176.365 162.799" stroke="#000000" stroke-width="9.16667" stroke-miterlimit="8" fill="none" fill-rule="evenodd" transform="matrix(1 0 0 -1 1788.5 1241.3)"/><path d="M1788.5 1078.5 1964.87 1241.3" stroke="#000000" stroke-width="9.16667" stroke-miterlimit="8" fill="none" fill-rule="evenodd"/><path d="M2001.5 1160.5 2523.07 1160.5" stroke="#000000" stroke-width="9.16667" stroke-miterlimit="8" fill="none" fill-rule="evenodd"/><path d="M1881.08 557.5 1881.08 1004.01 1871.92 1004.01 1871.92 557.5ZM1899.42 999.427 1876.5 1045.26 1853.58 999.427Z"/><rect x="269" y="1460" width="559" height="406" stroke="#000000" stroke-width="10.3125" stroke-linejoin="round" stroke-miterlimit="10" fill="none"/><text font-family="Arial,Arial_MSFontService,sans-serif" font-weight="400" font-size="110" transform="matrix(1 0 0 1 425.785 1704)">NCO</text><rect x="269" y="354" width="559" height="406" stroke="#000000" stroke-width="10.3125" stroke-linejoin="round" stroke-miterlimit="10" fill="none"/><text font-family="Cambria Math,Cambria Math_MSFontService,sans-serif" font-weight="400" font-size="110" transform="matrix(1 0 0 1 406.02 532)">Signal</text><text font-family="Cambria Math,Cambria Math_MSFontService,sans-serif" font-weight="400" font-size="110" transform="matrix(1 0 0 1 459.874 664)">s</text><text font-family="Cambria Math,Cambria Math_MSFontService,sans-serif" font-weight="400" font-size="110" transform="matrix(1 0 0 1 507.426 664)">(t)</text><path d="M4.58333-8.15016e-06 4.58362 161.702-4.58305 161.702-4.58333 8.15016e-06ZM22.9169 157.118 0.000360892 202.952-22.9164 157.119Z" transform="matrix(1 0 0 -1 1179.5 1560.45)"/><path d="M828.5 1560.5 1179.6 1560.5" stroke="#000000" stroke-width="9.16667" stroke-miterlimit="8" fill="none" fill-rule="evenodd"/><path d="M831.5 1748.5 1182.6 1748.5" stroke="#000000" stroke-width="9.16667" stroke-miterlimit="8" fill="none" fill-rule="evenodd"/><path d="M1188.08 1748.42 1191.32 1937.35 1182.15 1937.51 1178.92 1748.58ZM1209.57 1932.45 1187.44 1978.67 1163.74 1933.24Z"/><rect x="899" y="957" width="559" height="405" stroke="#000000" stroke-width="10.3125" stroke-linejoin="round" stroke-miterlimit="10" fill="none"/><text font-family="Arial,Arial_MSFontService,sans-serif" font-weight="400" font-size="110" transform="matrix(1 0 0 1 1010.22 1135)">Carrier </text><text font-family="Arial,Arial_MSFontService,sans-serif" font-weight="400" font-size="110" transform="matrix(1 0 0 1 1074.66 1267)">Gen</text><rect x="899" y="1984" width="559" height="406" stroke="#000000" stroke-width="10.3125" stroke-linejoin="round" stroke-miterlimit="10" fill="none"/><text font-family="Arial,Arial_MSFontService,sans-serif" font-weight="400" font-size="110" transform="matrix(1 0 0 1 1046.89 2162)">Code </text><text font-family="Arial,Arial_MSFontService,sans-serif" font-weight="400" font-size="110" transform="matrix(1 0 0 1 1074.66 2294)">Gen</text><path d="M5.63472e-06-4.58333 252.303-4.58302 252.303 4.58364-5.63472e-06 4.58333ZM247.72-22.9164 293.553 0.000360892 247.72 22.917Z" transform="matrix(1 0 0 -1 1458.5 1160.5)"/><path d="M0 0 1048.82 0.000360892" stroke="#000000" stroke-width="9.16667" stroke-miterlimit="8" fill="none" fill-rule="evenodd" transform="matrix(-1 0 0 1 1877.32 557.5)"/><path d="M1458.5 2187.5 2523.04 2187.5" stroke="#000000" stroke-width="9.16667" stroke-miterlimit="8" fill="none" fill-rule="evenodd"/><path d="M2398.5 1660.5C2398.5 1596.99 2454.46 1545.5 2523.5 1545.5 2592.54 1545.5 2648.5 1596.99 2648.5 1660.5 2648.5 1724.01 2592.54 1775.5 2523.5 1775.5 2454.46 1775.5 2398.5 1724.01 2398.5 1660.5Z" stroke="#000000" stroke-width="9.16667" stroke-miterlimit="8" fill="none" fill-rule="evenodd"/><path d="M0 0 176.365 162.799" stroke="#000000" stroke-width="9.16667" stroke-miterlimit="8" fill="none" fill-rule="evenodd" transform="matrix(1 0 0 -1 2435.5 1741.3)"/><path d="M2435.5 1578.5 2611.87 1741.3" stroke="#000000" stroke-width="9.16667" stroke-miterlimit="8" fill="none" fill-rule="evenodd"/><path d="M4.58333-4.01037e-06 4.58366 371.203-4.58301 371.203-4.58333 4.01037e-06ZM22.917 366.62 0.000360892 412.453-22.9163 366.62Z" transform="matrix(1 0 0 -1 2523.5 2187.95)"/><path d="M2528.08 1155.5 2528.44 1503.89 2519.28 1503.9 2518.92 1155.5ZM2546.77 1499.29 2523.9 1545.14 2500.94 1499.34Z"/><path d="M2648.5 1655.92 2994.8 1655.92 2994.8 1665.08 2648.5 1665.08ZM2990.22 1637.58 3036.05 1660.5 2990.22 1683.42Z"/><path d="M3153.81 1535.99 3156.76 1535.99C3156.55 1539.42 3156.44 1544.19 3156.44 1550.27L3156.44 1596.14C3156.44 1598.22 3156.56 1599.79 3156.79 1600.84 3157.02 1601.9 3157.43 1602.76 3158.02 1603.42 3158.61 1604.08 3159.46 1604.6 3160.57 1604.98 3161.69 1605.35 3163.08 1605.64 3164.76 1605.84 3166.45 1606.03 3168.67 1606.17 3171.42 1606.24L3171.42 1610.16 3131.73 1610.16 3131.73 1606.24C3135.71 1606.06 3138.54 1605.82 3140.25 1605.52 3141.95 1605.21 3143.24 1604.75 3144.14 1604.15 3145.03 1603.54 3145.69 1602.68 3146.1 1601.57 3146.51 1600.46 3146.72 1598.65 3146.72 1596.14L3146.72 1552.58C3146.72 1551.15 3146.47 1550.1 3145.97 1549.44 3145.46 1548.78 3144.73 1548.45 3143.76 1548.45 3142.62 1548.45 3140.99 1549.04 3138.88 1550.22 3136.76 1551.4 3134.15 1553.03 3131.03 1555.11L3128.67 1550.97Z" fill-rule="evenodd"/><text fill="#000000" fill-opacity="0" font-family="Arial,Arial_MSFontService,sans-serif" font-size="74.1748" x="3128.67" y="1600.89">1</text><path d="M3123.41 1693.69 3179.49 1693.69 3175.3 1712.59 3170.14 1712.59C3170.14 1709.12 3170.05 1706.52 3169.87 1704.78 3169.7 1703.04 3169.36 1701.72 3168.85 1700.8 3168.35 1699.89 3167.74 1699.26 3167 1698.92 3166.27 1698.58 3164.97 1698.41 3163.11 1698.41L3155.16 1698.41 3143.5 1751.37C3143.18 1752.77 3142.96 1753.88 3142.83 1754.7 3142.71 1755.53 3142.6 1756.4 3142.51 1757.31 3142.42 1758.22 3142.37 1759.04 3142.37 1759.75 3142.37 1760.86 3142.55 1761.73 3142.91 1762.36 3143.27 1762.98 3143.81 1763.44 3144.52 1763.73 3145.24 1764.01 3146.47 1764.23 3148.23 1764.37L3147.64 1767 3125.03 1767 3125.62 1764.37C3127.05 1764.16 3128.11 1763.87 3128.79 1763.51 3129.47 1763.15 3130.07 1762.6 3130.59 1761.85 3131.1 1761.09 3131.62 1759.91 3132.14 1758.3 3132.66 1756.69 3133.28 1754.26 3134 1751L3145.49 1698.41 3138.67 1698.41C3136.45 1698.41 3134.68 1698.74 3133.35 1699.38 3132.03 1700.03 3130.7 1701.23 3129.38 1702.98 3128.05 1704.73 3126.44 1707.67 3124.54 1711.79L3119.39 1711.79Z" fill-rule="evenodd"/><text fill="#000000" fill-opacity="0" font-family="Arial,Arial_MSFontService,sans-serif" font-size="73.3154" x="3119.39" y="1757.84">ğ‘‡</text><path d="M3115.63 1658.41 3183.63 1658.41 3183.63 1665.41 3115.63 1665.41Z" fill-rule="evenodd"/><path d="M3268.93 1543.7C3270.82 1543.7 3272.55 1543.87 3274.11 1544.21 3275.67 1544.55 3276.98 1544.97 3278.06 1545.47L3277.04 1556.69 3271.07 1556.69C3270.97 1554.72 3270.54 1553.23 3269.78 1552.21 3269.03 1551.19 3267.65 1550.68 3265.65 1550.68 3260.64 1550.68 3256.98 1556.32 3254.69 1567.6 3252.4 1578.88 3250.34 1610.01 3248.51 1661 3246.69 1706.87 3243.13 1738.22 3237.85 1755.05 3232.57 1771.88 3225.44 1780.29 3216.45 1780.29 3214.62 1780.29 3212.94 1780.15 3211.4 1779.86 3209.86 1779.58 3208.5 1779.11 3207.32 1778.47L3208.34 1766.7 3213.76 1766.7C3214.3 1769.07 3215 1770.72 3215.86 1771.67 3216.72 1772.62 3218.02 1773.1 3219.78 1773.1 3223 1773.1 3226.1 1767.53 3229.07 1756.39 3232.04 1745.26 3234.37 1716.13 3236.05 1669 3238.13 1617.87 3241.47 1584.2 3246.07 1568 3250.67 1551.8 3258.29 1543.7 3268.93 1543.7Z" fill-rule="evenodd"/><text fill="#000000" fill-opacity="0" font-family="Arial,Arial_MSFontService,sans-serif" font-size="236.597" x="3207.32" y="1750.72">à¶±</text><path d="M3370.49 1611.06C3380.95 1613.82 3388.98 1619.77 3394.58 1628.92 3400.18 1638.07 3402.99 1649.11 3402.99 1662.03 3402.99 1675 3400.19 1686.03 3394.61 1695.15 3389.02 1704.26 3380.98 1710.19 3370.49 1712.95L3369.2 1708.82C3377.47 1706.06 3383.62 1700.62 3387.65 1692.49 3391.68 1684.36 3393.69 1674.03 3393.69 1661.5 3393.69 1649.39 3391.69 1639.34 3387.68 1631.34 3383.67 1623.33 3377.46 1617.95 3369.04 1615.2ZM3332.58 1611.06 3334.03 1615.2C3325.65 1617.95 3319.44 1623.33 3315.41 1631.34 3311.39 1639.34 3309.37 1649.39 3309.37 1661.5 3309.37 1674.03 3311.39 1684.36 3315.41 1692.49 3319.44 1700.62 3325.59 1706.06 3333.86 1708.82L3332.58 1712.95C3322.08 1710.19 3314.04 1704.26 3308.46 1695.15 3302.87 1686.03 3300.08 1675 3300.08 1662.03 3300.08 1649.11 3302.88 1638.07 3308.49 1628.92 3314.09 1619.77 3322.12 1613.82 3332.58 1611.06Z" fill-rule="evenodd"/><path d="M3351.58 1654.26C3352.98 1654.26 3354.24 1654.59 3355.37 1655.26 3356.5 1655.92 3357.37 1656.84 3357.98 1658.02 3358.58 1659.2 3358.89 1660.53 3358.89 1662 3358.89 1663.5 3358.58 1664.84 3357.95 1666.03 3357.32 1667.21 3356.45 1668.12 3355.32 1668.76 3354.19 1669.41 3352.95 1669.73 3351.58 1669.73 3350.22 1669.73 3348.98 1669.41 3347.85 1668.76 3346.72 1668.12 3345.85 1667.21 3345.22 1666.03 3344.59 1664.84 3344.28 1663.5 3344.28 1662 3344.28 1660.53 3344.58 1659.2 3345.19 1658.02 3345.8 1656.84 3346.67 1655.92 3347.8 1655.26 3348.93 1654.59 3350.19 1654.26 3351.58 1654.26Z" fill-rule="evenodd"/><text fill="#000000" fill-opacity="0" font-family="Arial,Arial_MSFontService,sans-serif" font-size="15.4688" x="3344.28" y="1667.8">âˆ™</text><path d="M3465.3 1645.4C3461.65 1645.4 3458.38 1646.88 3455.48 1649.83 3452.57 1652.79 3450.29 1656.77 3448.63 1661.78 3446.96 1666.79 3446.13 1671.79 3446.13 1676.77 3446.13 1680.49 3446.64 1683.28 3447.66 1685.12 3448.68 1686.96 3450.39 1687.89 3452.79 1687.89 3453.9 1687.89 3455.03 1687.64 3456.17 1687.16 3457.32 1686.68 3458.51 1685.9 3459.75 1684.82 3460.98 1683.75 3462.2 1682.44 3463.4 1680.9 3464.6 1679.36 3465.7 1677.81 3466.7 1676.26 3467.7 1674.7 3468.63 1672.86 3469.49 1670.72 3470.35 1668.59 3471.09 1666.03 3471.7 1663.02L3472.18 1660.71C3472.72 1658.13 3472.98 1655.69 3472.98 1653.4 3472.98 1650.61 3472.39 1648.58 3471.21 1647.31 3470.03 1646.04 3468.06 1645.4 3465.3 1645.4ZM3515.98 1628.8 3523.4 1628.8 3520.44 1642.07 3536.77 1642.07 3535.59 1647.49 3519.26 1647.49 3514.48 1668.33C3513.55 1672.38 3512.96 1675.29 3512.71 1677.06 3512.46 1678.84 3512.33 1680.26 3512.33 1681.33 3512.33 1685.77 3514.18 1687.99 3517.86 1687.99 3519.44 1687.99 3521.11 1687.39 3522.89 1686.19 3524.66 1684.99 3526.76 1682.94 3529.2 1680.04L3532.31 1683.27C3529.2 1687.03 3526.2 1689.8 3523.32 1691.59 3520.43 1693.38 3517.42 1694.28 3514.27 1694.28 3506.78 1694.28 3503.04 1690.5 3503.04 1682.94 3503.04 1680.54 3503.34 1678.02 3503.95 1675.37L3510.29 1647.49 3501.27 1647.49 3502.07 1643.79C3504.19 1643.75 3505.79 1643.59 3506.88 1643.31 3507.97 1643.02 3508.89 1642.62 3509.62 1642.12 3510.35 1641.62 3511.02 1640.91 3511.63 1639.98 3512.24 1639.04 3512.83 1637.85 3513.41 1636.4 3513.98 1634.95 3514.84 1632.42 3515.98 1628.8ZM3487.81 1616.61 3490.98 1616.61 3477.6 1676.07C3476.82 1679.58 3476.42 1682.23 3476.42 1684.02 3476.42 1685.45 3476.66 1686.49 3477.12 1687.13 3477.59 1687.78 3478.32 1688.1 3479.32 1688.1 3480.4 1688.1 3481.54 1687.66 3482.76 1686.78 3483.98 1685.91 3485.7 1684.23 3487.92 1681.76L3490.98 1684.77C3487.68 1688.24 3484.91 1690.7 3482.65 1692.13 3480.4 1693.56 3477.96 1694.28 3475.35 1694.28 3473.13 1694.28 3471.36 1693.54 3470.03 1692.07 3468.71 1690.61 3468.04 1688.66 3468.04 1686.22 3468.04 1684.25 3468.46 1682.16 3469.28 1679.94L3468.58 1679.72C3465.14 1684.73 3461.88 1688.4 3458.81 1690.73 3455.73 1693.06 3452.47 1694.22 3449.03 1694.22 3445.09 1694.22 3442.04 1692.74 3439.87 1689.77 3437.71 1686.79 3436.62 1682.62 3436.62 1677.25 3436.62 1671.09 3437.83 1665.17 3440.25 1659.5 3442.67 1653.82 3445.99 1649.35 3450.21 1646.07 3454.44 1642.8 3459.15 1641.16 3464.34 1641.16 3466.52 1641.16 3468.54 1641.38 3470.38 1641.83 3472.22 1642.28 3474.11 1643.05 3476.05 1644.16L3478.84 1631.76C3479.13 1630.58 3479.38 1629.27 3479.59 1627.84 3479.81 1626.4 3479.91 1625.15 3479.91 1624.08 3479.91 1623 3479.72 1622.19 3479.32 1621.63 3478.93 1621.08 3478.36 1620.68 3477.63 1620.42 3476.9 1620.17 3475.58 1619.99 3473.68 1619.89L3474.33 1617.09Z" fill-rule="evenodd"/><text fill="#000000" fill-opacity="0" font-family="Arial,Arial_MSFontService,sans-serif" font-size="77.666" x="3436.62" y="1684.57">ğ‘‘ğ‘¡</text><rect x="3037.5" y="1460.5" width="535" height="390" stroke="#000000" stroke-width="9.16667" stroke-miterlimit="8" fill="none"/><path d="M3572.5 1646.92 3918.8 1646.92 3918.8 1656.08 3572.5 1656.08ZM3914.22 1628.58 3960.05 1651.5 3914.22 1674.42Z"/></g></svg>