<svg width="3743" height="2046" xmlns="http://www.w3.org/2000/svg" xmlns:xlink="http://www.w3.org/1999/xlink" xml:space="preserve" overflow="hidden"><g transform="translate(-264 -349)"><path d="M1752.5 1160C1752.5 1096.21 1808.24 1044.5 1877 1044.5 1945.76 1044.5 2001.5 1096.21 2001.5 1160 2001.5 1223.79 1945.76 1275.5 1877 1275.5 1808.24 1275.5 1752.5 1223.79 1752.5 1160Z" stroke="#000000" stroke-width="9.16667" stroke-miterlimit="8" fill="none" fill-rule="evenodd"/><path d="M0 0 176.365 162.799" stroke="#000000" stroke-width="9.16667" stroke-miterlimit="8" fill="none" fill-rule="evenodd" transform="matrix(1 0 0 -1 1788.5 1241.3)"/><path d="M1788.5 1078.5 1964.87 1241.3" stroke="#000000" stroke-width="9.16667" stroke-miterlimit="8" fill="none" fill-rule="evenodd"/><path d="M2001.5 1160.5 2523.07 1160.5" stroke="#000000" stroke-width="9.16667" stroke-miterlimit="8" fill="none" fill-rule="evenodd"/><path d="M1881.08 557.5 1881.08 1004.01 1871.92 1004.01 1871.92 557.5ZM1899.42 999.427 1876.5 1045.26 1853.58 999.427Z"/><path d="M269 1527.67C269 1490.3 299.296 1460 336.668 1460L760.332 1460C797.704 1460 828 1490.3 828 1527.67L828 1798.33C828 1835.7 797.704 1866 760.332 1866L336.668 1866C299.296 1866 269 1835.7 269 1798.33Z" stroke="#000000" stroke-width="10.3125" stroke-linejoin="round" stroke-miterlimit="10" fill="none" fill-rule="evenodd"/><text font-family="Arial,Arial_MSFontService,sans-serif" font-weight="400" font-size="110" transform="matrix(1 0 0 1 425.785 1704)">NCO</text><path d="M269 421.668C269 384.296 299.296 354 336.668 354L760.332 354C797.704 354 828 384.296 828 421.668L828 692.332C828 729.704 797.704 760 760.332 760L336.668 760C299.296 760 269 729.704 269 692.332Z" stroke="#000000" stroke-width="10.3125" stroke-linejoin="round" stroke-miterlimit="10" fill="none" fill-rule="evenodd"/><text font-family="Arial,Arial_MSFontService,sans-serif" font-weight="400" font-size="110" transform="matrix(1 0 0 1 394.848 532)">Signal</text><text font-family="Cambria Math,Cambria Math_MSFontService,sans-serif" font-weight="400" font-size="110" transform="matrix(1 0 0 1 459.862 664)">s(t)</text><path d="M4.58333-8.15016e-06 4.58362 161.702-4.58305 161.702-4.58333 8.15016e-06ZM22.9169 157.118 0.000360892 202.952-22.9164 157.119Z" transform="matrix(1 0 0 -1 1179.5 1560.45)"/><path d="M828.5 1560.5 1179.6 1560.5" stroke="#000000" stroke-width="9.16667" stroke-miterlimit="8" fill="none" fill-rule="evenodd"/><path d="M831.5 1748.5 1182.6 1748.5" stroke="#000000" stroke-width="9.16667" stroke-miterlimit="8" fill="none" fill-rule="evenodd"/><path d="M1188.08 1748.42 1191.32 1937.35 1182.15 1937.51 1178.92 1748.58ZM1209.57 1932.45 1187.44 1978.67 1163.74 1933.24Z"/><path d="M899 1024.5C899 987.221 929.221 957 966.501 957L1390.5 957C1427.78 957 1458 987.221 1458 1024.5L1458 1294.5C1458 1331.78 1427.78 1362 1390.5 1362L966.501 1362C929.221 1362 899 1331.78 899 1294.5Z" stroke="#000000" stroke-width="10.3125" stroke-linejoin="round" stroke-miterlimit="10" fill="none" fill-rule="evenodd"/><text font-family="Arial,Arial_MSFontService,sans-serif" font-weight="400" font-size="110" transform="matrix(1 0 0 1 1010.22 1135)">Carrier </text><text font-family="Arial,Arial_MSFontService,sans-serif" font-weight="400" font-size="110" transform="matrix(1 0 0 1 1074.69 1267)">Gen</text><path d="M899 2051.67C899 2014.3 929.296 1984 966.668 1984L1390.33 1984C1427.7 1984 1458 2014.3 1458 2051.67L1458 2322.33C1458 2359.7 1427.7 2390 1390.33 2390L966.668 2390C929.296 2390 899 2359.7 899 2322.33Z" stroke="#000000" stroke-width="10.3125" stroke-linejoin="round" stroke-miterlimit="10" fill="none" fill-rule="evenodd"/><text font-family="Arial,Arial_MSFontService,sans-serif" font-weight="400" font-size="110" transform="matrix(1 0 0 1 1046.89 2162)">Code </text><text font-family="Arial,Arial_MSFontService,sans-serif" font-weight="400" font-size="110" transform="matrix(1 0 0 1 1074.69 2294)">Gen</text><path d="M5.63472e-06-4.58333 252.303-4.58302 252.303 4.58364-5.63472e-06 4.58333ZM247.72-22.9164 293.553 0.000360892 247.72 22.917Z" transform="matrix(1 0 0 -1 1458.5 1160.5)"/><path d="M0 0 1048.82 0.000360892" stroke="#000000" stroke-width="9.16667" stroke-miterlimit="8" fill="none" fill-rule="evenodd" transform="matrix(-1 0 0 1 1877.32 557.5)"/><path d="M1458.5 2187.5 2523.04 2187.5" stroke="#000000" stroke-width="9.16667" stroke-miterlimit="8" fill="none" fill-rule="evenodd"/><path d="M2398.5 1660.5C2398.5 1596.99 2454.46 1545.5 2523.5 1545.5 2592.54 1545.5 2648.5 1596.99 2648.5 1660.5 2648.5 1724.01 2592.54 1775.5 2523.5 1775.5 2454.46 1775.5 2398.5 1724.01 2398.5 1660.5Z" stroke="#000000" stroke-width="9.16667" stroke-miterlimit="8" fill="none" fill-rule="evenodd"/><path d="M0 0 176.365 162.799" stroke="#000000" stroke-width="9.16667" stroke-miterlimit="8" fill="none" fill-rule="evenodd" transform="matrix(1 0 0 -1 2435.5 1741.3)"/><path d="M2435.5 1578.5 2611.87 1741.3" stroke="#000000" stroke-width="9.16667" stroke-miterlimit="8" fill="none" fill-rule="evenodd"/><path d="M4.58333-4.01037e-06 4.58366 371.203-4.58301 371.203-4.58333 4.01037e-06ZM22.917 366.62 0.000360892 412.453-22.9163 366.62Z" transform="matrix(1 0 0 -1 2523.5 2187.95)"/><path d="M2528.08 1155.5 2528.44 1503.89 2519.28 1503.9 2518.92 1155.5ZM2546.77 1499.29 2523.9 1545.14 2500.94 1499.34Z"/><path d="M2648.5 1655.92 2994.8 1655.92 2994.8 1665.08 2648.5 1665.08ZM2990.22 1637.58 3036.05 1660.5 2990.22 1683.42Z"/><path d="M3144.61 1533.33 3147.57 1533.33C3147.35 1536.76 3147.24 1541.53 3147.24 1547.61L3147.24 1593.48C3147.24 1595.56 3147.36 1597.13 3147.59 1598.18 3147.83 1599.24 3148.24 1600.1 3148.83 1600.76 3149.42 1601.42 3150.27 1601.94 3151.38 1602.32 3152.49 1602.69 3153.89 1602.98 3155.57 1603.18 3157.25 1603.37 3159.47 1603.51 3162.23 1603.58L3162.23 1607.5 3122.54 1607.5 3122.54 1603.58C3126.51 1603.4 3129.35 1603.16 3131.05 1602.85 3132.75 1602.55 3134.05 1602.09 3134.94 1601.48 3135.84 1600.88 3136.49 1600.02 3136.9 1598.91 3137.32 1597.8 3137.52 1595.99 3137.52 1593.48L3137.52 1549.92C3137.52 1548.49 3137.27 1547.44 3136.77 1546.78 3136.27 1546.12 3135.54 1545.79 3134.57 1545.79 3133.42 1545.79 3131.79 1546.38 3129.68 1547.56 3127.57 1548.74 3124.95 1550.37 3121.84 1552.45L3119.48 1548.31Z" fill-rule="evenodd"/><text fill="#000000" fill-opacity="0" font-family="Arial,Arial_MSFontService,sans-serif" font-size="74.1748" x="3119.48" y="1598.23">1</text><path d="M3114.22 1691.03 3170.29 1691.03 3166.1 1709.93 3160.95 1709.93C3160.95 1706.46 3160.86 1703.85 3160.68 1702.12 3160.5 1700.38 3160.16 1699.06 3159.66 1698.14 3159.16 1697.23 3158.54 1696.6 3157.81 1696.26 3157.07 1695.92 3155.77 1695.75 3153.91 1695.75L3145.96 1695.75 3134.31 1748.71C3133.99 1750.11 3133.76 1751.22 3133.64 1752.04 3133.51 1752.87 3133.4 1753.73 3133.31 1754.65 3133.22 1755.56 3133.18 1756.38 3133.18 1757.09 3133.18 1758.2 3133.36 1759.07 3133.72 1759.7 3134.07 1760.32 3134.61 1760.78 3135.33 1761.07 3136.04 1761.35 3137.28 1761.57 3139.03 1761.71L3138.44 1764.34 3115.83 1764.34 3116.42 1761.71C3117.85 1761.5 3118.91 1761.21 3119.59 1760.85 3120.27 1760.49 3120.87 1759.94 3121.39 1759.19 3121.91 1758.43 3122.43 1757.25 3122.95 1755.64 3123.47 1754.03 3124.08 1751.59 3124.8 1748.34L3136.29 1695.75 3129.47 1695.75C3127.25 1695.75 3125.48 1696.08 3124.16 1696.72 3122.83 1697.36 3121.51 1698.56 3120.18 1700.32 3118.86 1702.07 3117.25 1705.01 3115.35 1709.13L3110.19 1709.13Z" fill-rule="evenodd"/><text fill="#000000" fill-opacity="0" font-family="Arial,Arial_MSFontService,sans-serif" font-size="73.3154" x="3110.19" y="1755.18">ğ‘‡</text><path d="M3106.43 1655.75 3174.43 1655.75 3174.43 1662.75 3106.43 1662.75Z" fill-rule="evenodd"/><path d="M3259.73 1541.04C3261.63 1541.04 3263.36 1541.21 3264.91 1541.55 3266.47 1541.89 3267.79 1542.31 3268.86 1542.81L3267.84 1554.03 3261.88 1554.03C3261.77 1552.06 3261.34 1550.57 3260.59 1549.55 3259.84 1548.53 3258.46 1548.02 3256.45 1548.02 3251.44 1548.02 3247.79 1553.66 3245.5 1564.94 3243.2 1576.22 3241.15 1607.35 3239.32 1658.34 3237.49 1704.21 3233.94 1735.56 3228.66 1752.39 3223.38 1769.22 3216.24 1777.63 3207.25 1777.63 3205.43 1777.63 3203.75 1777.49 3202.21 1777.2 3200.67 1776.92 3199.3 1776.45 3198.12 1775.81L3199.14 1764.04 3204.57 1764.04C3205.11 1766.41 3205.8 1768.06 3206.66 1769.01 3207.52 1769.96 3208.83 1770.43 3210.58 1770.43 3213.81 1770.43 3216.9 1764.87 3219.88 1753.73 3222.85 1742.59 3225.18 1713.47 3226.86 1666.34 3228.94 1615.21 3232.27 1581.54 3236.88 1565.34 3241.48 1549.14 3249.09 1541.04 3259.73 1541.04Z" fill-rule="evenodd"/><text fill="#000000" fill-opacity="0" font-family="Arial,Arial_MSFontService,sans-serif" font-size="236.597" x="3198.12" y="1748.06">à¶±</text><path d="M3361.3 1608.4C3371.75 1611.16 3379.78 1617.11 3385.39 1626.26 3390.99 1635.41 3393.79 1646.45 3393.79 1659.37 3393.79 1672.33 3391 1683.37 3385.41 1692.49 3379.83 1701.6 3371.79 1707.53 3361.3 1710.29L3360.01 1706.15C3368.28 1703.4 3374.43 1697.95 3378.46 1689.83 3382.48 1681.7 3384.5 1671.37 3384.5 1658.84 3384.5 1646.73 3382.49 1636.68 3378.48 1628.68 3374.47 1620.67 3368.26 1615.29 3359.85 1612.54ZM3323.38 1608.4 3324.83 1612.54C3316.45 1615.29 3310.25 1620.67 3306.22 1628.68 3302.19 1636.68 3300.18 1646.73 3300.18 1658.84 3300.18 1671.37 3302.19 1681.7 3306.22 1689.83 3310.25 1697.95 3316.4 1703.4 3324.67 1706.15L3323.38 1710.29C3312.89 1707.53 3304.85 1701.6 3299.26 1692.49 3293.68 1683.37 3290.89 1672.33 3290.89 1659.37 3290.89 1646.45 3293.69 1635.41 3299.29 1626.26 3304.89 1617.11 3312.92 1611.16 3323.38 1608.4Z" fill-rule="evenodd"/><path d="M3342.39 1651.6C3343.79 1651.6 3345.05 1651.93 3346.18 1652.6 3347.3 1653.26 3348.17 1654.18 3348.78 1655.36 3349.39 1656.54 3349.69 1657.87 3349.69 1659.34 3349.69 1660.84 3349.38 1662.18 3348.75 1663.36 3348.13 1664.55 3347.25 1665.46 3346.12 1666.1 3344.99 1666.75 3343.75 1667.07 3342.39 1667.07 3341.03 1667.07 3339.78 1666.75 3338.66 1666.1 3337.53 1665.46 3336.65 1664.55 3336.02 1663.36 3335.4 1662.18 3335.08 1660.84 3335.08 1659.34 3335.08 1657.87 3335.39 1656.54 3336 1655.36 3336.61 1654.18 3337.47 1653.26 3338.6 1652.6 3339.73 1651.93 3340.99 1651.6 3342.39 1651.6Z" fill-rule="evenodd"/><text fill="#000000" fill-opacity="0" font-family="Arial,Arial_MSFontService,sans-serif" font-size="15.4688" x="3335.08" y="1665.14">âˆ™</text><path d="M3456.11 1642.74C3452.46 1642.74 3449.18 1644.22 3446.28 1647.17 3443.38 1650.12 3441.1 1654.11 3439.43 1659.12 3437.77 1664.13 3436.93 1669.13 3436.93 1674.11 3436.93 1677.83 3437.44 1680.61 3438.47 1682.46 3439.49 1684.3 3441.2 1685.22 3443.59 1685.22 3444.7 1685.22 3445.83 1684.98 3446.98 1684.5 3448.12 1684.02 3449.31 1683.24 3450.55 1682.16 3451.79 1681.09 3453 1679.78 3454.2 1678.24 3455.4 1676.7 3456.5 1675.15 3457.51 1673.6 3458.51 1672.04 3459.44 1670.19 3460.3 1668.06 3461.16 1665.93 3461.89 1663.36 3462.5 1660.36L3462.98 1658.05C3463.52 1655.47 3463.79 1653.03 3463.79 1650.74 3463.79 1647.95 3463.2 1645.92 3462.02 1644.65 3460.84 1643.37 3458.87 1642.74 3456.11 1642.74ZM3506.79 1626.14 3514.2 1626.14 3511.25 1639.41 3527.57 1639.41 3526.39 1644.83 3510.07 1644.83 3505.28 1665.67C3504.35 1669.72 3503.76 1672.63 3503.51 1674.4 3503.26 1676.17 3503.14 1677.6 3503.14 1678.67 3503.14 1683.11 3504.98 1685.33 3508.67 1685.33 3510.24 1685.33 3511.92 1684.73 3513.69 1683.53 3515.46 1682.33 3517.57 1680.28 3520 1677.38L3523.12 1680.61C3520 1684.37 3517 1687.14 3514.12 1688.93 3511.24 1690.72 3508.22 1691.62 3505.07 1691.62 3497.59 1691.62 3493.84 1687.84 3493.84 1680.28 3493.84 1677.88 3494.15 1675.36 3494.76 1672.71L3501.1 1644.83 3492.07 1644.83 3492.88 1641.13C3494.99 1641.09 3496.59 1640.93 3497.68 1640.64 3498.78 1640.36 3499.69 1639.96 3500.42 1639.46 3501.16 1638.96 3501.83 1638.25 3502.44 1637.31 3503.05 1636.38 3503.64 1635.19 3504.21 1633.74 3504.78 1632.29 3505.64 1629.76 3506.79 1626.14ZM3478.61 1613.95 3481.78 1613.95 3468.41 1673.41C3467.62 1676.92 3467.23 1679.57 3467.23 1681.36 3467.23 1682.79 3467.46 1683.83 3467.93 1684.47 3468.39 1685.12 3469.12 1685.44 3470.13 1685.44 3471.2 1685.44 3472.35 1685 3473.57 1684.12 3474.78 1683.25 3476.5 1681.57 3478.72 1679.1L3481.78 1682.11C3478.49 1685.58 3475.71 1688.04 3473.46 1689.47 3471.2 1690.9 3468.77 1691.62 3466.15 1691.62 3463.93 1691.62 3462.16 1690.88 3460.84 1689.41 3459.51 1687.95 3458.85 1685.99 3458.85 1683.56 3458.85 1681.59 3459.26 1679.5 3460.08 1677.28L3459.39 1677.06C3455.95 1682.07 3452.69 1685.74 3449.61 1688.07 3446.53 1690.4 3443.27 1691.56 3439.83 1691.56 3435.9 1691.56 3432.84 1690.08 3430.68 1687.1 3428.51 1684.13 3427.43 1679.96 3427.43 1674.59 3427.43 1668.43 3428.64 1662.51 3431.05 1656.84 3433.47 1651.16 3436.79 1646.69 3441.02 1643.41 3445.24 1640.13 3449.95 1638.5 3455.14 1638.5 3457.33 1638.5 3459.34 1638.72 3461.18 1639.17 3463.03 1639.61 3464.92 1640.39 3466.85 1641.5L3469.64 1629.1C3469.93 1627.91 3470.18 1626.61 3470.4 1625.18 3470.61 1623.74 3470.72 1622.49 3470.72 1621.42 3470.72 1620.34 3470.52 1619.53 3470.13 1618.97 3469.73 1618.42 3469.17 1618.01 3468.44 1617.76 3467.7 1617.51 3466.39 1617.33 3464.49 1617.23L3465.13 1614.43Z" fill-rule="evenodd"/><text fill="#000000" fill-opacity="0" font-family="Arial,Arial_MSFontService,sans-serif" font-size="77.666" x="3427.43" y="1681.91">ğ‘‘ğ‘¡</text><path d="M3037.5 1525.5C3037.5 1489.6 3066.6 1460.5 3102.5 1460.5L3507.5 1460.5C3543.4 1460.5 3572.5 1489.6 3572.5 1525.5L3572.5 1785.5C3572.5 1821.4 3543.4 1850.5 3507.5 1850.5L3102.5 1850.5C3066.6 1850.5 3037.5 1821.4 3037.5 1785.5Z" stroke="#000000" stroke-width="9.16667" stroke-miterlimit="8" fill="none" fill-rule="evenodd"/><path d="M3572.5 1646.92 3918.8 1646.92 3918.8 1656.08 3572.5 1656.08ZM3914.22 1628.58 3960.05 1651.5 3914.22 1674.42Z"/></g></svg>